<svg xmlns="http://www.w3.org/2000/svg" xmlns:xlink="http://www.w3.org/1999/xlink" fill="none" version="1.1" width="512" height="185.9730987548828" viewBox="0 0 512 185.9730987548828"><g style="mix-blend-mode:passthrough"><path d="M29.1012,14.5291C29.1012,18.409,27.5783,21.9336,25.0967,24.5394C36.0131,46.063,41.2175,68.9244,40.7098,93.1235C40.4319,106.374,38.4596,119.152,34.793,131.458C49.2618,116.288,66.7769,104.769,87.3382,96.9001C87.3153,96.5671,87.3037,96.2311,87.3037,95.8924C87.3037,87.868,93.8183,81.3632,101.854,81.3632C109.89,81.3632,116.405,87.868,116.405,95.8924C116.405,103.917,109.89,110.422,101.854,110.422C96.738,110.422,92.2384,107.785,89.6442,103.798C63.0045,114.059,41.7645,130.791,25.9243,153.995C24.9932,155.88,24.0183,157.753,22.9996,159.614C26.6934,162.249,29.1012,166.565,29.1012,171.444C29.1012,179.468,22.5867,185.973,14.5506,185.973C6.51456,185.973,0,179.468,0,171.444C0,163.42,6.51456,156.915,14.5506,156.915C14.83,156.915,15.1075,156.923,15.3829,156.938Q17.436,153.556,19.6201,150.331C28.4053,132.377,33.0106,113.257,33.4361,92.9713C33.9138,70.2004,29.0676,48.6763,18.8974,28.3989C17.5248,28.8274,16.0647,29.0583,14.5506,29.0583C6.51456,29.0583,0,22.5535,0,14.5291C0,6.50477,6.51456,0,14.5506,0C22.5867,0,29.1012,6.50477,29.1012,14.5291ZM213.712,32.736L200.617,31.9187Q185.884,31.9187,174.426,34.3705L174.426,165.587L197.343,165.587Q207.164,165.587,222.715,163.952Q267.731,143.566,268.55,92.2147L267.731,82.4529Q259.547,36.005,213.712,32.736ZM382.863,31.9187L376.315,31.9187Q372.223,31.9187,371.405,36.9585L371.405,81.3178L338.666,81.3178Q336.21,81.3178,316.567,79.6379Q305.051,81.2136,304.337,79.1143Q304.29,78.9755,304.29,78.8206L304.29,73.7808Q304.29,65.4266,305.927,33.5987L301.016,31.9187L295.287,31.9187Q291.194,69.5129,287.102,140.342L287.102,154.236Q290.376,161.591,294.468,161.591L298.561,161.591Q301.016,150.967,302.653,94.5757Q302.653,93.7584,304.29,92.9411L368.131,92.9411L368.131,122.317Q368.131,128.855,367.312,146.835Q364.753,160.216,369.696,164.136Q371.076,165.23,373.042,165.587Q377.134,165.587,379.589,156.779Q379.589,135.893,382.863,81.3178L382.863,31.9187ZM487.446,45.6306Q481.717,32.5544,453.07,33.3716Q437.519,35.0062,426.06,44.8133Q400.688,72.6003,402.325,128.992Q409.691,159.775,441.611,162.681Q457.981,162.681,479.261,143.067L485.809,134.077L486.627,143.884Q485.809,153.691,486.627,165.587Q490.72,168.493,493.175,168.493L494.812,168.493Q494.874,168.493,494.934,168.485Q500.515,167.788,498.086,102.93L507.908,104.564L512,99.1614Q512,96.0286,502.178,92.9411L490.72,92.9411L449.796,94.4849L449.796,98.7982Q449.796,103.112,459.618,104.564L480.898,104.564Q483.353,104.564,483.353,107.062L483.353,112.873Q463.71,150.24,445.704,151.058L432.608,148.606Q421.968,142.885,417.057,128.992Q412.965,112.646,419.513,83.2248Q430.971,51.3515,448.978,45.6306L458.799,44.8133Q466.166,44.8133,487.446,48.0824L487.446,45.6306ZM186.703,128.81L186.703,44.3593L188.34,43.542Q243.996,42.7248,252.18,76.8229Q257.91,104.428,248.907,121.5Q234.174,147.471,207.164,153.146L186.703,153.964L186.703,128.81Z" fill-rule="evenodd" fill="#82318E" fill-opacity="1"/></g></svg>