<svg xmlns="http://www.w3.org/2000/svg" xmlns:xlink="http://www.w3.org/1999/xlink" fill="none" version="1.1" width="560" height="420" viewBox="0 0 560 420"><g style="mix-blend-mode:passthrough"><g style="mix-blend-mode:passthrough"><ellipse cx="161.5" cy="240.5" rx="38.5" ry="119.5" fill="#000000" fill-opacity="0.03999999910593033"/><path d="M146.0524,131.0411Q148.312,127.96886,150.6794,125.81686L152.0246,127.29681Q149.8049,129.31458,147.6635,132.226L146.0524,131.0411ZM139.1498,143.198Q140.668,139.8382,142.2837,136.9496L144.0292,137.9259Q142.4553,140.7398,140.9724,144.0216L139.1498,143.198ZM134.1823,156.2939Q135.2899,152.832,136.4847,149.662L138.3562,150.3674Q137.1793,153.4899,136.0872,156.9033L134.1823,156.2939ZM130.46338,169.7898Q131.29045,166.2924,132.19706,162.9903L134.1257,163.5199Q133.2285,166.7875,132.4097,170.2501L130.46338,169.7898ZM127.66234,183.49779999999998Q128.27554,179.9909,128.96274,176.6188L130.92246,177.0182Q130.24085,180.3629,129.63245,183.8423L127.66234,183.49779999999998ZM125.59733,197.35160000000002Q126.03741,193.8237,126.5485,190.3893L128.52672,190.6837Q128.0191,194.09480000000002,127.58195,197.5992L125.59733,197.35160000000002ZM124.16792,211.2895Q124.45404,207.7665,124.80859,204.3039L126.79819,204.5077Q126.44578,207.9493,126.16135,211.4514L124.16792,211.2895ZM123.313458,225.28199999999998Q123.459245,221.75799999999998,123.672244,218.2663L125.66853,218.3881Q125.45673,221.86,125.31175,225.365L123.313458,225.28199999999998ZM123.00204193,239.269Q123.0136502,235.77100000000002,123.091173,232.281L125.09068,232.325Q125.01358,235.797,125.00203,239.276L123.00204193,239.269ZM123.219139,253.232Q123.0982042,249.729,123.0439706,246.20999999999998L125.04373,246.179Q125.09767,249.679,125.21795,253.163L123.219139,253.232ZM123.97464,267.21799999999996Q123.717837,263.743,123.528228,260.227L125.52533,260.12Q125.71386,263.616,125.9692,267.071L123.97464,267.21799999999996ZM125.29881,281.174Q124.89654,277.725,124.56319,274.206L126.55428,274.017Q126.88559,277.515,127.28534,280.943L125.29881,281.174ZM127.24265,295.034Q126.68128,291.63599999999997,126.19094,288.134L128.17161,287.85699999999997Q128.65852,291.334,129.21589,294.70799999999997L127.24265,295.034ZM129.90557,308.789Q129.15319,305.435,128.47638,301.93L130.44011,301.551Q131.11125,305.026,131.85706,308.351L129.90557,308.789ZM133.4449,322.337Q132.45546,319.06899999999996,131.54768,315.58000000000004L133.4832,315.077Q134.3811,318.527,135.3591,321.75800000000004L133.4449,322.337ZM138.1531,335.52Q136.8414,332.416,135.6201,328.974L137.505,328.305Q138.7067,331.69100000000003,139.9955,334.74199999999996L138.1531,335.52ZM144.6284,347.91499999999996Q142.8184,345.175,141.1102,341.865L142.8875,340.948Q144.5463,344.163,146.297,346.812L144.6284,347.91499999999996ZM154.2764,357.878Q151.539,356.255,148.9056,353.425L150.3696,352.063Q152.80689999999998,354.68100000000004,155.2964,356.15700000000004L154.2764,357.878ZM167.6201,358.481Q164.5796,360,161.5,360Q161.1902,360,160.88049999999998,359.985L160.9804,357.98699999999997Q161.24009999999998,358,161.5,358Q164.1077,358,166.726,356.69100000000003L167.6201,358.481ZM177.6793,348.93600000000004Q175.5023,352.065,173.21699999999998,354.331L171.8087,352.911Q173.9645,350.773,176.0375,347.794L177.6793,348.93600000000004ZM184.3606,336.653Q182.8844,340.034,181.31119999999999,342.96500000000003L179.5491,342.019Q181.0838,339.15999999999997,182.5277,335.853L184.3606,336.653ZM189.189,323.529Q188.1138,326.98400000000004,186.9528,330.159L185.0744,329.473Q186.2188,326.34299999999996,187.2794,322.935L189.189,323.529ZM192.81900000000002,310Q192.0145,313.493,191.13139999999999,316.797L189.19920000000002,316.281Q190.0734,313.01,190.87,309.551L192.81900000000002,310ZM195.5506,296.267Q194.9537,299.778,194.28300000000002,303.159L192.3212,302.77Q192.9866,299.416,193.5789,295.932L195.5506,296.267ZM197.5543,282.413Q197.1289,285.93899999999996,196.6327,289.374L194.6533,289.089Q195.1461,285.676,195.5687,282.173L197.5543,282.413ZM198.93099999999998,268.464Q198.65789999999998,271.98699999999997,198.31650000000002,275.451L196.3261,275.255Q196.6655,271.81100000000004,196.937,268.31L198.93099999999998,268.464ZM199.73590000000002,254.473Q199.6024,257.994,199.40179999999998,261.483L197.4051,261.368Q197.6045,257.899,197.7373,254.398L199.73590000000002,254.473ZM200,240.5Q200,243.98399999999998,199.9346,247.462L197.935,247.425Q198,243.965,198,240.5L200,240.5ZM199.82150000000001,229.006Q199.9308,232.51600000000002,199.97320000000002,236.039L197.9733,236.063Q197.93110000000001,232.559,197.8225,229.06900000000002L199.82150000000001,229.006ZM199.11509999999998,215.02679999999998Q199.3598,218.507,199.53719999999998,222.026L197.53969999999998,222.127Q197.36329999999998,218.6275,197.12,215.1671L199.11509999999998,215.02679999999998ZM197.8433,201.0655Q198.2323,204.5192,198.5525,208.0404L196.5607,208.2215Q196.2424,204.7215,195.85590000000002,201.2893L197.8433,201.0655ZM195.9562,187.187Q196.5039,190.59730000000002,196.9805,194.10899999999998L194.99869999999999,194.3779Q194.52530000000002,190.89,193.98149999999998,187.5042L195.9562,187.187ZM193.3647,173.4322Q194.0996,176.79579999999999,194.7591,180.3066L192.7935,180.6759Q192.1394,177.1938,191.4108,173.8591L193.3647,173.4322ZM189.91559999999998,159.8703Q190.878,163.1378,191.75979999999998,166.6173L189.8211,167.1086Q188.9487,163.6663,187.9971,160.43529999999998L189.91559999999998,159.8703ZM185.3278,146.6367Q186.6017,149.7524,187.7868,153.18959999999998L185.89600000000002,153.8415Q184.7293,150.4574,183.4766,147.3936L185.3278,146.6367ZM179.05939999999998,134.1528Q180.8116,136.9402,182.4632,140.2679L180.6716,141.157Q179.0649,137.9194,177.3662,135.2172L179.05939999999998,134.1528ZM169.7697,123.78931Q172.397,125.58281,174.9184,128.49295L173.4069,129.8026Q171.0553,127.08845,168.6421,125.44113L169.7697,123.78931ZM163.3647,121.140239L163.067,123.11796Q162.2832,123,161.5,123Q159.38400000000001,123,157.2604,123.86185L156.5083,122.00867Q158.99360000000001,121,161.5,121Q162.4329,121,163.3647,121.140239Z" fill-rule="evenodd" fill="#000000" fill-opacity="1"/></g><g style="mix-blend-mode:passthrough"><ellipse cx="383.5" cy="240.5" rx="38.5" ry="119.5" fill="#000000" fill-opacity="0.03999999910593033"/><path d="M368.0524,131.0411Q370.312,127.96886,372.6794,125.81686L374.0246,127.29681Q371.8049,129.31458,369.6635,132.226L368.0524,131.0411ZM361.1498,143.198Q362.668,139.8382,364.2837,136.9496L366.0292,137.9259Q364.4553,140.7398,362.9724,144.0216L361.1498,143.198ZM356.1823,156.2939Q357.2899,152.832,358.4847,149.662L360.3562,150.3674Q359.1793,153.4899,358.0872,156.9033L356.1823,156.2939ZM352.46338,169.7898Q353.29045,166.2924,354.19706,162.9903L356.1257,163.5199Q355.2285,166.7875,354.4097,170.2501L352.46338,169.7898ZM349.66234,183.49779999999998Q350.27554,179.9909,350.96274,176.6188L352.92246,177.0182Q352.24085,180.3629,351.63245,183.8423L349.66234,183.49779999999998ZM347.59733,197.35160000000002Q348.03741,193.8237,348.5485,190.3893L350.52672,190.6837Q350.0191,194.09480000000002,349.58195,197.5992L347.59733,197.35160000000002ZM346.16792,211.2895Q346.45404,207.7665,346.80859,204.3039L348.79819,204.5077Q348.44578,207.9493,348.16135,211.4514L346.16792,211.2895ZM345.313458,225.28199999999998Q345.459245,221.75799999999998,345.672244,218.2663L347.66853,218.3881Q347.45673,221.86,347.31175,225.365L345.313458,225.28199999999998ZM345.00204193,239.269Q345.0136502,235.77100000000002,345.091173,232.281L347.09068,232.325Q347.01358,235.797,347.00203,239.276L345.00204193,239.269ZM345.219139,253.232Q345.0982042,249.729,345.0439706,246.20999999999998L347.04373,246.179Q347.09767,249.679,347.21795,253.163L345.219139,253.232ZM345.97464,267.21799999999996Q345.717837,263.743,345.528228,260.227L347.52533,260.12Q347.71386,263.616,347.9692,267.071L345.97464,267.21799999999996ZM347.29881,281.174Q346.89654,277.725,346.56319,274.206L348.55428,274.017Q348.88559,277.515,349.28534,280.943L347.29881,281.174ZM349.24265,295.034Q348.68128,291.63599999999997,348.19094,288.134L350.17161,287.85699999999997Q350.65852,291.334,351.21589,294.70799999999997L349.24265,295.034ZM351.90557,308.789Q351.15319,305.435,350.47638,301.93L352.44011,301.551Q353.11125,305.026,353.85706,308.351L351.90557,308.789ZM355.4449,322.337Q354.45546,319.06899999999996,353.54768,315.58000000000004L355.4832,315.077Q356.3811,318.527,357.3591,321.75800000000004L355.4449,322.337ZM360.1531,335.52Q358.8414,332.416,357.6201,328.974L359.505,328.305Q360.7067,331.69100000000003,361.9955,334.74199999999996L360.1531,335.52ZM366.6284,347.91499999999996Q364.8184,345.175,363.1102,341.865L364.8875,340.948Q366.5463,344.163,368.297,346.812L366.6284,347.91499999999996ZM376.2764,357.878Q373.539,356.255,370.9056,353.425L372.3696,352.063Q374.8069,354.68100000000004,377.2964,356.15700000000004L376.2764,357.878ZM389.6201,358.481Q386.5796,360,383.5,360Q383.1902,360,382.8805,359.985L382.98040000000003,357.98699999999997Q383.2401,358,383.5,358Q386.1077,358,388.726,356.69100000000003L389.6201,358.481ZM399.6793,348.93600000000004Q397.5023,352.065,395.217,354.331L393.8087,352.911Q395.9645,350.773,398.0375,347.794L399.6793,348.93600000000004ZM406.3606,336.653Q404.8844,340.034,403.3112,342.96500000000003L401.5491,342.019Q403.0838,339.15999999999997,404.5277,335.853L406.3606,336.653ZM411.18899999999996,323.529Q410.11379999999997,326.98400000000004,408.9528,330.159L407.07439999999997,329.473Q408.2188,326.34299999999996,409.2794,322.935L411.18899999999996,323.529ZM414.819,310Q414.0145,313.493,413.1314,316.797L411.1992,316.281Q412.0734,313.01,412.87,309.551L414.819,310ZM417.55060000000003,296.267Q416.9537,299.778,416.283,303.159L414.3212,302.77Q414.9866,299.416,415.5789,295.932L417.55060000000003,296.267ZM419.5543,282.413Q419.1289,285.93899999999996,418.6327,289.374L416.6533,289.089Q417.1461,285.676,417.56870000000004,282.173L419.5543,282.413ZM420.931,268.464Q420.6579,271.98699999999997,420.3165,275.451L418.3261,275.255Q418.6655,271.81100000000004,418.937,268.31L420.931,268.464ZM421.7359,254.473Q421.6024,257.994,421.4018,261.483L419.4051,261.368Q419.60450000000003,257.899,419.7373,254.398L421.7359,254.473ZM422,240.5Q422,243.98399999999998,421.9346,247.462L419.935,247.425Q420,243.965,420,240.5L422,240.5ZM421.8215,229.006Q421.9308,232.51600000000002,421.9732,236.039L419.9733,236.063Q419.9311,232.559,419.8225,229.06900000000002L421.8215,229.006ZM421.1151,215.02679999999998Q421.3598,218.507,421.5372,222.026L419.5397,222.127Q419.3633,218.6275,419.12,215.1671L421.1151,215.02679999999998ZM419.8433,201.0655Q420.2323,204.5192,420.5525,208.0404L418.5607,208.2215Q418.2424,204.7215,417.8559,201.2893L419.8433,201.0655ZM417.95619999999997,187.187Q418.5039,190.59730000000002,418.9805,194.10899999999998L416.9987,194.3779Q416.5253,190.89,415.9815,187.5042L417.95619999999997,187.187ZM415.36469999999997,173.4322Q416.0996,176.79579999999999,416.7591,180.3066L414.7935,180.6759Q414.1394,177.1938,413.4108,173.8591L415.36469999999997,173.4322ZM411.9156,159.8703Q412.878,163.1378,413.7598,166.6173L411.8211,167.1086Q410.94870000000003,163.6663,409.9971,160.43529999999998L411.9156,159.8703ZM407.3278,146.6367Q408.6017,149.7524,409.78679999999997,153.18959999999998L407.896,153.8415Q406.7293,150.4574,405.4766,147.3936L407.3278,146.6367ZM401.0594,134.1528Q402.8116,136.9402,404.46320000000003,140.2679L402.6716,141.157Q401.0649,137.9194,399.3662,135.2172L401.0594,134.1528ZM391.7697,123.78931Q394.397,125.58281,396.9184,128.49295L395.4069,129.8026Q393.0553,127.08845,390.6421,125.44113L391.7697,123.78931ZM385.36469999999997,121.140239L385.067,123.11796Q384.2832,123,383.5,123Q381.384,123,379.2604,123.86185L378.5083,122.00867Q380.9936,121,383.5,121Q384.4329,121,385.36469999999997,121.140239Z" fill-rule="evenodd" fill="#000000" fill-opacity="1"/></g><g style="mix-blend-mode:passthrough" transform="matrix(0.9999478459358215,-0.012447524815797806,0.012447524815797806,0.9999478459358215,-2.2509064089845197,4.5902006532705855)"><ellipse cx="383.00304412841797" cy="197.37657928466797" rx="15.003044128417969" ry="15.003044128417969" fill="#82318E" fill-opacity="1"/></g><g style="mix-blend-mode:passthrough" transform="matrix(0.9999478459358215,-0.012447524815797806,0.012447524815797806,0.9999478459358215,-3.246708394248344,4.594372978404863)"><ellipse cx="383.00304412841797" cy="277.37657928466797" rx="15.003044128417969" ry="15.003044128417969" fill="#82318E" fill-opacity="1"/></g><g style="mix-blend-mode:passthrough"><path d="M163.53910000000002,65.25L156.0977,84L153.22660000000002,84L145.7852,65.25L148.39839999999998,65.25Q148.7969,65.25,149.043,65.4609Q149.30079999999998,65.6602,149.3945,65.9297L154.01170000000002,78.0117Q154.2344,78.6914,154.38670000000002,79.3477Q154.55079999999998,79.9922,154.7031,80.6367Q154.8438,79.9922,155.0078,79.3477Q155.1719,78.6914,155.4062,78.0117L160.082,65.9297Q160.1875,65.6367,160.4336,65.4492Q160.6914,65.25,161.0312,65.25L163.53910000000002,65.25ZM170.043,65.25L170.043,84L166.8438,84L166.8438,65.25L170.043,65.25ZM170.7344,59.2734Q170.7344,59.7305,170.5352,60.1289Q170.3477,60.5273,170.0312,60.8438Q169.72660000000002,61.1484,169.3047,61.3242Q168.8828,61.5,168.41410000000002,61.5Q167.9453,61.5,167.5352,61.3242Q167.13670000000002,61.1484,166.8203,60.8438Q166.5156,60.5273,166.3398,60.1289Q166.16410000000002,59.7305,166.16410000000002,59.2734Q166.16410000000002,58.80469,166.3398,58.39453Q166.5156,57.97266,166.8203,57.66797Q167.13670000000002,57.35156,167.5352,57.17578Q167.9453,57,168.41410000000002,57Q168.8828,57,169.3047,57.17578Q169.72660000000002,57.35156,170.0312,57.66797Q170.3477,57.97266,170.5352,58.39453Q170.7344,58.80469,170.7344,59.2734ZM185.547,75.75Q183.332,75.75,181.773,76.0195Q180.215,76.2891,179.23000000000002,76.7344Q178.25799999999998,77.168,177.812,77.7656Q177.36700000000002,78.3516,177.36700000000002,79.0898Q177.36700000000002,79.793,177.602,80.2969Q177.836,80.8008,178.24599999999998,81.1289Q178.656,81.457,179.195,81.6094Q179.74599999999998,81.75,180.37900000000002,81.75Q181.223,81.75,181.926,81.58590000000001Q182.62900000000002,81.4219,183.25,81.1172Q183.87099999999998,80.8008,184.434,80.3672Q185.00799999999998,79.9219,185.547,79.3711L185.547,75.75ZM175.199,67.9805Q176.711,66.6094,178.457,65.9297Q180.203,65.25,182.324,65.25Q183.848,65.25,185.031,65.7656Q186.227,66.2695,187.035,67.1836Q187.844,68.0859,188.25400000000002,69.375Q188.676,70.6641,188.676,72.2109L188.676,84L187.25799999999998,84Q186.789,84,186.531,83.83590000000001Q186.285,83.6602,186.14499999999998,83.1562L185.781,81.2461Q185.055,81.9023,184.375,82.418Q183.695,82.9219,182.934,83.27340000000001Q182.184,83.625,181.328,83.8125Q180.473,84,179.43,84Q178.363,84,177.426,83.707Q176.488,83.4023,175.797,82.8047Q175.10500000000002,82.207,174.695,81.3047Q174.297,80.3906,174.297,79.1367Q174.297,78.0586,174.88299999999998,77.0508Q175.48000000000002,76.043,176.816,75.2695Q178.152,74.4961,180.285,74.0039Q182.43,73.5,185.547,73.5L185.547,72.0117Q185.547,69.7852,184.62099999999998,68.6484Q183.707,67.5,181.949,67.5Q180.75400000000002,67.5,179.957,67.8164Q179.16,68.1211,178.574,68.5078Q177.988,68.8945,177.566,69.2109Q177.14499999999998,69.5156,176.723,69.5156Q176.406,69.5156,176.172,69.3516Q175.938,69.1875,175.773,68.9531L175.199,67.9805ZM224.969,57.75L224.969,84L220.105,84L220.105,72.75L207.883,72.75L207.883,84L203.02,84L203.02,57.75L207.883,57.75L207.883,69L220.105,69L220.105,57.75L224.969,57.75ZM246.848,65.25L236.781,89.03909999999999Q236.582,89.5078,236.266,89.7539Q235.961,90,235.305,90L232,90L235.457,82.5938L227.98,65.25L231.895,65.25Q232.41,65.25,232.703,65.5078Q233.008,65.7656,233.148,66.0938L237.074,75.8672Q237.273,76.3594,237.402,76.8633Q237.543,77.3555,237.672,77.8711Q237.824,77.3555,237.988,76.8516Q238.152,76.3477,238.352,75.8555L242.055,66.0938Q242.207,65.7305,242.535,65.4961Q242.863,65.25,243.285,65.25L246.848,65.25ZM253.27,78.7031Q254.02,79.5469,254.91,79.8984Q255.801,80.25,256.844,80.25Q257.852,80.25,258.65999999999997,79.8984Q259.48,79.5469,260.043,78.832Q260.605,78.1172,260.90999999999997,77.0391Q261.227,75.9492,261.227,74.4727Q261.227,72.9727,260.957,71.9414Q260.699,70.8984,260.207,70.2539Q259.727,69.5977,259.03499999999997,69.3047Q258.344,69,257.46500000000003,69Q256.07,69,255.098,69.5508Q254.137,70.0898,253.27,71.0742L253.27,78.7031ZM253.035,67.7695Q254.172,66.4922,255.602,65.8711Q257.043,65.25,258.988,65.25Q260.5,65.25,261.754,65.8711Q263.00800000000004,66.4922,263.90999999999997,67.6641Q264.824,68.8359,265.31600000000003,70.5703Q265.80899999999997,72.293,265.80899999999997,74.5195Q265.80899999999997,76.5586,265.246,78.293Q264.695,80.0156,263.652,81.293Q262.621,82.5703,261.156,83.2852Q259.69100000000003,84,257.875,84Q256.328,84,255.227,83.4727Q254.137,82.9453,253.27,82.0078L253.27,90L248.816,90L248.816,65.25L251.535,65.25Q252.402,65.25,252.672,66.0586L253.035,67.7695ZM280.973,72Q280.973,71.2266,280.727,70.5469Q280.48,69.8672,279.988,69.3633Q279.50800000000004,68.8477,278.75800000000004,68.5547Q278.02,68.25,277.023,68.25Q275.102,68.25,273.988,69.2344Q272.887,70.207,272.582,72L280.973,72ZM272.488,75Q272.594,76.3594,272.99199999999996,77.3438Q273.39099999999996,78.3281,274.03499999999997,78.9727Q274.69100000000003,79.6172,275.582,79.9336Q276.473,80.25,277.551,80.25Q278.629,80.25,279.414,80.0156Q280.199,79.7695,280.773,79.4766Q281.35900000000004,79.1719,281.805,78.9375Q282.25,78.6914,282.65999999999997,78.6914Q283.223,78.6914,283.49199999999996,79.1016L284.77,80.707Q284.031,81.6445,283.105,82.28909999999999Q282.19100000000003,82.9219,281.195,83.3086Q280.199,83.6836,279.156,83.8477Q278.125,84,277.152,84Q275.23,84,273.56600000000003,83.3789Q271.914,82.7461,270.68399999999997,81.5156Q269.46500000000003,80.2734,268.762,78.457Q268.05899999999997,76.6406,268.05899999999997,74.2383Q268.05899999999997,72.3867,268.668,70.7461Q269.289,69.0938,270.426,67.8867Q271.574,66.668,273.21500000000003,65.9648Q274.86699999999996,65.25,276.94100000000003,65.25Q278.688,65.25,280.164,65.7891Q281.64099999999996,66.3281,282.695,67.3711Q283.762,68.4023,284.35900000000004,69.9141Q284.969,71.4141,284.969,73.3477Q284.969,74.3203,284.746,74.6602Q284.53499999999997,75,283.926,75L272.488,75ZM292.762,68.4492Q293.629,66.7969,294.812,66.0234Q296.00800000000004,65.25,297.625,65.25Q298.902,65.25,299.676,65.4961L299.395,68.6133Q299.301,68.918,299.125,69.0469Q298.961,69.1758,298.668,69.1758Q298.398,69.1758,297.85900000000004,69.0938Q297.332,69,296.828,69Q296.09000000000003,69,295.51599999999996,69.2227Q294.94100000000003,69.4453,294.48400000000004,69.8789Q294.027,70.3008,293.676,70.8984Q293.324,71.4961,293.02,72.2695L293.02,84L288.56600000000003,84L288.56600000000003,65.25L291.18,65.25Q291.85900000000004,65.25,292.129,65.4961Q292.40999999999997,65.7422,292.49199999999996,66.3633L292.762,68.4492ZM313.973,72Q313.973,71.2266,313.727,70.5469Q313.48,69.8672,312.988,69.3633Q312.50800000000004,68.8477,311.75800000000004,68.5547Q311.02,68.25,310.023,68.25Q308.102,68.25,306.988,69.2344Q305.887,70.207,305.582,72L313.973,72ZM305.488,75Q305.594,76.3594,305.99199999999996,77.3438Q306.39099999999996,78.3281,307.03499999999997,78.9727Q307.69100000000003,79.6172,308.582,79.9336Q309.473,80.25,310.551,80.25Q311.629,80.25,312.414,80.0156Q313.199,79.7695,313.773,79.4766Q314.35900000000004,79.1719,314.805,78.9375Q315.25,78.6914,315.65999999999997,78.6914Q316.223,78.6914,316.49199999999996,79.1016L317.77,80.707Q317.031,81.6445,316.105,82.28909999999999Q315.19100000000003,82.9219,314.195,83.3086Q313.199,83.6836,312.156,83.8477Q311.125,84,310.152,84Q308.23,84,306.56600000000003,83.3789Q304.914,82.7461,303.68399999999997,81.5156Q302.46500000000003,80.2734,301.762,78.457Q301.05899999999997,76.6406,301.05899999999997,74.2383Q301.05899999999997,72.3867,301.668,70.7461Q302.289,69.0938,303.426,67.8867Q304.574,66.668,306.21500000000003,65.9648Q307.86699999999996,65.25,309.94100000000003,65.25Q311.688,65.25,313.164,65.7891Q314.64099999999996,66.3281,315.695,67.3711Q316.762,68.4023,317.35900000000004,69.9141Q317.969,71.4141,317.969,73.3477Q317.969,74.3203,317.746,74.6602Q317.53499999999997,75,316.926,75L305.488,75ZM333.168,70.5703Q332.406,69.7148,331.516,69.3633Q330.625,69,329.594,69Q328.586,69,327.777,69.3516Q326.969,69.7031,326.395,70.4062Q325.82,71.1094,325.51599999999996,72.1992Q325.211,73.2891,325.211,74.7773Q325.211,76.2773,325.469,77.3203Q325.727,78.3516,326.207,79.0078Q326.699,79.6641,327.402,79.957Q328.105,80.25,328.973,80.25Q330.355,80.25,331.328,79.7227Q332.301,79.1836,333.168,78.2109L333.168,70.5703ZM337.609,57L337.609,84L334.891,84Q334.012,84,333.777,83.07419999999999L333.402,81.0469Q332.277,82.3711,330.824,83.1914Q329.38300000000004,84,327.461,84Q325.949,84,324.68399999999997,83.3789Q323.43,82.7578,322.51599999999996,81.58590000000001Q321.602,80.4141,321.10900000000004,78.6797Q320.61699999999996,76.9453,320.61699999999996,74.7188Q320.61699999999996,72.6914,321.168,70.9688Q321.73,69.2344,322.773,67.957Q323.81600000000003,66.6797,325.27,65.9648Q326.73400000000004,65.25,328.551,65.25Q330.098,65.25,331.199,65.7891Q332.301,66.3281,333.168,67.2539L333.168,57L337.609,57ZM348.566,74.25Q349.398,74.25,350.008,74.0273Q350.617,73.8047,351.027,73.4062Q351.438,73.0078,351.637,72.457Q351.848,71.8945,351.848,71.2266Q351.848,69.8555,351.027,69.0586Q350.207,68.25,348.566,68.25Q346.938,68.25,346.117,69.0586Q345.297,69.8555,345.297,71.2266Q345.297,71.8711,345.496,72.4336Q345.707,72.9844,346.105,73.3945Q346.516,73.8047,347.137,74.0273Q347.758,74.25,348.566,74.25ZM353.594,85.125Q353.594,84.55080000000001,353.266,84.1875Q352.949,83.83590000000001,352.387,83.63669999999999Q351.824,83.4375,351.074,83.3438Q350.336,83.25,349.492,83.25Q348.66,83.25,347.77,83.25Q346.879,83.25,346.035,83.1445Q345.297,83.5547,344.84,84.1172Q344.383,84.6914,344.383,85.4414Q344.383,85.9336,344.617,86.3555Q344.863,86.78909999999999,345.391,87.0938Q345.93,87.39840000000001,346.773,87.57419999999999Q347.617,87.75,348.836,87.75Q350.078,87.75,350.98,87.55080000000001Q351.883,87.35159999999999,352.469,87Q353.055,86.64840000000001,353.324,86.168Q353.594,85.6875,353.594,85.125ZM358.023,66.1641L358.023,67.7812Q358.023,68.5547,357.062,68.7305L355.41,69.0234Q355.785,69.9961,355.785,71.1562Q355.785,72.5508,355.234,73.6875Q354.695,74.8125,353.723,75.5977Q352.75,76.3828,351.426,76.8164Q350.102,77.25,348.566,77.25Q348.027,77.25,347.523,77.1914Q347.02,77.1328,346.539,77.0391Q345.672,77.5547,345.672,78.2109Q345.672,78.7617,346.188,79.0312Q346.703,79.2891,347.547,79.3945Q348.391,79.5,349.469,79.5Q350.547,79.5,351.684,79.5938Q352.82,79.6875,353.898,79.9219Q354.977,80.1445,355.82,80.6484Q356.676,81.1406,357.18,81.9961Q357.695,82.8398,357.695,84.1875Q357.695,85.4414,357.086,86.61330000000001Q356.488,87.7852,355.34,88.69919999999999Q354.203,89.625,352.539,90.1875Q350.875,90.75,348.754,90.75Q346.668,90.75,345.109,90.3398Q343.562,89.9414,342.531,89.26169999999999Q341.512,88.582,341.008,87.6914Q340.504,86.8125,340.504,85.85159999999999Q340.504,84.55080000000001,341.289,83.6836Q342.074,82.8047,343.445,82.2773Q342.707,81.8906,342.273,81.2461Q341.84,80.5898,341.84,79.5352Q341.84,79.1016,341.992,78.6562Q342.145,78.1992,342.438,77.7539Q342.742,77.3086,343.188,76.9102Q343.645,76.5117,344.254,76.1953Q342.848,75.4336,342.039,74.1797Q341.242,72.9141,341.242,71.2266Q341.242,69.8555,341.793,68.7539Q342.344,67.6406,343.316,66.8672Q344.301,66.082,345.637,65.6719Q346.984,65.25,348.566,65.25Q349.762,65.25,350.805,65.4844Q351.848,65.7188,352.715,66.1641L358.023,66.1641ZM372.473,72Q372.473,71.2266,372.227,70.5469Q371.98,69.8672,371.488,69.3633Q371.008,68.8477,370.258,68.5547Q369.52,68.25,368.523,68.25Q366.602,68.25,365.488,69.2344Q364.387,70.207,364.082,72L372.473,72ZM363.988,75Q364.094,76.3594,364.492,77.3438Q364.891,78.3281,365.535,78.9727Q366.191,79.6172,367.082,79.9336Q367.973,80.25,369.051,80.25Q370.129,80.25,370.914,80.0156Q371.699,79.7695,372.273,79.4766Q372.859,79.1719,373.305,78.9375Q373.75,78.6914,374.16,78.6914Q374.723,78.6914,374.992,79.1016L376.27,80.707Q375.531,81.6445,374.605,82.28909999999999Q373.691,82.9219,372.695,83.3086Q371.699,83.6836,370.656,83.8477Q369.625,84,368.652,84Q366.73,84,365.066,83.3789Q363.414,82.7461,362.184,81.5156Q360.965,80.2734,360.262,78.457Q359.559,76.6406,359.559,74.2383Q359.559,72.3867,360.168,70.7461Q360.789,69.0938,361.926,67.8867Q363.074,66.668,364.715,65.9648Q366.367,65.25,368.441,65.25Q370.188,65.25,371.664,65.7891Q373.141,66.3281,374.195,67.3711Q375.262,68.4023,375.859,69.9141Q376.469,71.4141,376.469,73.3477Q376.469,74.3203,376.246,74.6602Q376.035,75,375.426,75L363.988,75ZM391.34,69.5625Q391.164,69.8672,390.965,69.9844Q390.766,70.1016,390.461,70.1016Q390.133,70.1016,389.758,69.9375Q389.395,69.7617,388.902,69.5508Q388.422,69.3398,387.801,69.1758Q387.18,69,386.336,69Q385.023,69,384.273,69.5273Q383.523,70.0547,383.523,70.9102Q383.523,71.4727,383.91,71.8594Q384.297,72.2461,384.93,72.5391Q385.574,72.832,386.383,73.0664Q387.203,73.2891,388.035,73.5703Q388.867,73.8398,389.676,74.1914Q390.496,74.5312,391.129,75.0703Q391.773,75.6094,392.16,76.3594Q392.547,77.1094,392.547,78.1758Q392.547,79.4414,392.066,80.5078Q391.586,81.57419999999999,390.648,82.3594Q389.723,83.1328,388.34,83.5664Q386.969,84,385.164,84Q384.215,84,383.301,83.83590000000001Q382.398,83.6719,381.555,83.3906Q380.723,83.0977,380.008,82.69919999999999Q379.293,82.30080000000001,378.754,81.8438L379.785,80.2031Q379.984,79.9102,380.254,79.7578Q380.523,79.5938,380.934,79.5938Q381.344,79.5938,381.707,79.8164Q382.082,80.0391,382.562,80.2969Q383.055,80.5547,383.711,80.7773Q384.367,81,385.387,81Q386.172,81,386.734,80.8125Q387.309,80.625,387.672,80.3203Q388.047,80.0156,388.211,79.6172Q388.387,79.2188,388.387,78.7969Q388.387,78.1523,388,77.7422Q387.613,77.332,386.969,77.0391Q386.336,76.7344,385.516,76.5Q384.695,76.2539,383.84,75.9727Q382.984,75.6797,382.164,75.3047Q381.344,74.918,380.699,74.332Q380.066,73.7344,379.68,72.8906Q379.293,72.0352,379.293,70.8164Q379.293,69.7031,379.738,68.6953Q380.195,67.6758,381.062,66.9141Q381.941,66.1523,383.242,65.707Q384.555,65.25,386.266,65.25Q388.176,65.25,389.734,65.9883Q391.305,66.7266,392.348,67.9219L391.34,69.5625Z" fill="#3D3D3D" fill-opacity="1"/></g><g style="mix-blend-mode:passthrough"><path d="M106.63281,411L109.20312,411L114.7969,393.5L112.5391,393.5L109.71094,402.9766C109.10938,405.0234,108.67969,406.6953,108.00781,408.75L107.90625,408.75C107.25781,406.6953,106.80469,405.0234,106.20312,402.9766L103.35156,393.5L101.0234375,393.5L106.63281,411ZM122.4844,411.5C124.2344,411.5,125.6328,410.9297,126.7578,410.1875L125.9922,408.6797C125.0078,409.3516,124,409.75,122.7266,409.75C120.25,409.75,118.5469,407.9062,118.4062,405L127.1875,405C127.2344,404.6641,127.2891,404.2344,127.2891,403.7578C127.2891,399.9219,125.4141,397.5,122.0781,397.5C119.1016,397.5,116.2422,400.1484,116.2422,404.5C116.2422,408.9531,119.0078,411.5,122.4844,411.5ZM118.3828,403.4453C118.6406,400.7656,120.2734,399.2578,122.125,399.2578C124.1641,399.2578,125.3672,400.7188,125.3672,403.4453L118.3828,403.4453ZM130.7031,411L132.9141,411L132.9141,402.5312C133.7734,400.2969,135.0938,399.4688,136.1797,399.4688C136.7266,399.4688,137.0156,399.5469,137.4453,399.6875L137.8594,398C137.4453,397.5781,137.0391,397.5,136.4609,397.5C135.0234,397.5,133.6797,398.5625,132.7656,400.2266L132.7188,400.2266L132.5078,398L130.7031,398L130.7031,411ZM144.2812,411.5C145.1016,411.5,145.9609,411.2656,146.7109,411.0234L146.2734,409.3594C145.8438,409.5547,145.2656,409.7266,144.7891,409.7266C143.2734,409.7266,142.7734,408.8047,142.7734,407.1953L142.7734,399.7812L146.3281,399.7812L146.3281,398L142.7734,398L142.7734,394.3281L140.9453,394.3281L140.7109,398L138.6406,398.125L138.6406,399.7812L140.5859,399.7812L140.5859,407.1172C140.5859,409.7734,141.5234,411.5,144.2812,411.5ZM154.4844,411.5C156.2344,411.5,157.6328,410.9297,158.7578,410.1875L157.9922,408.6797C157.0078,409.3516,156,409.75,154.7266,409.75C152.25,409.75,150.5469,407.9062,150.4062,405L159.1875,405C159.2344,404.6641,159.2891,404.2344,159.2891,403.7578C159.2891,399.9219,157.4141,397.5,154.0781,397.5C151.1016,397.5,148.2422,400.1484,148.2422,404.5C148.2422,408.9531,151.0078,411.5,154.4844,411.5ZM150.3828,403.4453C150.6406,400.7656,152.2734,399.2578,154.125,399.2578C156.1641,399.2578,157.3672,400.7188,157.3672,403.4453L150.3828,403.4453ZM160.8594,411L163.1641,411L164.9141,407.9609C165.3672,407.1719,165.77339999999998,406.3828,166.2344,405.6406L166.35160000000002,405.6406C166.8594,406.3828,167.33589999999998,407.1719,167.7656,407.9609L169.6875,411L172.08589999999998,411L167.78910000000002,404.4453L171.75,398L169.47660000000002,398L167.8672,400.8516C167.4531,401.5938,167.0938,402.2891,166.71089999999998,403.0312L166.5938,403.0312C166.16410000000002,402.2891,165.7031,401.5938,165.3203,400.8516L163.5703,398L161.1953,398L165.1562,404.2266L160.8594,411ZM185.28910000000002,411.5C188.9688,411.5,191.2656,409.2891,191.2656,406.4531C191.2656,403.7812,189.6875,402.5625,187.64839999999998,401.6562L185.14839999999998,400.5547C183.7812,399.9688,182.2188,399.3047,182.2188,397.5391C182.2188,395.9531,183.5156,394.9453,185.5078,394.9453C187.1406,394.9453,188.4375,395.5859,189.5156,396.6094L190.6719,395.1719C189.4453,393.8906,187.5938,393,185.5078,393C182.3203,393,179.96089999999998,394.9453,179.96089999999998,397.7109C179.96089999999998,400.3359,181.9062,401.6016,183.53910000000002,402.3125L186.0625,403.4375C187.7422,404.2031,189.0156,404.7891,189.0156,406.6484C189.0156,408.3828,187.64839999999998,409.5625,185.3203,409.5625C183.4922,409.5625,181.7188,408.6797,180.4688,407.3359L179.14839999999998,408.8984C180.66410000000002,410.4922,182.7969,411.5,185.28910000000002,411.5ZM199.9844,411.5C201.73399999999998,411.5,203.13299999999998,410.9297,204.25799999999998,410.1875L203.49200000000002,408.6797C202.50799999999998,409.3516,201.5,409.75,200.22660000000002,409.75C197.75,409.75,196.0469,407.9062,195.9062,405L204.688,405C204.73399999999998,404.6641,204.789,404.2344,204.789,403.7578C204.789,399.9219,202.914,397.5,199.5781,397.5C196.60160000000002,397.5,193.7422,400.1484,193.7422,404.5C193.7422,408.9531,196.5078,411.5,199.9844,411.5ZM195.8828,403.4453C196.1406,400.7656,197.77339999999998,399.2578,199.625,399.2578C201.664,399.2578,202.86700000000002,400.7188,202.86700000000002,403.4453L195.8828,403.4453ZM212.281,411.5C213.102,411.5,213.961,411.2656,214.711,411.0234L214.273,409.3594C213.844,409.5547,213.26600000000002,409.7266,212.789,409.7266C211.273,409.7266,210.773,408.8047,210.773,407.1953L210.773,399.7812L214.328,399.7812L214.328,398L210.773,398L210.773,394.3281L208.945,394.3281L208.711,398L206.64100000000002,398.125L206.64100000000002,399.7812L208.586,399.7812L208.586,407.1172C208.586,409.7734,209.523,411.5,212.281,411.5Z" fill="#3D3D3D" fill-opacity="1"/></g><g style="mix-blend-mode:passthrough"><path d="M328.63281,411L331.20312,411L336.7969,393.5L334.5391,393.5L331.71094,402.9766C331.10938,405.0234,330.67969,406.6953,330.00781,408.75L329.90625,408.75C329.25781,406.6953,328.80469,405.0234,328.20312,402.9766L325.35156,393.5L323.0234375,393.5L328.63281,411ZM344.4844,411.5C346.2344,411.5,347.6328,410.9297,348.7578,410.1875L347.9922,408.6797C347.0078,409.3516,346,409.75,344.7266,409.75C342.25,409.75,340.5469,407.9062,340.4062,405L349.1875,405C349.2344,404.6641,349.2891,404.2344,349.2891,403.7578C349.2891,399.9219,347.4141,397.5,344.0781,397.5C341.1016,397.5,338.2422,400.1484,338.2422,404.5C338.2422,408.9531,341.0078,411.5,344.4844,411.5ZM340.3828,403.4453C340.6406,400.7656,342.2734,399.2578,344.125,399.2578C346.1641,399.2578,347.3672,400.7188,347.3672,403.4453L340.3828,403.4453ZM352.7031,411L354.9141,411L354.9141,402.5312C355.7734,400.2969,357.0938,399.4688,358.1797,399.4688C358.7266,399.4688,359.0156,399.5469,359.4453,399.6875L359.8594,398C359.4453,397.5781,359.0391,397.5,358.4609,397.5C357.0234,397.5,355.6797,398.5625,354.7656,400.2266L354.7188,400.2266L354.5078,398L352.7031,398L352.7031,411ZM366.2812,411.5C367.1016,411.5,367.9609,411.2656,368.7109,411.0234L368.2734,409.3594C367.8438,409.5547,367.2656,409.7266,366.7891,409.7266C365.2734,409.7266,364.7734,408.8047,364.7734,407.1953L364.7734,399.7812L368.3281,399.7812L368.3281,398L364.7734,398L364.7734,394.3281L362.9453,394.3281L362.7109,398L360.6406,398.125L360.6406,399.7812L362.5859,399.7812L362.5859,407.1172C362.5859,409.7734,363.5234,411.5,366.2812,411.5ZM376.4844,411.5C378.2344,411.5,379.6328,410.9297,380.7578,410.1875L379.9922,408.6797C379.0078,409.3516,378,409.75,376.7266,409.75C374.25,409.75,372.5469,407.9062,372.4062,405L381.1875,405C381.2344,404.6641,381.2891,404.2344,381.2891,403.7578C381.2891,399.9219,379.4141,397.5,376.0781,397.5C373.1016,397.5,370.2422,400.1484,370.2422,404.5C370.2422,408.9531,373.0078,411.5,376.4844,411.5ZM372.3828,403.4453C372.6406,400.7656,374.2734,399.2578,376.125,399.2578C378.1641,399.2578,379.3672,400.7188,379.3672,403.4453L372.3828,403.4453ZM382.8594,411L385.1641,411L386.9141,407.9609C387.3672,407.1719,387.7734,406.3828,388.2344,405.6406L388.3516,405.6406C388.8594,406.3828,389.3359,407.1719,389.7656,407.9609L391.6875,411L394.0859,411L389.7891,404.4453L393.75,398L391.4766,398L389.8672,400.8516C389.4531,401.5938,389.0938,402.2891,388.7109,403.0312L388.5938,403.0312C388.1641,402.2891,387.7031,401.5938,387.3203,400.8516L385.5703,398L383.1953,398L387.1562,404.2266L382.8594,411ZM407.2891,411.5C410.9688,411.5,413.2656,409.2891,413.2656,406.4531C413.2656,403.7812,411.6875,402.5625,409.6484,401.6562L407.1484,400.5547C405.7812,399.9688,404.2188,399.3047,404.2188,397.5391C404.2188,395.9531,405.5156,394.9453,407.5078,394.9453C409.1406,394.9453,410.4375,395.5859,411.5156,396.6094L412.6719,395.1719C411.4453,393.8906,409.5938,393,407.5078,393C404.3203,393,401.9609,394.9453,401.9609,397.7109C401.9609,400.3359,403.9062,401.6016,405.5391,402.3125L408.0625,403.4375C409.7422,404.2031,411.0156,404.7891,411.0156,406.6484C411.0156,408.3828,409.6484,409.5625,407.3203,409.5625C405.4922,409.5625,403.7188,408.6797,402.4688,407.3359L401.1484,408.8984C402.6641,410.4922,404.7969,411.5,407.2891,411.5ZM421.9844,411.5C423.734,411.5,425.133,410.9297,426.258,410.1875L425.492,408.6797C424.508,409.3516,423.5,409.75,422.2266,409.75C419.75,409.75,418.0469,407.9062,417.9062,405L426.688,405C426.734,404.6641,426.789,404.2344,426.789,403.7578C426.789,399.9219,424.914,397.5,421.5781,397.5C418.6016,397.5,415.7422,400.1484,415.7422,404.5C415.7422,408.9531,418.5078,411.5,421.9844,411.5ZM417.8828,403.4453C418.1406,400.7656,419.7734,399.2578,421.625,399.2578C423.664,399.2578,424.867,400.7188,424.867,403.4453L417.8828,403.4453ZM434.281,411.5C435.102,411.5,435.961,411.2656,436.711,411.0234L436.273,409.3594C435.844,409.5547,435.266,409.7266,434.789,409.7266C433.273,409.7266,432.773,408.8047,432.773,407.1953L432.773,399.7812L436.328,399.7812L436.328,398L432.773,398L432.773,394.3281L430.945,394.3281L430.711,398L428.641,398.125L428.641,399.7812L430.586,399.7812L430.586,407.1172C430.586,409.7734,431.523,411.5,434.281,411.5Z" fill="#3D3D3D" fill-opacity="1"/></g><g style="mix-blend-mode:passthrough"><path d="M51.7539,14.75L51.7539,41L48.6953,41L48.6953,22.0039Q48.6953,21.6172,48.7188,21.1953Q48.7539,20.761699999999998,48.7891,20.3047L39.9297,36.4297Q39.5195,37.25,38.6758,37.25L38.1719,37.25Q37.3164,37.25,36.9062,36.4297L27.8711,20.011699999999998Q27.9766,20.9727,27.9766,21.793L27.9766,41L24.918,41L24.918,14.75L27.4961,14.75Q27.9648,14.75,28.2109,14.84375Q28.4688,14.9375,28.7031,15.35938L37.6094,31.543Q37.8203,31.9766,38.0312,32.457Q38.2422,32.9375,38.418,33.4297Q38.5938,32.9375,38.793,32.457Q38.9922,31.9648,39.2266,31.5195L47.9805,15.35938Q48.1914,14.9375,48.4492,14.84375Q48.7188,14.75,49.1875,14.75L51.7539,14.75ZM70.1172,29.75Q70.1172,28.5898,69.8008,27.6289Q69.4844,26.668,68.875,25.9648Q68.2773,25.2617,67.4102,24.8867Q66.5547,24.5,65.4531,24.5Q63.1562,24.5,61.8086,25.8945Q60.4727,27.2891,60.1445,29.75L70.1172,29.75ZM72.707,38.375Q72.1094,39.0547,71.2773,39.5469Q70.457,40.0391,69.5078,40.3672Q68.5703,40.6836,67.5625,40.8477Q66.5547,41,65.5586,41Q63.6719,41,62.0781,40.3672Q60.4844,39.7227,59.3242,38.4922Q58.1641,37.261700000000005,57.5078,35.4453Q56.8633,33.6289,56.8633,31.2734Q56.8633,29.3633,57.4492,27.7109Q58.0352,26.0586,59.1367,24.8516Q60.2383,23.6328,61.8203,22.9414Q63.4023,22.25,65.3828,22.25Q67.02340000000001,22.25,68.418,22.8242Q69.8125,23.3867,70.8203,24.4648Q71.8398,25.5312,72.4141,27.1133Q73,28.6836,73,30.6992Q73,31.4727,72.8359,31.7422Q72.6719,32,72.2266,32L60.0391,32Q60.0859,33.710899999999995,60.5078,34.976600000000005Q60.9414,36.2305,61.6914,37.074200000000005Q62.4531,37.918,63.4961,38.3398Q64.53909999999999,38.75,65.8281,38.75Q67.0352,38.75,67.9023,38.4805Q68.7812,38.1992,69.4141,37.8828Q70.0469,37.5547,70.4688,37.2852Q70.8906,37.0039,71.1953,37.0039Q71.5938,37.0039,71.8047,37.2852L72.707,38.375ZM87.2852,25.4023Q87.0625,25.7891,86.6172,25.7891Q86.3477,25.7891,86.0078,25.5898Q85.668,25.3906,85.1641,25.1562Q84.6719,24.9102,83.9805,24.7109Q83.3008,24.5,82.3633,24.5Q81.5547,24.5,80.9102,24.7109Q80.2656,24.9219,79.7969,25.2852Q79.3398,25.6367,79.0938,26.1172Q78.8594,26.5977,78.8594,27.1602Q78.8594,27.8633,79.2578,28.332Q79.668,28.8008,80.3359,29.1523Q81.0039,29.4922,81.8477,29.7617Q82.6914,30.0195,83.582,30.3242Q84.4727,30.6172,85.3164,30.9805Q86.1719,31.3438,86.8281,31.8828Q87.4961,32.4219,87.8945,33.2188Q88.3047,34.0039,88.3047,35.1055Q88.3047,36.3711,87.8594,37.449200000000005Q87.4141,38.5156,86.5234,39.3125Q85.6445,40.0977,84.3672,40.5547Q83.0898,41,81.4141,41Q79.5039,41,77.957,40.4023Q76.4102,39.793,75.332,38.8438L76.082,37.613299999999995Q76.2344,37.3789,76.4336,37.25Q76.6328,37.1211,76.9375,37.1211Q77.2539,37.1211,77.6172,37.3789Q77.9805,37.625,78.4844,37.9414Q79,38.2461,79.7383,38.5039Q80.4766,38.75,81.5781,38.75Q82.5156,38.75,83.2188,38.5156Q83.9219,38.2695,84.3789,37.8594Q84.8477,37.4375,85.0703,36.898399999999995Q85.3047,36.3594,85.3047,35.75Q85.3047,34.988299999999995,84.8945,34.4961Q84.4961,34.0039,83.8281,33.6523Q83.1602,33.300799999999995,82.3047,33.043Q81.4492,32.773399999999995,80.5586,32.4922Q79.668,32.199200000000005,78.8125,31.8359Q77.957,31.4609,77.2891,30.9102Q76.6328,30.3477,76.2227,29.5273Q75.8125,28.707,75.8125,27.5352Q75.8125,26.4922,76.2461,25.5312Q76.6797,24.5703,77.5,23.8438Q78.332,23.1172,79.5391,22.6836Q80.7461,22.25,82.293,22.25Q84.0977,22.25,85.5273,22.7891Q86.957,23.3164,88,24.2539L87.2852,25.4023ZM103.0352,25.4023Q102.8125,25.7891,102.3672,25.7891Q102.0977,25.7891,101.7578,25.5898Q101.418,25.3906,100.9141,25.1562Q100.4219,24.9102,99.7305,24.7109Q99.0508,24.5,98.1133,24.5Q97.3047,24.5,96.6602,24.7109Q96.0156,24.9219,95.5469,25.2852Q95.0898,25.6367,94.8438,26.1172Q94.6094,26.5977,94.6094,27.1602Q94.6094,27.8633,95.0078,28.332Q95.418,28.8008,96.0859,29.1523Q96.7539,29.4922,97.5977,29.7617Q98.4414,30.0195,99.332,30.3242Q100.2227,30.6172,101.0664,30.9805Q101.9219,31.3438,102.5781,31.8828Q103.2461,32.4219,103.6445,33.2188Q104.055,34.0039,104.055,35.1055Q104.055,36.3711,103.6094,37.449200000000005Q103.1641,38.5156,102.2734,39.3125Q101.3945,40.0977,100.1172,40.5547Q98.8398,41,97.1641,41Q95.2539,41,93.707,40.4023Q92.1602,39.793,91.082,38.8438L91.832,37.613299999999995Q91.9844,37.3789,92.1836,37.25Q92.3828,37.1211,92.6875,37.1211Q93.0039,37.1211,93.3672,37.3789Q93.7305,37.625,94.2344,37.9414Q94.75,38.2461,95.4883,38.5039Q96.2266,38.75,97.3281,38.75Q98.2656,38.75,98.9688,38.5156Q99.6719,38.2695,100.1289,37.8594Q100.5977,37.4375,100.8203,36.898399999999995Q101.0547,36.3594,101.0547,35.75Q101.0547,34.988299999999995,100.6445,34.4961Q100.2461,34.0039,99.5781,33.6523Q98.9102,33.300799999999995,98.0547,33.043Q97.1992,32.773399999999995,96.3086,32.4922Q95.418,32.199200000000005,94.5625,31.8359Q93.707,31.4609,93.0391,30.9102Q92.3828,30.3477,91.9727,29.5273Q91.5625,28.707,91.5625,27.5352Q91.5625,26.4922,91.9961,25.5312Q92.4297,24.5703,93.25,23.8438Q94.082,23.1172,95.2891,22.6836Q96.4961,22.25,98.043,22.25Q99.8477,22.25,101.2773,22.7891Q102.707,23.3164,103.75,24.2539L103.0352,25.4023ZM118.047,32.75Q115.832,32.75,114.273,33.0195Q112.715,33.289100000000005,111.73,33.7344Q110.758,34.168,110.312,34.7656Q109.867,35.351600000000005,109.867,36.0898Q109.867,36.793,110.102,37.2969Q110.336,37.800799999999995,110.746,38.1289Q111.156,38.457,111.695,38.6094Q112.246,38.75,112.879,38.75Q113.723,38.75,114.426,38.5859Q115.129,38.4219,115.75,38.1172Q116.371,37.800799999999995,116.934,37.3672Q117.508,36.9219,118.047,36.3711L118.047,32.75ZM107.699,24.9805Q109.211,23.6094,110.957,22.9297Q112.703,22.25,114.824,22.25Q116.348,22.25,117.531,22.7656Q118.727,23.2695,119.535,24.1836Q120.344,25.0859,120.754,26.375Q121.176,27.6641,121.176,29.2109L121.176,41L119.758,41Q119.289,41,119.031,40.8359Q118.785,40.6602,118.645,40.1562L118.281,38.2461Q117.555,38.9023,116.875,39.418Q116.195,39.9219,115.434,40.2734Q114.684,40.625,113.828,40.8125Q112.973,41,111.93,41Q110.863,41,109.926,40.707Q108.988,40.4023,108.297,39.8047Q107.605,39.207,107.195,38.3047Q106.797,37.3906,106.797,36.136700000000005Q106.797,35.0586,107.383,34.050799999999995Q107.98,33.043,109.316,32.2695Q110.652,31.4961,112.785,31.0039Q114.93,30.5,118.047,30.5L118.047,29.0117Q118.047,26.7852,117.121,25.6484Q116.207,24.5,114.449,24.5Q113.254,24.5,112.457,24.8164Q111.66,25.1211,111.074,25.5078Q110.488,25.8945,110.066,26.2109Q109.645,26.5156,109.223,26.5156Q108.906,26.5156,108.672,26.3516Q108.438,26.1875,108.273,25.9531L107.699,24.9805ZM132.52,31.25Q133.492,31.25,134.23,31.0039Q134.969,30.7578,135.473,30.3125Q135.977,29.8555,136.223,29.2344Q136.48,28.6133,136.48,27.8633Q136.48,26.3281,135.461,25.4141Q134.441,24.5,132.52,24.5Q130.574,24.5,129.555,25.4141Q128.535,26.3281,128.535,27.8633Q128.535,28.6133,128.793,29.2344Q129.062,29.8555,129.566,30.3125Q130.07,30.7578,130.809,31.0039Q131.547,31.25,132.52,31.25ZM138.297,41.1523Q138.297,40.4141,137.91,39.957Q137.535,39.4883,136.891,39.2305Q136.258,38.9727,135.414,38.8672Q134.57,38.75,133.621,38.75Q132.684,38.75,131.711,38.75Q130.738,38.75,129.836,38.6211Q128.828,39.1133,128.184,39.875Q127.551,40.6367,127.551,41.6562Q127.551,42.3125,127.867,42.875Q128.184,43.4375,128.828,43.8477Q129.473,44.2695,130.457,44.5039Q131.441,44.75,132.766,44.75Q134.066,44.75,135.086,44.4922Q136.117,44.2344,136.82,43.7539Q137.535,43.2734,137.91,42.6055Q138.297,41.9492,138.297,41.1523ZM141.555,23.2461L141.555,24.3945Q141.555,24.957,140.793,25.1211L138.73,25.3789Q139.34,26.5156,139.34,27.8867Q139.34,29.1523,138.824,30.1953Q138.309,31.2383,137.406,31.9766Q136.516,32.7148,135.25,33.113299999999995Q133.996,33.5,132.52,33.5Q131.24200000000002,33.5,130.10500000000002,33.1836Q129.531,33.5586,129.227,33.9805Q128.922,34.4023,128.922,34.835899999999995Q128.922,35.5039,129.449,35.8555Q129.977,36.1953,130.844,36.3477Q131.711,36.5,132.812,36.5Q133.926,36.5,135.086,36.5Q136.246,36.5,137.348,36.710899999999995Q138.461,36.9102,139.316,37.3672Q140.184,37.824200000000005,140.711,38.6445Q141.25,39.4531,141.25,40.7422Q141.25,41.9492,140.664,43.0742Q140.078,44.1992,138.977,45.0664Q137.887,45.9453,136.293,46.4727Q134.699,47,132.695,47Q130.703,47,129.203,46.5898Q127.715,46.1797,126.719,45.4883Q125.734,44.7969,125.23,43.8828Q124.738,42.9805,124.738,41.9961Q124.738,40.5898,125.582,39.6172Q126.438,38.6445,127.914,38.0703Q127.094,37.7188,126.613,37.1328Q126.145,36.5352,126.145,35.539100000000005Q126.145,35.1406,126.285,34.7305Q126.438,34.3203,126.73,33.9102Q127.023,33.488299999999995,127.457,33.125Q127.891,32.75,128.465,32.4688Q127.117,31.7539,126.355,30.5703Q125.605,29.3867,125.605,27.8164Q125.605,26.5508,126.121,25.5195Q126.637,24.4883,127.551,23.7617Q128.465,23.0352,129.73000000000002,22.6484Q131.00799999999998,22.25,132.52,22.25Q133.703,22.25,134.723,22.5078Q135.754,22.7539,136.598,23.2461L141.555,23.2461ZM157.117,29.75Q157.117,28.5898,156.801,27.6289Q156.484,26.668,155.875,25.9648Q155.277,25.2617,154.41,24.8867Q153.555,24.5,152.453,24.5Q150.156,24.5,148.809,25.8945Q147.473,27.2891,147.145,29.75L157.117,29.75ZM159.707,38.375Q159.109,39.0547,158.277,39.5469Q157.457,40.0391,156.508,40.3672Q155.57,40.6836,154.562,40.8477Q153.555,41,152.559,41Q150.672,41,149.078,40.3672Q147.484,39.7227,146.324,38.4922Q145.164,37.261700000000005,144.508,35.4453Q143.863,33.6289,143.863,31.2734Q143.863,29.3633,144.449,27.7109Q145.035,26.0586,146.137,24.8516Q147.238,23.6328,148.82,22.9414Q150.402,22.25,152.383,22.25Q154.023,22.25,155.418,22.8242Q156.812,23.3867,157.82,24.4648Q158.84,25.5312,159.414,27.1133Q160,28.6836,160,30.6992Q160,31.4727,159.836,31.7422Q159.672,32,159.227,32L147.039,32Q147.086,33.710899999999995,147.508,34.976600000000005Q147.941,36.2305,148.691,37.074200000000005Q149.453,37.918,150.496,38.3398Q151.539,38.75,152.828,38.75Q154.035,38.75,154.902,38.4805Q155.781,38.1992,156.414,37.8828Q157.047,37.5547,157.469,37.2852Q157.891,37.0039,158.195,37.0039Q158.594,37.0039,158.805,37.2852L159.707,38.375ZM181.035,28.25Q182.523,28.25,183.66,27.8281Q184.809,27.4062,185.594,26.6562Q186.379,25.9062,186.777,24.8633Q187.176,23.8086,187.176,22.543Q187.176,19.9414,185.652,18.476599999999998Q184.129,17,181.035,17L176.898,17L176.898,28.25L181.035,28.25ZM181.035,14.75Q183.484,14.75,185.289,15.33594Q187.094,15.91016,188.277,16.976599999999998Q189.473,18.043,190.059,19.5547Q190.645,21.0547,190.645,22.918Q190.645,24.7578,190.012,26.2812Q189.391,27.8047,188.172,28.918Q186.953,30.0195,185.16,30.6406Q183.367,31.25,181.035,31.25L176.898,31.25L176.898,41L173.418,41L173.418,14.75L181.035,14.75ZM204.297,32.75Q202.082,32.75,200.523,33.0195Q198.965,33.289100000000005,197.98,33.7344Q197.008,34.168,196.562,34.7656Q196.117,35.351600000000005,196.117,36.0898Q196.117,36.793,196.352,37.2969Q196.586,37.800799999999995,196.996,38.1289Q197.406,38.457,197.945,38.6094Q198.496,38.75,199.129,38.75Q199.973,38.75,200.676,38.5859Q201.379,38.4219,202,38.1172Q202.621,37.800799999999995,203.184,37.3672Q203.758,36.9219,204.297,36.3711L204.297,32.75ZM193.949,24.9805Q195.461,23.6094,197.207,22.9297Q198.953,22.25,201.074,22.25Q202.598,22.25,203.781,22.7656Q204.977,23.2695,205.785,24.1836Q206.594,25.0859,207.004,26.375Q207.426,27.6641,207.426,29.2109L207.426,41L206.008,41Q205.539,41,205.281,40.8359Q205.035,40.6602,204.895,40.1562L204.531,38.2461Q203.805,38.9023,203.125,39.418Q202.445,39.9219,201.684,40.2734Q200.934,40.625,200.078,40.8125Q199.223,41,198.18,41Q197.113,41,196.176,40.707Q195.238,40.4023,194.547,39.8047Q193.855,39.207,193.445,38.3047Q193.047,37.3906,193.047,36.136700000000005Q193.047,35.0586,193.633,34.050799999999995Q194.23,33.043,195.566,32.2695Q196.902,31.4961,199.035,31.0039Q201.18,30.5,204.297,30.5L204.297,29.0117Q204.297,26.7852,203.371,25.6484Q202.457,24.5,200.699,24.5Q199.504,24.5,198.707,24.8164Q197.91,25.1211,197.324,25.5078Q196.738,25.8945,196.316,26.2109Q195.895,26.5156,195.473,26.5156Q195.156,26.5156,194.922,26.3516Q194.688,26.1875,194.523,25.9531L193.949,24.9805ZM223.035,25.4023Q222.812,25.7891,222.367,25.7891Q222.098,25.7891,221.758,25.5898Q221.418,25.3906,220.914,25.1562Q220.422,24.9102,219.73,24.7109Q219.051,24.5,218.113,24.5Q217.305,24.5,216.66,24.7109Q216.016,24.9219,215.547,25.2852Q215.09,25.6367,214.844,26.1172Q214.609,26.5977,214.609,27.1602Q214.609,27.8633,215.008,28.332Q215.418,28.8008,216.086,29.1523Q216.754,29.4922,217.598,29.7617Q218.441,30.0195,219.332,30.3242Q220.223,30.6172,221.066,30.9805Q221.922,31.3438,222.578,31.8828Q223.246,32.4219,223.645,33.2188Q224.055,34.0039,224.055,35.1055Q224.055,36.3711,223.609,37.449200000000005Q223.164,38.5156,222.273,39.3125Q221.395,40.0977,220.117,40.5547Q218.84,41,217.164,41Q215.254,41,213.707,40.4023Q212.16,39.793,211.082,38.8438L211.832,37.613299999999995Q211.984,37.3789,212.184,37.25Q212.383,37.1211,212.688,37.1211Q213.004,37.1211,213.367,37.3789Q213.73,37.625,214.234,37.9414Q214.75,38.2461,215.488,38.5039Q216.227,38.75,217.328,38.75Q218.266,38.75,218.969,38.5156Q219.672,38.2695,220.129,37.8594Q220.598,37.4375,220.82,36.898399999999995Q221.055,36.3594,221.055,35.75Q221.055,34.988299999999995,220.645,34.4961Q220.246,34.0039,219.578,33.6523Q218.91,33.300799999999995,218.055,33.043Q217.199,32.773399999999995,216.309,32.4922Q215.418,32.199200000000005,214.562,31.8359Q213.707,31.4609,213.039,30.9102Q212.383,30.3477,211.973,29.5273Q211.562,28.707,211.562,27.5352Q211.562,26.4922,211.996,25.5312Q212.43,24.5703,213.25,23.8438Q214.082,23.1172,215.289,22.6836Q216.496,22.25,218.043,22.25Q219.848,22.25,221.277,22.7891Q222.707,23.3164,223.75,24.2539L223.035,25.4023ZM238.785,25.4023Q238.562,25.7891,238.117,25.7891Q237.848,25.7891,237.508,25.5898Q237.168,25.3906,236.664,25.1562Q236.172,24.9102,235.48,24.7109Q234.801,24.5,233.863,24.5Q233.055,24.5,232.41,24.7109Q231.766,24.9219,231.297,25.2852Q230.84,25.6367,230.594,26.1172Q230.359,26.5977,230.359,27.1602Q230.359,27.8633,230.758,28.332Q231.168,28.8008,231.836,29.1523Q232.504,29.4922,233.348,29.7617Q234.191,30.0195,235.082,30.3242Q235.973,30.6172,236.816,30.9805Q237.672,31.3438,238.328,31.8828Q238.996,32.4219,239.395,33.2188Q239.805,34.0039,239.805,35.1055Q239.805,36.3711,239.359,37.449200000000005Q238.914,38.5156,238.023,39.3125Q237.145,40.0977,235.867,40.5547Q234.59,41,232.914,41Q231.004,41,229.457,40.4023Q227.91,39.793,226.832,38.8438L227.582,37.613299999999995Q227.734,37.3789,227.934,37.25Q228.133,37.1211,228.438,37.1211Q228.754,37.1211,229.117,37.3789Q229.48,37.625,229.984,37.9414Q230.5,38.2461,231.238,38.5039Q231.977,38.75,233.078,38.75Q234.016,38.75,234.719,38.5156Q235.422,38.2695,235.879,37.8594Q236.348,37.4375,236.57,36.898399999999995Q236.805,36.3594,236.805,35.75Q236.805,34.988299999999995,236.395,34.4961Q235.996,34.0039,235.328,33.6523Q234.66,33.300799999999995,233.805,33.043Q232.949,32.773399999999995,232.059,32.4922Q231.168,32.199200000000005,230.312,31.8359Q229.457,31.4609,228.789,30.9102Q228.133,30.3477,227.723,29.5273Q227.312,28.707,227.312,27.5352Q227.312,26.4922,227.746,25.5312Q228.18,24.5703,229,23.8438Q229.832,23.1172,231.039,22.6836Q232.246,22.25,233.793,22.25Q235.598,22.25,237.027,22.7891Q238.457,23.3164,239.5,24.2539L238.785,25.4023ZM247.293,22.25L247.293,41L244.094,41L244.094,22.25L247.293,22.25ZM247.984,16.273400000000002Q247.984,16.7305,247.785,17.1289Q247.598,17.5273,247.281,17.8438Q246.977,18.148400000000002,246.555,18.324199999999998Q246.133,18.5,245.664,18.5Q245.195,18.5,244.785,18.324199999999998Q244.387,18.148400000000002,244.07,17.8438Q243.766,17.5273,243.59,17.1289Q243.414,16.7305,243.414,16.273400000000002Q243.414,15.80469,243.59,15.39453Q243.766,14.97266,244.07,14.66797Q244.387,14.35156,244.785,14.17578Q245.195,14,245.664,14Q246.133,14,246.555,14.17578Q246.977,14.35156,247.281,14.66797Q247.598,14.97266,247.785,15.39453Q247.984,15.80469,247.984,16.273400000000002ZM255.941,24.8984Q256.527,24.2305,257.195,23.6914Q257.863,23.1523,258.602,22.7656Q259.352,22.3789,260.184,22.3203Q261.027,22.25,262,22.25Q263.5,22.25,264.637,22.7539Q265.785,23.2578,266.547,24.1836Q267.309,25.0977,267.707,26.3867Q268.105,27.6758,268.105,29.2461L268.105,41L264.883,41L264.883,29Q264.883,26.8672,263.934,25.6836Q262.996,24.5,261.062,24.5Q259.645,24.5,258.414,25.2266Q257.18399999999997,25.9531,256.14099999999996,27.1953L256.14099999999996,41L252.918,41L252.918,22.25L254.84,22.25Q255.52,22.25,255.684,22.918L255.941,24.8984ZM279.52,31.25Q280.492,31.25,281.23,31.0039Q281.969,30.7578,282.473,30.3125Q282.977,29.8555,283.223,29.2344Q283.48,28.6133,283.48,27.8633Q283.48,26.3281,282.461,25.4141Q281.441,24.5,279.52,24.5Q277.574,24.5,276.555,25.4141Q275.535,26.3281,275.535,27.8633Q275.535,28.6133,275.793,29.2344Q276.062,29.8555,276.566,30.3125Q277.07,30.7578,277.809,31.0039Q278.547,31.25,279.52,31.25ZM285.297,41.1523Q285.297,40.4141,284.91,39.957Q284.535,39.4883,283.891,39.2305Q283.258,38.9727,282.414,38.8672Q281.57,38.75,280.621,38.75Q279.684,38.75,278.711,38.75Q277.738,38.75,276.836,38.6211Q275.828,39.1133,275.184,39.875Q274.551,40.6367,274.551,41.6562Q274.551,42.3125,274.867,42.875Q275.184,43.4375,275.828,43.8477Q276.473,44.2695,277.457,44.5039Q278.441,44.75,279.766,44.75Q281.066,44.75,282.086,44.4922Q283.117,44.2344,283.82,43.7539Q284.535,43.2734,284.91,42.6055Q285.297,41.9492,285.297,41.1523ZM288.555,23.2461L288.555,24.3945Q288.555,24.957,287.793,25.1211L285.73,25.3789Q286.34,26.5156,286.34,27.8867Q286.34,29.1523,285.824,30.1953Q285.309,31.2383,284.406,31.9766Q283.516,32.7148,282.25,33.113299999999995Q280.996,33.5,279.52,33.5Q278.242,33.5,277.105,33.1836Q276.531,33.5586,276.227,33.9805Q275.922,34.4023,275.922,34.835899999999995Q275.922,35.5039,276.449,35.8555Q276.977,36.1953,277.844,36.3477Q278.711,36.5,279.812,36.5Q280.926,36.5,282.086,36.5Q283.246,36.5,284.348,36.710899999999995Q285.461,36.9102,286.316,37.3672Q287.184,37.824200000000005,287.711,38.6445Q288.25,39.4531,288.25,40.7422Q288.25,41.9492,287.664,43.0742Q287.078,44.1992,285.977,45.0664Q284.887,45.9453,283.293,46.4727Q281.699,47,279.695,47Q277.703,47,276.203,46.5898Q274.715,46.1797,273.719,45.4883Q272.734,44.7969,272.23,43.8828Q271.738,42.9805,271.738,41.9961Q271.738,40.5898,272.582,39.6172Q273.438,38.6445,274.914,38.0703Q274.094,37.7188,273.613,37.1328Q273.145,36.5352,273.145,35.539100000000005Q273.145,35.1406,273.285,34.7305Q273.438,34.3203,273.73,33.9102Q274.023,33.488299999999995,274.457,33.125Q274.891,32.75,275.465,32.4688Q274.117,31.7539,273.355,30.5703Q272.605,29.3867,272.605,27.8164Q272.605,26.5508,273.121,25.5195Q273.637,24.4883,274.551,23.7617Q275.465,23.0352,276.73,22.6484Q278.008,22.25,279.52,22.25Q280.703,22.25,281.723,22.5078Q282.754,22.7539,283.598,23.2461L288.555,23.2461ZM308.594,22.25Q310.598,22.25,312.191,22.918Q313.797,23.5859,314.934,24.8047Q316.07,26.0234,316.668,27.7578Q317.277,29.4922,317.277,31.6367Q317.277,33.793,316.668,35.5156Q316.07,37.238299999999995,314.934,38.4688Q313.797,39.6875,312.191,40.3438Q310.598,41,308.594,41Q306.578,41,304.961,40.3438Q303.355,39.6875,302.219,38.4688Q301.094,37.238299999999995,300.484,35.5156Q299.887,33.793,299.887,31.6367Q299.887,29.4922,300.484,27.7578Q301.094,26.0234,302.219,24.8047Q303.355,23.5859,304.961,22.918Q306.578,22.25,308.594,22.25ZM308.594,38.75Q311.301,38.75,312.625,36.875Q313.961,35,313.961,31.6484Q313.961,28.2734,312.625,26.3867Q311.301,24.5,308.594,24.5Q307.234,24.5,306.215,24.9922Q305.195,25.4727,304.516,26.3867Q303.848,27.3008,303.508,28.6367Q303.18,29.9609,303.18,31.6484Q303.18,35,304.516,36.875Q305.863,38.75,308.594,38.75ZM324.191,24.8984Q324.777,24.2305,325.445,23.6914Q326.113,23.1523,326.852,22.7656Q327.602,22.3789,328.434,22.3203Q329.277,22.25,330.25,22.25Q331.75,22.25,332.887,22.7539Q334.035,23.2578,334.797,24.1836Q335.559,25.0977,335.957,26.3867Q336.355,27.6758,336.355,29.2461L336.355,41L333.133,41L333.133,29Q333.133,26.8672,332.184,25.6836Q331.246,24.5,329.312,24.5Q327.895,24.5,326.664,25.2266Q325.434,25.9531,324.391,27.1953L324.391,41L321.168,41L321.168,22.25L323.09,22.25Q323.77,22.25,323.934,22.918L324.191,24.8984Z" fill="#3D3D3D" fill-opacity="1"/><path d="M372.719,14.75L372.719,41L367.855,41L367.855,29.75L355.633,29.75L355.633,41L350.77,41L350.77,14.75L355.633,14.75L355.633,26L367.855,26L367.855,14.75L372.719,14.75ZM394.598,22.25L384.531,46.0391Q384.332,46.5078,384.016,46.7539Q383.711,47,383.055,47L379.75,47L383.207,39.5938L375.73,22.25L379.645,22.25Q380.16,22.25,380.453,22.5078Q380.758,22.7656,380.898,23.0938L384.824,32.8672Q385.023,33.3594,385.152,33.863299999999995Q385.293,34.3555,385.422,34.8711Q385.574,34.3555,385.738,33.851600000000005Q385.902,33.3477,386.102,32.8555L389.805,23.0938Q389.957,22.7305,390.285,22.4961Q390.613,22.25,391.035,22.25L394.598,22.25ZM401.02,35.7031Q401.77,36.5469,402.66,36.898399999999995Q403.551,37.25,404.594,37.25Q405.602,37.25,406.41,36.898399999999995Q407.23,36.5469,407.793,35.832Q408.355,35.1172,408.66,34.039100000000005Q408.977,32.949200000000005,408.977,31.4727Q408.977,29.9727,408.707,28.9414Q408.449,27.8984,407.957,27.2539Q407.477,26.5977,406.785,26.3047Q406.094,26,405.215,26Q403.82,26,402.848,26.5508Q401.887,27.0898,401.02,28.0742L401.02,35.7031ZM400.785,24.7695Q401.922,23.4922,403.352,22.8711Q404.793,22.25,406.738,22.25Q408.25,22.25,409.504,22.8711Q410.758,23.4922,411.66,24.6641Q412.574,25.8359,413.066,27.5703Q413.559,29.293,413.559,31.5195Q413.559,33.5586,412.996,35.293Q412.445,37.0156,411.402,38.293Q410.371,39.5703,408.906,40.2852Q407.441,41,405.625,41Q404.078,41,402.977,40.4727Q401.887,39.9453,401.02,39.0078L401.02,47L396.566,47L396.566,22.25L399.285,22.25Q400.152,22.25,400.422,23.0586L400.785,24.7695ZM428.723,29Q428.723,28.2266,428.477,27.5469Q428.23,26.8672,427.738,26.3633Q427.258,25.8477,426.508,25.5547Q425.77,25.25,424.773,25.25Q422.852,25.25,421.738,26.2344Q420.637,27.207,420.332,29L428.723,29ZM420.238,32Q420.344,33.3594,420.742,34.3438Q421.141,35.3281,421.785,35.9727Q422.441,36.6172,423.332,36.9336Q424.223,37.25,425.301,37.25Q426.379,37.25,427.164,37.0156Q427.949,36.7695,428.523,36.476600000000005Q429.109,36.1719,429.555,35.9375Q430,35.6914,430.41,35.6914Q430.973,35.6914,431.242,36.101600000000005L432.52,37.707Q431.781,38.6445,430.855,39.2891Q429.941,39.9219,428.945,40.3086Q427.949,40.6836,426.906,40.8477Q425.875,41,424.902,41Q422.98,41,421.316,40.3789Q419.664,39.7461,418.434,38.5156Q417.215,37.273399999999995,416.512,35.457Q415.809,33.6406,415.809,31.2383Q415.809,29.3867,416.418,27.7461Q417.039,26.0938,418.176,24.8867Q419.324,23.668,420.965,22.9648Q422.617,22.25,424.691,22.25Q426.438,22.25,427.914,22.7891Q429.391,23.3281,430.445,24.3711Q431.512,25.4023,432.109,26.9141Q432.719,28.4141,432.719,30.3477Q432.719,31.3203,432.496,31.6602Q432.285,32,431.676,32L420.238,32ZM440.512,25.4492Q441.379,23.7969,442.562,23.0234Q443.758,22.25,445.375,22.25Q446.652,22.25,447.426,22.4961L447.145,25.6133Q447.051,25.918,446.875,26.0469Q446.711,26.1758,446.418,26.1758Q446.148,26.1758,445.609,26.0938Q445.082,26,444.578,26Q443.84,26,443.266,26.2227Q442.691,26.4453,442.234,26.8789Q441.777,27.3008,441.426,27.8984Q441.074,28.4961,440.77,29.2695L440.77,41L436.316,41L436.316,22.25L438.93,22.25Q439.609,22.25,439.879,22.4961Q440.16,22.7422,440.242,23.3633L440.512,25.4492ZM456.566,31.25Q457.398,31.25,458.008,31.0273Q458.617,30.8047,459.027,30.4062Q459.438,30.0078,459.637,29.457Q459.848,28.8945,459.848,28.2266Q459.848,26.8555,459.027,26.0586Q458.207,25.25,456.566,25.25Q454.938,25.25,454.117,26.0586Q453.297,26.8555,453.297,28.2266Q453.297,28.8711,453.496,29.4336Q453.707,29.9844,454.105,30.3945Q454.516,30.8047,455.137,31.0273Q455.758,31.25,456.566,31.25ZM461.594,42.125Q461.594,41.5508,461.266,41.1875Q460.949,40.8359,460.387,40.6367Q459.824,40.4375,459.074,40.3438Q458.336,40.25,457.492,40.25Q456.66,40.25,455.77,40.25Q454.879,40.25,454.035,40.1445Q453.297,40.5547,452.84,41.1172Q452.383,41.6914,452.383,42.4414Q452.383,42.9336,452.617,43.3555Q452.863,43.7891,453.391,44.0938Q453.93,44.3984,454.773,44.5742Q455.617,44.75,456.836,44.75Q458.078,44.75,458.98,44.5508Q459.883,44.3516,460.469,44Q461.055,43.6484,461.324,43.168Q461.594,42.6875,461.594,42.125ZM466.023,23.1641L466.023,24.7812Q466.023,25.5547,465.062,25.7305L463.41,26.0234Q463.785,26.9961,463.785,28.1562Q463.785,29.5508,463.234,30.6875Q462.695,31.8125,461.723,32.5977Q460.75,33.3828,459.426,33.8164Q458.102,34.25,456.566,34.25Q456.027,34.25,455.523,34.1914Q455.02,34.1328,454.539,34.039100000000005Q453.672,34.5547,453.672,35.210899999999995Q453.672,35.761700000000005,454.188,36.0312Q454.703,36.289100000000005,455.547,36.3945Q456.391,36.5,457.469,36.5Q458.547,36.5,459.684,36.5938Q460.82,36.6875,461.898,36.9219Q462.977,37.1445,463.82,37.648399999999995Q464.676,38.1406,465.18,38.9961Q465.695,39.8398,465.695,41.1875Q465.695,42.4414,465.086,43.6133Q464.488,44.7852,463.34,45.6992Q462.203,46.625,460.539,47.1875Q458.875,47.75,456.754,47.75Q454.668,47.75,453.109,47.3398Q451.562,46.9414,450.531,46.2617Q449.512,45.582,449.008,44.6914Q448.504,43.8125,448.504,42.8516Q448.504,41.5508,449.289,40.6836Q450.074,39.8047,451.445,39.2773Q450.707,38.8906,450.273,38.2461Q449.84,37.5898,449.84,36.5352Q449.84,36.101600000000005,449.992,35.6562Q450.145,35.199200000000005,450.438,34.7539Q450.742,34.3086,451.188,33.9102Q451.645,33.511700000000005,452.254,33.1953Q450.848,32.4336,450.039,31.1797Q449.242,29.9141,449.242,28.2266Q449.242,26.8555,449.793,25.7539Q450.344,24.6406,451.316,23.8672Q452.301,23.082,453.637,22.6719Q454.984,22.25,456.566,22.25Q457.762,22.25,458.805,22.4844Q459.848,22.7188,460.715,23.1641L466.023,23.1641ZM472.762,25.4492Q473.629,23.7969,474.812,23.0234Q476.008,22.25,477.625,22.25Q478.902,22.25,479.676,22.4961L479.395,25.6133Q479.301,25.918,479.125,26.0469Q478.961,26.1758,478.668,26.1758Q478.398,26.1758,477.859,26.0938Q477.332,26,476.828,26Q476.09,26,475.516,26.2227Q474.941,26.4453,474.484,26.8789Q474.027,27.3008,473.676,27.8984Q473.324,28.4961,473.02,29.2695L473.02,41L468.566,41L468.566,22.25L471.18,22.25Q471.859,22.25,472.129,22.4961Q472.41,22.7422,472.492,23.3633L472.762,25.4492ZM491.828,32.75Q489.906,32.75,488.582,33.0078Q487.27,33.2539,486.473,33.6523Q485.688,34.050799999999995,485.348,34.5781Q485.008,35.1055,485.008,35.726600000000005Q485.008,36.9453,485.699,37.4727Q486.391,38,487.504,38Q488.875,38,489.871,37.4961Q490.867,36.9805,491.828,35.949200000000005L491.828,32.75ZM481.645,25.1094Q484.82,22.25,489.309,22.25Q490.926,22.25,492.203,22.7773Q493.48,23.3047,494.359,24.2539Q495.25,25.1914,495.707,26.5039Q496.164,27.8164,496.164,29.375L496.164,41L494.148,41Q493.516,41,493.176,40.8008Q492.836,40.5898,492.637,39.9688L492.238,38.5391Q491.535,39.1367,490.867,39.5938Q490.211,40.0508,489.484,40.3672Q488.77,40.6719,487.949,40.8359Q487.129,41,486.145,41Q484.973,41,483.977,40.6719Q482.992,40.3438,482.266,39.6875Q481.551,39.0312,481.152,38.0586Q480.754,37.085899999999995,480.754,35.7969Q480.754,35.0703,480.988,34.3555Q481.223,33.6289,481.75,32.9727Q482.289,32.3164,483.133,31.7422Q483.977,31.1562,485.207,30.7227Q486.449,30.2891,488.078,30.0195Q489.719,29.75,491.828,29.75L491.828,28.8945Q491.828,27.418,491.031,26.7148Q490.246,26,488.746,26Q487.668,26,486.953,26.1992Q486.25,26.3984,485.711,26.6445Q485.172,26.8906,484.727,27.0898Q484.281,27.2891,483.742,27.2891Q483.273,27.2891,482.945,27.0547Q482.629,26.8086,482.43,26.4922L481.645,25.1094ZM504.52,35.7031Q505.27,36.5469,506.16,36.898399999999995Q507.051,37.25,508.094,37.25Q509.102,37.25,509.91,36.898399999999995Q510.73,36.5469,511.293,35.832Q511.855,35.1172,512.1600000000001,34.039100000000005Q512.477,32.949200000000005,512.477,31.4727Q512.477,29.9727,512.207,28.9414Q511.949,27.8984,511.457,27.2539Q510.977,26.5977,510.285,26.3047Q509.594,26,508.715,26Q507.32,26,506.348,26.5508Q505.387,27.0898,504.52,28.0742L504.52,35.7031ZM504.285,24.7695Q505.422,23.4922,506.852,22.8711Q508.293,22.25,510.238,22.25Q511.75,22.25,513.004,22.8711Q514.258,23.4922,515.1600000000001,24.6641Q516.074,25.8359,516.566,27.5703Q517.059,29.293,517.059,31.5195Q517.059,33.5586,516.496,35.293Q515.9449999999999,37.0156,514.902,38.293Q513.871,39.5703,512.406,40.2852Q510.941,41,509.125,41Q507.578,41,506.477,40.4727Q505.387,39.9453,504.52,39.0078L504.52,47L500.066,47L500.066,22.25L502.785,22.25Q503.652,22.25,503.922,23.0586L504.285,24.7695ZM524.77,24.7227Q525.848,23.6211,527.137,22.9414Q528.438,22.25,530.184,22.25Q531.695,22.25,532.867,22.7656Q534.039,23.2812,534.812,24.207Q535.598,25.1328,536.008,26.4219Q536.418,27.6992,536.418,29.2461L536.418,41L531.965,41L531.965,29.4805Q531.965,27.8164,531.191,26.9141Q530.418,26,528.836,26Q527.688,26,526.68,26.5625Q525.672,27.1133,524.77,28.0625L524.77,41L520.316,41L520.316,14L524.77,14L524.77,24.7227Z" fill="#DB0505" fill-opacity="1"/></g><g style="mix-blend-mode:passthrough"><path d="M283,404L254,404L254,402L283,402L283,404ZM292,403L281.9541,408.8L281.9541,397.2L292,403Z" fill="#000000" fill-opacity="1"/></g><g style="mix-blend-mode:passthrough"><path d="M369,279.5Q359.679,279.5,350.43600000000004,270.773Q346.962,267.493,343.055,262.5697Q340.765,259.6844,336.575,253.8888Q333.772,250.012,332.451,248.2816Q330.305,245.4712,328.693,243.74689999999998Q325.19,240,323,240L323,236Q325.22,236,327.565,237.4971Q329.451,238.7009,331.615,241.0152Q333.363,242.885,335.63,245.85410000000002Q336.98400000000004,247.6265,339.817,251.5453Q343.954,257.2685,346.188,260.08320000000003Q349.91700000000003,264.7817,353.182,267.865Q361.269,275.5,369,275.5L369,279.5ZM175,314.5Q179.2314,314.5,183.38999,311.553Q187.2989,308.78200000000004,191.3869,303.243Q194.8759,298.51599999999996,198.9729,291.067Q201.4533,286.557,206.3239,276.877Q211.3271,266.933,213.913,262.2425Q218.26069999999999,254.3573,222.0444,249.2698Q226.6839,243.0317,231.3157,239.7919Q236.73669999999998,236,242.5,236L242.5,240Q237.9968,240,233.60840000000002,243.06959999999998Q229.5072,245.9384,225.2541,251.6569Q221.6324,256.5265,217.4159,264.1739Q214.8663,268.798,209.8971,278.675Q204.9935,288.421,202.4777,292.995Q198.2524,300.677,194.6053,305.619Q190.1359,311.674,185.703,314.81600000000003Q180.50518,318.5,175,318.5L175,314.5ZM177,236L242.5,236L242.5,240L177,240L177,236ZM369,200.5Q364.401,200.5,356.78200000000004,207.5119Q353.634,210.4095,349.598,214.8644Q347.178,217.5351,342.44,223.0521Q338.79200000000003,227.2996,337.06399999999996,229.2387Q334.179,232.4769,332.082,234.5236Q329.51099999999997,237.03289999999998,327.53999999999996,238.3358Q325.023,240,323,240L262.0317,240L242.5,240Q238.5968,240,234.6525,237.03539999999998Q231.3649,234.5643,227.7655,229.7841Q224.82139999999998,225.8742,221.1566,219.7067Q218.963,216.0151,214.4931,207.9718Q208.9668,198.0274,206.0591,193.2468Q201.2158,185.284,197.0304,180.1249Q192.061,173.99965,187.3201,170.88678Q182.16195,167.5,177,167.5L177,163.5Q183.35777,163.5,189.5155,167.54311Q194.7759,170.99702,200.1367,177.6048Q204.4926,182.9741,209.4766,191.1681Q212.4251,196.0158,217.9895,206.0288Q222.4313,214.0216,224.5953,217.6634Q228.1484,223.6429,230.9609,227.378Q237.4532,236,242.5,236L262.0317,236L323,236Q324.842,236,329.288,231.6609Q332.289,228.7323,339.405,220.446Q344.178,214.8884,346.63300000000004,212.1789Q350.791,207.5892,354.073,204.5687Q358.13,200.8358,361.5,198.87279999999998Q365.575,196.5,369,196.5L369,200.5ZM323,240L242.5,240L242.5,236L323,236L323,240Z" fill="#000000" fill-opacity="1"/></g><g style="mix-blend-mode:passthrough" transform="matrix(0.9999478459358215,-0.012447524815797806,0.012447524815797806,0.9999478459358215,-1.8642636103868426,1.8376293755718507)"><ellipse cx="162.00304412841797" cy="165.38878631591797" rx="15.003044128417969" ry="15.003044128417969" fill="#82318E" fill-opacity="1"/></g><g style="mix-blend-mode:passthrough" transform="matrix(0.9999478459358215,-0.012447524815797806,0.012447524815797806,0.9999478459358215,-3.731240385432102,1.8454518485523295)"><ellipse cx="162.00304412841797" cy="315.37657928466797" rx="15.003044128417969" ry="15.003044128417969" fill="#82318E" fill-opacity="1"/></g><g style="mix-blend-mode:passthrough" transform="matrix(0.9999478459358215,-0.012447524815797806,0.012447524815797806,0.9999478459358215,-2.7729329219400825,1.8414366222568788)"><ellipse cx="162.00304412841797" cy="238.38878631591797" rx="15.003044128417969" ry="15.003044128417969" fill="#82318E" fill-opacity="1"/></g></g></svg>