<svg xmlns="http://www.w3.org/2000/svg" xmlns:xlink="http://www.w3.org/1999/xlink" fill="none" version="1.1" width="560" height="420" viewBox="0 0 560 420"><g style="mix-blend-mode:passthrough"><g style="mix-blend-mode:passthrough"><path d="M164.63281,411L167.20312,411L172.7969,393.5L170.5391,393.5L167.71094,402.9766C167.10938,405.0234,166.67969,406.6953,166.00781,408.75L165.90625,408.75C165.25781,406.6953,164.80469,405.0234,164.20312,402.9766L161.35156,393.5L159.0234375,393.5L164.63281,411ZM180.4844,411.5C182.2344,411.5,183.6328,410.9297,184.7578,410.1875L183.9922,408.6797C183.0078,409.3516,182,409.75,180.7266,409.75C178.25,409.75,176.5469,407.9062,176.4062,405L185.1875,405C185.2344,404.6641,185.2891,404.2344,185.2891,403.7578C185.2891,399.9219,183.4141,397.5,180.0781,397.5C177.1016,397.5,174.2422,400.1484,174.2422,404.5C174.2422,408.9531,177.0078,411.5,180.4844,411.5ZM176.3828,403.4453C176.6406,400.7656,178.2734,399.2578,180.125,399.2578C182.1641,399.2578,183.3672,400.7188,183.3672,403.4453L176.3828,403.4453ZM188.7031,411L190.9141,411L190.9141,402.5312C191.7734,400.2969,193.0938,399.4688,194.1797,399.4688C194.7266,399.4688,195.0156,399.5469,195.4453,399.6875L195.8594,398C195.4453,397.5781,195.0391,397.5,194.4609,397.5C193.0234,397.5,191.6797,398.5625,190.7656,400.2266L190.7188,400.2266L190.5078,398L188.7031,398L188.7031,411ZM202.2812,411.5C203.1016,411.5,203.9609,411.2656,204.7109,411.0234L204.2734,409.3594C203.8438,409.5547,203.2656,409.7266,202.7891,409.7266C201.2734,409.7266,200.7734,408.8047,200.7734,407.1953L200.7734,399.7812L204.3281,399.7812L204.3281,398L200.7734,398L200.7734,394.3281L198.9453,394.3281L198.7109,398L196.6406,398.125L196.6406,399.7812L198.5859,399.7812L198.5859,407.1172C198.5859,409.7734,199.5234,411.5,202.2812,411.5ZM212.4844,411.5C214.2344,411.5,215.6328,410.9297,216.7578,410.1875L215.9922,408.6797C215.0078,409.3516,214,409.75,212.7266,409.75C210.25,409.75,208.5469,407.9062,208.4062,405L217.1875,405C217.2344,404.6641,217.2891,404.2344,217.2891,403.7578C217.2891,399.9219,215.4141,397.5,212.0781,397.5C209.1016,397.5,206.2422,400.1484,206.2422,404.5C206.2422,408.9531,209.0078,411.5,212.4844,411.5ZM208.3828,403.4453C208.6406,400.7656,210.2734,399.2578,212.125,399.2578C214.1641,399.2578,215.3672,400.7188,215.3672,403.4453L208.3828,403.4453ZM218.8594,411L221.1641,411L222.9141,407.9609C223.3672,407.1719,223.77339999999998,406.3828,224.2344,405.6406L224.35160000000002,405.6406C224.8594,406.3828,225.33589999999998,407.1719,225.7656,407.9609L227.6875,411L230.08589999999998,411L225.78910000000002,404.4453L229.75,398L227.47660000000002,398L225.8672,400.8516C225.4531,401.5938,225.0938,402.2891,224.71089999999998,403.0312L224.5938,403.0312C224.16410000000002,402.2891,223.7031,401.5938,223.3203,400.8516L221.5703,398L219.1953,398L223.1562,404.2266L218.8594,411Z" fill="#3D3D3D" fill-opacity="1"/></g><g style="mix-blend-mode:passthrough"><path d="M311.63281,411L314.20312,411L319.7969,393.5L317.5391,393.5L314.71094,402.9766C314.10938,405.0234,313.67969,406.6953,313.00781,408.75L312.90625,408.75C312.25781,406.6953,311.80469,405.0234,311.20312,402.9766L308.35156,393.5L306.0234375,393.5L311.63281,411ZM327.4844,411.5C329.2344,411.5,330.6328,410.9297,331.7578,410.1875L330.9922,408.6797C330.0078,409.3516,329,409.75,327.7266,409.75C325.25,409.75,323.5469,407.9062,323.4062,405L332.1875,405C332.2344,404.6641,332.2891,404.2344,332.2891,403.7578C332.2891,399.9219,330.4141,397.5,327.0781,397.5C324.1016,397.5,321.2422,400.1484,321.2422,404.5C321.2422,408.9531,324.0078,411.5,327.4844,411.5ZM323.3828,403.4453C323.6406,400.7656,325.2734,399.2578,327.125,399.2578C329.1641,399.2578,330.3672,400.7188,330.3672,403.4453L323.3828,403.4453ZM335.7031,411L337.9141,411L337.9141,402.5312C338.7734,400.2969,340.0938,399.4688,341.1797,399.4688C341.7266,399.4688,342.0156,399.5469,342.4453,399.6875L342.8594,398C342.4453,397.5781,342.0391,397.5,341.4609,397.5C340.0234,397.5,338.6797,398.5625,337.7656,400.2266L337.7188,400.2266L337.5078,398L335.7031,398L335.7031,411ZM349.2812,411.5C350.1016,411.5,350.9609,411.2656,351.7109,411.0234L351.2734,409.3594C350.8438,409.5547,350.2656,409.7266,349.7891,409.7266C348.2734,409.7266,347.7734,408.8047,347.7734,407.1953L347.7734,399.7812L351.3281,399.7812L351.3281,398L347.7734,398L347.7734,394.3281L345.9453,394.3281L345.7109,398L343.6406,398.125L343.6406,399.7812L345.5859,399.7812L345.5859,407.1172C345.5859,409.7734,346.5234,411.5,349.2812,411.5ZM359.4844,411.5C361.2344,411.5,362.6328,410.9297,363.7578,410.1875L362.9922,408.6797C362.0078,409.3516,361,409.75,359.7266,409.75C357.25,409.75,355.5469,407.9062,355.4062,405L364.1875,405C364.2344,404.6641,364.2891,404.2344,364.2891,403.7578C364.2891,399.9219,362.4141,397.5,359.0781,397.5C356.1016,397.5,353.2422,400.1484,353.2422,404.5C353.2422,408.9531,356.0078,411.5,359.4844,411.5ZM355.3828,403.4453C355.6406,400.7656,357.2734,399.2578,359.125,399.2578C361.1641,399.2578,362.3672,400.7188,362.3672,403.4453L355.3828,403.4453ZM365.8594,411L368.1641,411L369.9141,407.9609C370.3672,407.1719,370.7734,406.3828,371.2344,405.6406L371.3516,405.6406C371.8594,406.3828,372.3359,407.1719,372.7656,407.9609L374.6875,411L377.0859,411L372.7891,404.4453L376.75,398L374.4766,398L372.8672,400.8516C372.4531,401.5938,372.0938,402.2891,371.7109,403.0312L371.5938,403.0312C371.1641,402.2891,370.7031,401.5938,370.3203,400.8516L368.5703,398L366.1953,398L370.1562,404.2266L365.8594,411Z" fill="#3D3D3D" fill-opacity="1"/></g><g style="mix-blend-mode:passthrough"><path d="M223.164,71.25L215.7227,90L212.85160000000002,90L205.4102,71.25L208.02339999999998,71.25Q208.4219,71.25,208.668,71.4609Q208.92579999999998,71.6602,209.0195,71.9297L213.63670000000002,84.0117Q213.8594,84.6914,214.01170000000002,85.3477Q214.17579999999998,85.9922,214.3281,86.6367Q214.4688,85.9922,214.6328,85.3477Q214.7969,84.6914,215.0312,84.0117L219.707,71.9297Q219.8125,71.6367,220.0586,71.4492Q220.3164,71.25,220.6562,71.25L223.164,71.25ZM229.668,71.25L229.668,90L226.469,90L226.469,71.25L229.668,71.25ZM230.35899999999998,65.2734Q230.35899999999998,65.7305,230.16,66.1289Q229.973,66.5273,229.656,66.8438Q229.352,67.1484,228.93,67.3242Q228.50799999999998,67.5,228.039,67.5Q227.57,67.5,227.16,67.3242Q226.762,67.1484,226.445,66.8438Q226.14100000000002,66.5273,225.965,66.1289Q225.789,65.7305,225.789,65.2734Q225.789,64.80469,225.965,64.39453Q226.14100000000002,63.97266,226.445,63.66797Q226.762,63.35156,227.16,63.17578Q227.57,63,228.039,63Q228.50799999999998,63,228.93,63.17578Q229.352,63.35156,229.656,63.66797Q229.973,63.97266,230.16,64.39453Q230.35899999999998,64.80469,230.35899999999998,65.2734ZM245.172,81.75Q242.957,81.75,241.398,82.0195Q239.84,82.2891,238.85500000000002,82.7344Q237.88299999999998,83.168,237.438,83.7656Q236.99200000000002,84.3516,236.99200000000002,85.0898Q236.99200000000002,85.793,237.227,86.2969Q237.461,86.8008,237.87099999999998,87.1289Q238.281,87.457,238.82,87.6094Q239.37099999999998,87.75,240.00400000000002,87.75Q240.848,87.75,241.551,87.58590000000001Q242.25400000000002,87.4219,242.875,87.1172Q243.49599999999998,86.8008,244.059,86.3672Q244.63299999999998,85.9219,245.172,85.3711L245.172,81.75ZM234.824,73.9805Q236.336,72.6094,238.082,71.9297Q239.828,71.25,241.949,71.25Q243.473,71.25,244.656,71.7656Q245.852,72.2695,246.66,73.1836Q247.469,74.0859,247.87900000000002,75.375Q248.301,76.6641,248.301,78.2109L248.301,90L246.88299999999998,90Q246.414,90,246.156,89.83590000000001Q245.91,89.6602,245.76999999999998,89.1562L245.406,87.2461Q244.68,87.9023,244,88.418Q243.32,88.9219,242.559,89.27340000000001Q241.809,89.625,240.953,89.8125Q240.098,90,239.055,90Q237.988,90,237.051,89.707Q236.113,89.4023,235.422,88.8047Q234.73000000000002,88.207,234.32,87.3047Q233.922,86.3906,233.922,85.1367Q233.922,84.0586,234.50799999999998,83.0508Q235.10500000000002,82.043,236.441,81.2695Q237.777,80.4961,239.91,80.0039Q242.055,79.5,245.172,79.5L245.172,78.0117Q245.172,75.7852,244.24599999999998,74.6484Q243.332,73.5,241.574,73.5Q240.37900000000002,73.5,239.582,73.8164Q238.785,74.1211,238.199,74.5078Q237.613,74.8945,237.191,75.2109Q236.76999999999998,75.5156,236.348,75.5156Q236.031,75.5156,235.797,75.3516Q235.562,75.1875,235.398,74.9531L234.824,73.9805ZM267.50800000000004,67.5L267.50800000000004,75L276.613,75L276.613,78.75L267.50800000000004,78.75L267.50800000000004,86.25L279.062,86.25L279.062,90L262.645,90L262.645,63.75L279.062,63.75L279.062,67.5L267.50800000000004,67.5ZM294.543,76.5703Q293.781,75.7148,292.89099999999996,75.3633Q292,75,290.969,75Q289.961,75,289.152,75.3516Q288.344,75.7031,287.77,76.4062Q287.195,77.1094,286.89099999999996,78.1992Q286.586,79.2891,286.586,80.7773Q286.586,82.2773,286.844,83.3203Q287.102,84.3516,287.582,85.0078Q288.074,85.6641,288.777,85.957Q289.48,86.25,290.348,86.25Q291.73,86.25,292.703,85.7227Q293.676,85.1836,294.543,84.2109L294.543,76.5703ZM298.98400000000004,63L298.98400000000004,90L296.26599999999996,90Q295.387,90,295.152,89.07419999999999L294.777,87.0469Q293.652,88.3711,292.199,89.1914Q290.75800000000004,90,288.836,90Q287.324,90,286.05899999999997,89.3789Q284.805,88.7578,283.89099999999996,87.58590000000001Q282.977,86.4141,282.48400000000004,84.6797Q281.99199999999996,82.9453,281.99199999999996,80.7188Q281.99199999999996,78.6914,282.543,76.9688Q283.105,75.2344,284.148,73.957Q285.19100000000003,72.6797,286.645,71.9648Q288.10900000000004,71.25,289.926,71.25Q291.473,71.25,292.574,71.7891Q293.676,72.3281,294.543,73.2539L294.543,63L298.98400000000004,63ZM309.94100000000003,80.25Q310.773,80.25,311.38300000000004,80.0273Q311.99199999999996,79.8047,312.402,79.4062Q312.812,79.0078,313.012,78.457Q313.223,77.8945,313.223,77.2266Q313.223,75.8555,312.402,75.0586Q311.582,74.25,309.94100000000003,74.25Q308.312,74.25,307.49199999999996,75.0586Q306.672,75.8555,306.672,77.2266Q306.672,77.8711,306.871,78.4336Q307.082,78.9844,307.48,79.3945Q307.89099999999996,79.8047,308.512,80.0273Q309.13300000000004,80.25,309.94100000000003,80.25ZM314.969,91.125Q314.969,90.55080000000001,314.64099999999996,90.1875Q314.324,89.83590000000001,313.762,89.63669999999999Q313.199,89.4375,312.449,89.3438Q311.711,89.25,310.86699999999996,89.25Q310.03499999999997,89.25,309.145,89.25Q308.254,89.25,307.40999999999997,89.1445Q306.672,89.5547,306.21500000000003,90.1172Q305.75800000000004,90.6914,305.75800000000004,91.4414Q305.75800000000004,91.9336,305.99199999999996,92.3555Q306.238,92.78909999999999,306.76599999999996,93.0938Q307.305,93.39840000000001,308.148,93.57419999999999Q308.99199999999996,93.75,310.211,93.75Q311.453,93.75,312.355,93.55080000000001Q313.25800000000004,93.35159999999999,313.844,93Q314.43,92.64840000000001,314.699,92.168Q314.969,91.6875,314.969,91.125ZM319.398,72.1641L319.398,73.7812Q319.398,74.5547,318.438,74.7305L316.78499999999997,75.0234Q317.15999999999997,75.9961,317.15999999999997,77.1562Q317.15999999999997,78.5508,316.60900000000004,79.6875Q316.07,80.8125,315.098,81.5977Q314.125,82.3828,312.801,82.8164Q311.477,83.25,309.94100000000003,83.25Q309.402,83.25,308.898,83.1914Q308.395,83.1328,307.914,83.0391Q307.047,83.5547,307.047,84.2109Q307.047,84.7617,307.562,85.0312Q308.078,85.2891,308.922,85.3945Q309.76599999999996,85.5,310.844,85.5Q311.922,85.5,313.05899999999997,85.5938Q314.195,85.6875,315.273,85.9219Q316.352,86.1445,317.195,86.6484Q318.051,87.1406,318.555,87.9961Q319.07,88.8398,319.07,90.1875Q319.07,91.4414,318.461,92.61330000000001Q317.863,93.7852,316.71500000000003,94.69919999999999Q315.578,95.625,313.914,96.1875Q312.25,96.75,310.129,96.75Q308.043,96.75,306.48400000000004,96.3398Q304.938,95.9414,303.906,95.26169999999999Q302.887,94.582,302.38300000000004,93.6914Q301.879,92.8125,301.879,91.85159999999999Q301.879,90.55080000000001,302.664,89.6836Q303.449,88.8047,304.82,88.2773Q304.082,87.8906,303.648,87.2461Q303.21500000000003,86.5898,303.21500000000003,85.5352Q303.21500000000003,85.1016,303.36699999999996,84.6562Q303.52,84.1992,303.812,83.7539Q304.11699999999996,83.3086,304.562,82.9102Q305.02,82.5117,305.629,82.1953Q304.223,81.4336,303.414,80.1797Q302.61699999999996,78.9141,302.61699999999996,77.2266Q302.61699999999996,75.8555,303.168,74.7539Q303.719,73.6406,304.69100000000003,72.8672Q305.676,72.082,307.012,71.6719Q308.35900000000004,71.25,309.94100000000003,71.25Q311.137,71.25,312.18,71.4844Q313.223,71.7188,314.09000000000003,72.1641L319.398,72.1641ZM333.848,78Q333.848,77.2266,333.602,76.5469Q333.355,75.8672,332.863,75.3633Q332.38300000000004,74.8477,331.63300000000004,74.5547Q330.895,74.25,329.898,74.25Q327.977,74.25,326.863,75.2344Q325.762,76.207,325.457,78L333.848,78ZM325.363,81Q325.469,82.3594,325.86699999999996,83.3438Q326.26599999999996,84.3281,326.90999999999997,84.9727Q327.56600000000003,85.6172,328.457,85.9336Q329.348,86.25,330.426,86.25Q331.504,86.25,332.289,86.0156Q333.074,85.7695,333.648,85.4766Q334.23400000000004,85.1719,334.68,84.9375Q335.125,84.6914,335.53499999999997,84.6914Q336.098,84.6914,336.36699999999996,85.1016L337.645,86.707Q336.906,87.6445,335.98,88.28909999999999Q335.06600000000003,88.9219,334.07,89.3086Q333.074,89.6836,332.031,89.8477Q331,90,330.027,90Q328.105,90,326.44100000000003,89.3789Q324.789,88.7461,323.55899999999997,87.5156Q322.34000000000003,86.2734,321.637,84.457Q320.93399999999997,82.6406,320.93399999999997,80.2383Q320.93399999999997,78.3867,321.543,76.7461Q322.164,75.0938,323.301,73.8867Q324.449,72.668,326.09000000000003,71.9648Q327.74199999999996,71.25,329.81600000000003,71.25Q331.562,71.25,333.039,71.7891Q334.51599999999996,72.3281,335.57,73.3711Q336.637,74.4023,337.23400000000004,75.9141Q337.844,77.4141,337.844,79.3477Q337.844,80.3203,337.621,80.6602Q337.40999999999997,81,336.801,81L325.363,81ZM352.71500000000003,75.5625Q352.539,75.8672,352.34000000000003,75.9844Q352.14099999999996,76.1016,351.836,76.1016Q351.50800000000004,76.1016,351.13300000000004,75.9375Q350.77,75.7617,350.277,75.5508Q349.797,75.3398,349.176,75.1758Q348.555,75,347.711,75Q346.398,75,345.648,75.5273Q344.898,76.0547,344.898,76.9102Q344.898,77.4727,345.28499999999997,77.8594Q345.672,78.2461,346.305,78.5391Q346.949,78.832,347.75800000000004,79.0664Q348.578,79.2891,349.40999999999997,79.5703Q350.24199999999996,79.8398,351.051,80.1914Q351.871,80.5312,352.504,81.0703Q353.148,81.6094,353.53499999999997,82.3594Q353.922,83.1094,353.922,84.1758Q353.922,85.4414,353.44100000000003,86.5078Q352.961,87.57419999999999,352.023,88.3594Q351.098,89.1328,349.71500000000003,89.5664Q348.344,90,346.539,90Q345.59000000000003,90,344.676,89.83590000000001Q343.773,89.6719,342.93,89.3906Q342.098,89.0977,341.38300000000004,88.69919999999999Q340.668,88.30080000000001,340.129,87.8438L341.15999999999997,86.2031Q341.35900000000004,85.9102,341.629,85.7578Q341.898,85.5938,342.30899999999997,85.5938Q342.719,85.5938,343.082,85.8164Q343.457,86.0391,343.938,86.2969Q344.43,86.5547,345.086,86.7773Q345.74199999999996,87,346.762,87Q347.547,87,348.10900000000004,86.8125Q348.68399999999997,86.625,349.047,86.3203Q349.422,86.0156,349.586,85.6172Q349.762,85.2188,349.762,84.7969Q349.762,84.1523,349.375,83.7422Q348.988,83.332,348.344,83.0391Q347.711,82.7344,346.89099999999996,82.5Q346.07,82.2539,345.21500000000003,81.9727Q344.35900000000004,81.6797,343.539,81.3047Q342.719,80.918,342.074,80.332Q341.44100000000003,79.7344,341.055,78.8906Q340.668,78.0352,340.668,76.8164Q340.668,75.7031,341.113,74.6953Q341.57,73.6758,342.438,72.9141Q343.31600000000003,72.1523,344.61699999999996,71.707Q345.93,71.25,347.64099999999996,71.25Q349.551,71.25,351.10900000000004,71.9883Q352.68,72.7266,353.723,73.9219L352.71500000000003,75.5625Z" fill="#3D3D3D" fill-opacity="1"/></g><g style="mix-blend-mode:passthrough"><path d="M97.3789,17.75L97.3789,44L94.3203,44L94.3203,25.0039Q94.3203,24.6172,94.3438,24.1953Q94.3789,23.761699999999998,94.41409999999999,23.3047L85.5547,39.4297Q85.1445,40.25,84.30080000000001,40.25L83.7969,40.25Q82.9414,40.25,82.5312,39.4297L73.4961,23.011699999999998Q73.60159999999999,23.9727,73.60159999999999,24.793L73.60159999999999,44L70.543,44L70.543,17.75L73.1211,17.75Q73.5898,17.75,73.83590000000001,17.84375Q74.0938,17.9375,74.3281,18.35938L83.2344,34.543Q83.4453,34.976600000000005,83.6562,35.457Q83.8672,35.9375,84.043,36.4297Q84.2188,35.9375,84.418,35.457Q84.6172,34.9648,84.85159999999999,34.5195L93.6055,18.35938Q93.8164,17.9375,94.07419999999999,17.84375Q94.3438,17.75,94.8125,17.75L97.3789,17.75ZM115.7422,32.75Q115.7422,31.5898,115.4258,30.6289Q115.1094,29.668,114.5,28.9648Q113.9023,28.2617,113.0352,27.8867Q112.1797,27.5,111.0781,27.5Q108.7812,27.5,107.4336,28.8945Q106.0977,30.2891,105.7695,32.75L115.7422,32.75ZM118.332,41.375Q117.7344,42.0547,116.9023,42.5469Q116.082,43.0391,115.1328,43.3672Q114.1953,43.6836,113.1875,43.8477Q112.1797,44,111.1836,44Q109.2969,44,107.7031,43.3672Q106.1094,42.7227,104.9492,41.4922Q103.7891,40.261700000000005,103.1328,38.4453Q102.4883,36.6289,102.4883,34.273399999999995Q102.4883,32.363299999999995,103.0742,30.7109Q103.6602,29.0586,104.7617,27.8516Q105.8633,26.6328,107.4453,25.9414Q109.0273,25.25,111.0078,25.25Q112.6484,25.25,114.043,25.8242Q115.4375,26.3867,116.4453,27.4648Q117.4648,28.5312,118.0391,30.1133Q118.625,31.6836,118.625,33.699200000000005Q118.625,34.4727,118.4609,34.7422Q118.2969,35,117.8516,35L105.6641,35Q105.7109,36.710899999999995,106.1328,37.976600000000005Q106.5664,39.2305,107.3164,40.074200000000005Q108.0781,40.918,109.1211,41.3398Q110.1641,41.75,111.4531,41.75Q112.6602,41.75,113.5273,41.4805Q114.4062,41.1992,115.0391,40.8828Q115.6719,40.5547,116.0938,40.2852Q116.5156,40.0039,116.8203,40.0039Q117.2188,40.0039,117.4297,40.2852L118.332,41.375ZM132.9102,28.4023Q132.6875,28.7891,132.2422,28.7891Q131.9727,28.7891,131.6328,28.5898Q131.293,28.3906,130.78910000000002,28.1562Q130.2969,27.9102,129.6055,27.7109Q128.92579999999998,27.5,127.9883,27.5Q127.1797,27.5,126.5352,27.7109Q125.8906,27.9219,125.4219,28.2852Q124.9648,28.6367,124.7188,29.1172Q124.4844,29.5977,124.4844,30.1602Q124.4844,30.8633,124.8828,31.332Q125.293,31.8008,125.9609,32.1523Q126.6289,32.4922,127.4727,32.761700000000005Q128.3164,33.0195,129.207,33.324200000000005Q130.0977,33.6172,130.9414,33.9805Q131.7969,34.3438,132.4531,34.8828Q133.1211,35.4219,133.5195,36.2188Q133.9297,37.0039,133.9297,38.1055Q133.9297,39.3711,133.4844,40.449200000000005Q133.03910000000002,41.5156,132.14839999999998,42.3125Q131.2695,43.0977,129.9922,43.5547Q128.7148,44,127.0391,44Q125.1289,44,123.582,43.4023Q122.0352,42.793,120.957,41.8438L121.707,40.613299999999995Q121.8594,40.3789,122.0586,40.25Q122.2578,40.1211,122.5625,40.1211Q122.8789,40.1211,123.2422,40.3789Q123.6055,40.625,124.1094,40.9414Q124.625,41.2461,125.3633,41.5039Q126.1016,41.75,127.2031,41.75Q128.1406,41.75,128.8438,41.5156Q129.5469,41.2695,130.0039,40.8594Q130.4727,40.4375,130.6953,39.898399999999995Q130.9297,39.3594,130.9297,38.75Q130.9297,37.988299999999995,130.5195,37.4961Q130.1211,37.0039,129.4531,36.6523Q128.7852,36.300799999999995,127.9297,36.043Q127.0742,35.773399999999995,126.1836,35.4922Q125.293,35.199200000000005,124.4375,34.835899999999995Q123.582,34.460899999999995,122.9141,33.9102Q122.2578,33.3477,121.8477,32.5273Q121.4375,31.707,121.4375,30.5352Q121.4375,29.4922,121.8711,28.5312Q122.3047,27.5703,123.125,26.8438Q123.957,26.1172,125.1641,25.6836Q126.3711,25.25,127.918,25.25Q129.7227,25.25,131.1523,25.7891Q132.582,26.3164,133.625,27.2539L132.9102,28.4023ZM148.66,28.4023Q148.438,28.7891,147.99200000000002,28.7891Q147.723,28.7891,147.38299999999998,28.5898Q147.043,28.3906,146.539,28.1562Q146.047,27.9102,145.35500000000002,27.7109Q144.676,27.5,143.738,27.5Q142.93,27.5,142.285,27.7109Q141.64100000000002,27.9219,141.172,28.2852Q140.715,28.6367,140.469,29.1172Q140.23399999999998,29.5977,140.23399999999998,30.1602Q140.23399999999998,30.8633,140.63299999999998,31.332Q141.043,31.8008,141.711,32.1523Q142.37900000000002,32.4922,143.223,32.761700000000005Q144.066,33.0195,144.957,33.324200000000005Q145.848,33.6172,146.691,33.9805Q147.547,34.3438,148.203,34.8828Q148.87099999999998,35.4219,149.26999999999998,36.2188Q149.68,37.0039,149.68,38.1055Q149.68,39.3711,149.23399999999998,40.449200000000005Q148.789,41.5156,147.898,42.3125Q147.01999999999998,43.0977,145.74200000000002,43.5547Q144.465,44,142.789,44Q140.87900000000002,44,139.332,43.4023Q137.785,42.793,136.707,41.8438L137.457,40.613299999999995Q137.60899999999998,40.3789,137.809,40.25Q138.00799999999998,40.1211,138.312,40.1211Q138.62900000000002,40.1211,138.99200000000002,40.3789Q139.35500000000002,40.625,139.85899999999998,40.9414Q140.375,41.2461,141.113,41.5039Q141.852,41.75,142.953,41.75Q143.89100000000002,41.75,144.594,41.5156Q145.297,41.2695,145.75400000000002,40.8594Q146.223,40.4375,146.445,39.898399999999995Q146.68,39.3594,146.68,38.75Q146.68,37.988299999999995,146.26999999999998,37.4961Q145.87099999999998,37.0039,145.203,36.6523Q144.535,36.300799999999995,143.68,36.043Q142.824,35.773399999999995,141.934,35.4922Q141.043,35.199200000000005,140.188,34.835899999999995Q139.332,34.460899999999995,138.664,33.9102Q138.00799999999998,33.3477,137.598,32.5273Q137.188,31.707,137.188,30.5352Q137.188,29.4922,137.62099999999998,28.5312Q138.055,27.5703,138.875,26.8438Q139.707,26.1172,140.914,25.6836Q142.12099999999998,25.25,143.668,25.25Q145.473,25.25,146.902,25.7891Q148.332,26.3164,149.375,27.2539L148.66,28.4023ZM163.672,35.75Q161.457,35.75,159.898,36.0195Q158.34,36.289100000000005,157.35500000000002,36.7344Q156.38299999999998,37.168,155.938,37.7656Q155.49200000000002,38.351600000000005,155.49200000000002,39.0898Q155.49200000000002,39.793,155.727,40.2969Q155.961,40.800799999999995,156.37099999999998,41.1289Q156.781,41.457,157.32,41.6094Q157.87099999999998,41.75,158.50400000000002,41.75Q159.348,41.75,160.051,41.5859Q160.75400000000002,41.4219,161.375,41.1172Q161.99599999999998,40.800799999999995,162.559,40.3672Q163.13299999999998,39.9219,163.672,39.3711L163.672,35.75ZM153.324,27.9805Q154.836,26.6094,156.582,25.9297Q158.328,25.25,160.449,25.25Q161.973,25.25,163.156,25.7656Q164.352,26.2695,165.16,27.1836Q165.969,28.0859,166.379,29.375Q166.801,30.6641,166.801,32.210899999999995L166.801,44L165.383,44Q164.914,44,164.656,43.8359Q164.41,43.6602,164.26999999999998,43.1562L163.906,41.2461Q163.18,41.9023,162.5,42.418Q161.82,42.9219,161.059,43.2734Q160.309,43.625,159.453,43.8125Q158.598,44,157.555,44Q156.488,44,155.551,43.707Q154.613,43.4023,153.922,42.8047Q153.23000000000002,42.207,152.82,41.3047Q152.422,40.3906,152.422,39.136700000000005Q152.422,38.0586,153.00799999999998,37.050799999999995Q153.60500000000002,36.043,154.941,35.2695Q156.277,34.4961,158.41,34.0039Q160.555,33.5,163.672,33.5L163.672,32.011700000000005Q163.672,29.7852,162.74599999999998,28.6484Q161.832,27.5,160.074,27.5Q158.87900000000002,27.5,158.082,27.8164Q157.285,28.1211,156.699,28.5078Q156.113,28.8945,155.691,29.2109Q155.26999999999998,29.5156,154.848,29.5156Q154.531,29.5156,154.297,29.3516Q154.062,29.1875,153.898,28.9531L153.324,27.9805ZM178.145,34.25Q179.117,34.25,179.855,34.0039Q180.594,33.7578,181.098,33.3125Q181.602,32.8555,181.848,32.2344Q182.105,31.6133,182.105,30.8633Q182.105,29.3281,181.086,28.4141Q180.066,27.5,178.145,27.5Q176.199,27.5,175.18,28.4141Q174.16,29.3281,174.16,30.8633Q174.16,31.6133,174.418,32.2344Q174.688,32.8555,175.191,33.3125Q175.695,33.7578,176.434,34.0039Q177.172,34.25,178.145,34.25ZM183.922,44.1523Q183.922,43.4141,183.535,42.957Q183.16,42.4883,182.516,42.2305Q181.883,41.9727,181.039,41.8672Q180.195,41.75,179.246,41.75Q178.309,41.75,177.336,41.75Q176.363,41.75,175.461,41.6211Q174.453,42.1133,173.809,42.875Q173.176,43.6367,173.176,44.6562Q173.176,45.3125,173.492,45.875Q173.809,46.4375,174.453,46.8477Q175.098,47.2695,176.082,47.5039Q177.066,47.75,178.391,47.75Q179.691,47.75,180.711,47.4922Q181.742,47.2344,182.445,46.7539Q183.16,46.2734,183.535,45.6055Q183.922,44.9492,183.922,44.1523ZM187.18,26.2461L187.18,27.3945Q187.18,27.957,186.418,28.1211L184.355,28.3789Q184.965,29.5156,184.965,30.8867Q184.965,32.1523,184.449,33.1953Q183.934,34.238299999999995,183.031,34.976600000000005Q182.141,35.7148,180.875,36.113299999999995Q179.621,36.5,178.145,36.5Q176.867,36.5,175.73,36.1836Q175.156,36.5586,174.852,36.9805Q174.547,37.4023,174.547,37.835899999999995Q174.547,38.5039,175.074,38.8555Q175.602,39.1953,176.469,39.3477Q177.336,39.5,178.438,39.5Q179.551,39.5,180.711,39.5Q181.871,39.5,182.973,39.710899999999995Q184.086,39.9102,184.941,40.3672Q185.809,40.824200000000005,186.336,41.6445Q186.875,42.4531,186.875,43.7422Q186.875,44.9492,186.289,46.0742Q185.703,47.1992,184.602,48.0664Q183.512,48.9453,181.918,49.4727Q180.324,50,178.32,50Q176.328,50,174.828,49.5898Q173.34,49.1797,172.344,48.4883Q171.359,47.7969,170.855,46.8828Q170.363,45.9805,170.363,44.9961Q170.363,43.5898,171.207,42.6172Q172.062,41.6445,173.539,41.0703Q172.719,40.7188,172.238,40.1328Q171.77,39.5352,171.77,38.539100000000005Q171.77,38.1406,171.91,37.7305Q172.062,37.3203,172.355,36.9102Q172.648,36.488299999999995,173.082,36.125Q173.516,35.75,174.09,35.4688Q172.742,34.7539,171.98,33.5703Q171.23,32.386700000000005,171.23,30.8164Q171.23,29.5508,171.746,28.5195Q172.262,27.4883,173.176,26.7617Q174.09,26.0352,175.355,25.6484Q176.633,25.25,178.145,25.25Q179.328,25.25,180.348,25.5078Q181.379,25.7539,182.223,26.2461L187.18,26.2461ZM202.742,32.75Q202.742,31.5898,202.426,30.6289Q202.109,29.668,201.5,28.9648Q200.902,28.2617,200.035,27.8867Q199.18,27.5,198.078,27.5Q195.781,27.5,194.434,28.8945Q193.098,30.2891,192.77,32.75L202.742,32.75ZM205.332,41.375Q204.734,42.0547,203.902,42.5469Q203.082,43.0391,202.133,43.3672Q201.195,43.6836,200.188,43.8477Q199.18,44,198.184,44Q196.297,44,194.703,43.3672Q193.109,42.7227,191.949,41.4922Q190.789,40.261700000000005,190.133,38.4453Q189.488,36.6289,189.488,34.273399999999995Q189.488,32.363299999999995,190.074,30.7109Q190.66,29.0586,191.762,27.8516Q192.863,26.6328,194.445,25.9414Q196.027,25.25,198.008,25.25Q199.648,25.25,201.043,25.8242Q202.438,26.3867,203.445,27.4648Q204.465,28.5312,205.039,30.1133Q205.625,31.6836,205.625,33.699200000000005Q205.625,34.4727,205.461,34.7422Q205.297,35,204.852,35L192.664,35Q192.711,36.710899999999995,193.133,37.976600000000005Q193.566,39.2305,194.316,40.074200000000005Q195.078,40.918,196.121,41.3398Q197.164,41.75,198.453,41.75Q199.66,41.75,200.527,41.4805Q201.406,41.1992,202.039,40.8828Q202.672,40.5547,203.094,40.2852Q203.516,40.0039,203.82,40.0039Q204.219,40.0039,204.43,40.2852L205.332,41.375ZM226.66,31.25Q228.148,31.25,229.285,30.8281Q230.434,30.4062,231.219,29.6562Q232.004,28.9062,232.402,27.8633Q232.801,26.8086,232.801,25.543Q232.801,22.9414,231.277,21.476599999999998Q229.754,20,226.66,20L222.523,20L222.523,31.25L226.66,31.25ZM226.66,17.75Q229.109,17.75,230.914,18.33594Q232.719,18.910159999999998,233.902,19.976599999999998Q235.098,21.043,235.684,22.5547Q236.27,24.0547,236.27,25.918Q236.27,27.7578,235.637,29.2812Q235.016,30.8047,233.797,31.918Q232.578,33.0195,230.785,33.6406Q228.992,34.25,226.66,34.25L222.523,34.25L222.523,44L219.043,44L219.043,17.75L226.66,17.75ZM249.922,35.75Q247.707,35.75,246.148,36.0195Q244.59,36.289100000000005,243.605,36.7344Q242.633,37.168,242.188,37.7656Q241.742,38.351600000000005,241.742,39.0898Q241.742,39.793,241.977,40.2969Q242.211,40.800799999999995,242.621,41.1289Q243.031,41.457,243.57,41.6094Q244.121,41.75,244.754,41.75Q245.598,41.75,246.301,41.5859Q247.004,41.4219,247.625,41.1172Q248.246,40.800799999999995,248.809,40.3672Q249.383,39.9219,249.922,39.3711L249.922,35.75ZM239.574,27.9805Q241.086,26.6094,242.832,25.9297Q244.578,25.25,246.699,25.25Q248.223,25.25,249.406,25.7656Q250.602,26.2695,251.41,27.1836Q252.219,28.0859,252.629,29.375Q253.051,30.6641,253.051,32.210899999999995L253.051,44L251.633,44Q251.164,44,250.906,43.8359Q250.66,43.6602,250.52,43.1562L250.156,41.2461Q249.43,41.9023,248.75,42.418Q248.07,42.9219,247.309,43.2734Q246.559,43.625,245.703,43.8125Q244.848,44,243.805,44Q242.738,44,241.801,43.707Q240.863,43.4023,240.172,42.8047Q239.48,42.207,239.07,41.3047Q238.672,40.3906,238.672,39.136700000000005Q238.672,38.0586,239.258,37.050799999999995Q239.855,36.043,241.191,35.2695Q242.527,34.4961,244.66,34.0039Q246.805,33.5,249.922,33.5L249.922,32.011700000000005Q249.922,29.7852,248.996,28.6484Q248.082,27.5,246.324,27.5Q245.129,27.5,244.332,27.8164Q243.535,28.1211,242.949,28.5078Q242.363,28.8945,241.941,29.2109Q241.52,29.5156,241.098,29.5156Q240.781,29.5156,240.547,29.3516Q240.312,29.1875,240.148,28.9531L239.574,27.9805ZM268.65999999999997,28.4023Q268.438,28.7891,267.99199999999996,28.7891Q267.723,28.7891,267.38300000000004,28.5898Q267.043,28.3906,266.539,28.1562Q266.047,27.9102,265.355,27.7109Q264.676,27.5,263.738,27.5Q262.93,27.5,262.28499999999997,27.7109Q261.64099999999996,27.9219,261.172,28.2852Q260.71500000000003,28.6367,260.469,29.1172Q260.23400000000004,29.5977,260.23400000000004,30.1602Q260.23400000000004,30.8633,260.63300000000004,31.332Q261.043,31.8008,261.711,32.1523Q262.379,32.4922,263.223,32.761700000000005Q264.06600000000003,33.0195,264.957,33.324200000000005Q265.848,33.6172,266.69100000000003,33.9805Q267.547,34.3438,268.203,34.8828Q268.871,35.4219,269.27,36.2188Q269.68,37.0039,269.68,38.1055Q269.68,39.3711,269.23400000000004,40.449200000000005Q268.789,41.5156,267.898,42.3125Q267.02,43.0977,265.74199999999996,43.5547Q264.46500000000003,44,262.789,44Q260.879,44,259.332,43.4023Q257.78499999999997,42.793,256.707,41.8438L257.457,40.613299999999995Q257.60900000000004,40.3789,257.80899999999997,40.25Q258.00800000000004,40.1211,258.312,40.1211Q258.629,40.1211,258.99199999999996,40.3789Q259.355,40.625,259.85900000000004,40.9414Q260.375,41.2461,261.113,41.5039Q261.852,41.75,262.953,41.75Q263.89099999999996,41.75,264.594,41.5156Q265.297,41.2695,265.754,40.8594Q266.223,40.4375,266.445,39.898399999999995Q266.68,39.3594,266.68,38.75Q266.68,37.988299999999995,266.27,37.4961Q265.871,37.0039,265.203,36.6523Q264.53499999999997,36.300799999999995,263.68,36.043Q262.824,35.773399999999995,261.93399999999997,35.4922Q261.043,35.199200000000005,260.188,34.835899999999995Q259.332,34.460899999999995,258.664,33.9102Q258.00800000000004,33.3477,257.598,32.5273Q257.188,31.707,257.188,30.5352Q257.188,29.4922,257.621,28.5312Q258.055,27.5703,258.875,26.8438Q259.707,26.1172,260.914,25.6836Q262.121,25.25,263.668,25.25Q265.473,25.25,266.902,25.7891Q268.332,26.3164,269.375,27.2539L268.65999999999997,28.4023ZM284.40999999999997,28.4023Q284.188,28.7891,283.74199999999996,28.7891Q283.473,28.7891,283.13300000000004,28.5898Q282.793,28.3906,282.289,28.1562Q281.797,27.9102,281.105,27.7109Q280.426,27.5,279.488,27.5Q278.68,27.5,278.03499999999997,27.7109Q277.39099999999996,27.9219,276.922,28.2852Q276.46500000000003,28.6367,276.219,29.1172Q275.98400000000004,29.5977,275.98400000000004,30.1602Q275.98400000000004,30.8633,276.38300000000004,31.332Q276.793,31.8008,277.461,32.1523Q278.129,32.4922,278.973,32.761700000000005Q279.81600000000003,33.0195,280.707,33.324200000000005Q281.598,33.6172,282.44100000000003,33.9805Q283.297,34.3438,283.953,34.8828Q284.621,35.4219,285.02,36.2188Q285.43,37.0039,285.43,38.1055Q285.43,39.3711,284.98400000000004,40.449200000000005Q284.539,41.5156,283.648,42.3125Q282.77,43.0977,281.49199999999996,43.5547Q280.21500000000003,44,278.539,44Q276.629,44,275.082,43.4023Q273.53499999999997,42.793,272.457,41.8438L273.207,40.613299999999995Q273.35900000000004,40.3789,273.55899999999997,40.25Q273.75800000000004,40.1211,274.062,40.1211Q274.379,40.1211,274.74199999999996,40.3789Q275.105,40.625,275.60900000000004,40.9414Q276.125,41.2461,276.863,41.5039Q277.602,41.75,278.703,41.75Q279.64099999999996,41.75,280.344,41.5156Q281.047,41.2695,281.504,40.8594Q281.973,40.4375,282.195,39.898399999999995Q282.43,39.3594,282.43,38.75Q282.43,37.988299999999995,282.02,37.4961Q281.621,37.0039,280.953,36.6523Q280.28499999999997,36.300799999999995,279.43,36.043Q278.574,35.773399999999995,277.68399999999997,35.4922Q276.793,35.199200000000005,275.938,34.835899999999995Q275.082,34.460899999999995,274.414,33.9102Q273.75800000000004,33.3477,273.348,32.5273Q272.938,31.707,272.938,30.5352Q272.938,29.4922,273.371,28.5312Q273.805,27.5703,274.625,26.8438Q275.457,26.1172,276.664,25.6836Q277.871,25.25,279.418,25.25Q281.223,25.25,282.652,25.7891Q284.082,26.3164,285.125,27.2539L284.40999999999997,28.4023ZM292.918,25.25L292.918,44L289.719,44L289.719,25.25L292.918,25.25ZM293.609,19.273400000000002Q293.609,19.7305,293.41,20.1289Q293.223,20.5273,292.906,20.8438Q292.602,21.148400000000002,292.18,21.324199999999998Q291.75800000000004,21.5,291.289,21.5Q290.82,21.5,290.40999999999997,21.324199999999998Q290.012,21.148400000000002,289.695,20.8438Q289.39099999999996,20.5273,289.21500000000003,20.1289Q289.039,19.7305,289.039,19.273400000000002Q289.039,18.80469,289.21500000000003,18.39453Q289.39099999999996,17.972659999999998,289.695,17.66797Q290.012,17.35156,290.40999999999997,17.17578Q290.82,17,291.289,17Q291.75800000000004,17,292.18,17.17578Q292.602,17.35156,292.906,17.66797Q293.223,17.972659999999998,293.41,18.39453Q293.609,18.80469,293.609,19.273400000000002ZM301.566,27.8984Q302.152,27.2305,302.82,26.6914Q303.488,26.1523,304.227,25.7656Q304.977,25.3789,305.809,25.3203Q306.652,25.25,307.625,25.25Q309.125,25.25,310.262,25.7539Q311.41,26.2578,312.172,27.1836Q312.934,28.0977,313.332,29.3867Q313.73,30.6758,313.73,32.2461L313.73,44L310.508,44L310.508,32Q310.508,29.8672,309.559,28.6836Q308.621,27.5,306.688,27.5Q305.27,27.5,304.039,28.2266Q302.809,28.9531,301.766,30.1953L301.766,44L298.543,44L298.543,25.25L300.465,25.25Q301.145,25.25,301.309,25.918L301.566,27.8984ZM325.145,34.25Q326.117,34.25,326.855,34.0039Q327.594,33.7578,328.098,33.3125Q328.602,32.8555,328.848,32.2344Q329.105,31.6133,329.105,30.8633Q329.105,29.3281,328.086,28.4141Q327.066,27.5,325.145,27.5Q323.199,27.5,322.18,28.4141Q321.16,29.3281,321.16,30.8633Q321.16,31.6133,321.418,32.2344Q321.688,32.8555,322.191,33.3125Q322.695,33.7578,323.434,34.0039Q324.172,34.25,325.145,34.25ZM330.922,44.1523Q330.922,43.4141,330.535,42.957Q330.16,42.4883,329.516,42.2305Q328.883,41.9727,328.039,41.8672Q327.195,41.75,326.246,41.75Q325.309,41.75,324.336,41.75Q323.363,41.75,322.461,41.6211Q321.453,42.1133,320.809,42.875Q320.176,43.6367,320.176,44.6562Q320.176,45.3125,320.492,45.875Q320.809,46.4375,321.453,46.8477Q322.098,47.2695,323.082,47.5039Q324.066,47.75,325.391,47.75Q326.691,47.75,327.711,47.4922Q328.742,47.2344,329.445,46.7539Q330.16,46.2734,330.535,45.6055Q330.922,44.9492,330.922,44.1523ZM334.18,26.2461L334.18,27.3945Q334.18,27.957,333.418,28.1211L331.355,28.3789Q331.965,29.5156,331.965,30.8867Q331.965,32.1523,331.449,33.1953Q330.934,34.238299999999995,330.031,34.976600000000005Q329.141,35.7148,327.875,36.113299999999995Q326.621,36.5,325.145,36.5Q323.867,36.5,322.73,36.1836Q322.156,36.5586,321.852,36.9805Q321.547,37.4023,321.547,37.835899999999995Q321.547,38.5039,322.074,38.8555Q322.602,39.1953,323.469,39.3477Q324.336,39.5,325.438,39.5Q326.551,39.5,327.711,39.5Q328.871,39.5,329.973,39.710899999999995Q331.086,39.9102,331.941,40.3672Q332.809,40.824200000000005,333.336,41.6445Q333.875,42.4531,333.875,43.7422Q333.875,44.9492,333.289,46.0742Q332.703,47.1992,331.602,48.0664Q330.512,48.9453,328.918,49.4727Q327.324,50,325.32,50Q323.328,50,321.828,49.5898Q320.34,49.1797,319.344,48.4883Q318.359,47.7969,317.855,46.8828Q317.363,45.9805,317.363,44.9961Q317.363,43.5898,318.207,42.6172Q319.062,41.6445,320.539,41.0703Q319.719,40.7188,319.238,40.1328Q318.77,39.5352,318.77,38.539100000000005Q318.77,38.1406,318.91,37.7305Q319.062,37.3203,319.355,36.9102Q319.648,36.488299999999995,320.082,36.125Q320.516,35.75,321.09,35.4688Q319.742,34.7539,318.98,33.5703Q318.23,32.386700000000005,318.23,30.8164Q318.23,29.5508,318.746,28.5195Q319.262,27.4883,320.176,26.7617Q321.09,26.0352,322.355,25.6484Q323.633,25.25,325.145,25.25Q326.328,25.25,327.348,25.5078Q328.379,25.7539,329.223,26.2461L334.18,26.2461ZM354.219,25.25Q356.223,25.25,357.816,25.918Q359.422,26.5859,360.559,27.8047Q361.695,29.0234,362.293,30.7578Q362.902,32.4922,362.902,34.636700000000005Q362.902,36.793,362.293,38.5156Q361.695,40.238299999999995,360.559,41.4688Q359.422,42.6875,357.816,43.3438Q356.223,44,354.219,44Q352.203,44,350.586,43.3438Q348.98,42.6875,347.844,41.4688Q346.719,40.238299999999995,346.109,38.5156Q345.512,36.793,345.512,34.636700000000005Q345.512,32.4922,346.109,30.7578Q346.719,29.0234,347.844,27.8047Q348.98,26.5859,350.586,25.918Q352.203,25.25,354.219,25.25ZM354.219,41.75Q356.926,41.75,358.25,39.875Q359.586,38,359.586,34.648399999999995Q359.586,31.2734,358.25,29.3867Q356.926,27.5,354.219,27.5Q352.859,27.5,351.84,27.9922Q350.82,28.4727,350.141,29.3867Q349.473,30.3008,349.133,31.6367Q348.805,32.960899999999995,348.805,34.648399999999995Q348.805,38,350.141,39.875Q351.488,41.75,354.219,41.75ZM369.816,27.8984Q370.402,27.2305,371.07,26.6914Q371.738,26.1523,372.477,25.7656Q373.227,25.3789,374.059,25.3203Q374.902,25.25,375.875,25.25Q377.375,25.25,378.512,25.7539Q379.66,26.2578,380.422,27.1836Q381.184,28.0977,381.582,29.3867Q381.98,30.6758,381.98,32.2461L381.98,44L378.758,44L378.758,32Q378.758,29.8672,377.809,28.6836Q376.871,27.5,374.938,27.5Q373.52,27.5,372.289,28.2266Q371.059,28.9531,370.016,30.1953L370.016,44L366.793,44L366.793,25.25L368.715,25.25Q369.395,25.25,369.559,25.918L369.816,27.8984Z" fill="#3D3D3D" fill-opacity="1"/><path d="M417.852,30.5L417.852,41.2812Q415.871,42.6875,413.633,43.3438Q411.395,44,408.84,44Q405.652,44,403.062,43.0273Q400.484,42.043,398.656,40.3086Q396.828,38.5625,395.832,36.148399999999995Q394.848,33.7344,394.848,30.875Q394.848,27.9805,395.797,25.5664Q396.758,23.1523,398.516,21.418Q400.273,19.6719,402.77,18.71094Q405.277,17.75,408.383,17.75Q409.965,17.75,411.336,17.98438Q412.719,18.20703,413.902,18.61719Q415.086,19.0156,416.059,19.5898Q417.031,20.164099999999998,417.84,20.8555L416.445,22.976599999999998Q416.129,23.5039,415.602,23.6211Q415.086,23.738300000000002,414.465,23.351599999999998Q413.879,23.011699999999998,413.281,22.6719Q412.684,22.332,411.957,22.085900000000002Q411.23,21.8281,410.316,21.664099999999998Q409.414,21.5,408.219,21.5Q406.297,21.5,404.738,22.1562Q403.18,22.800800000000002,402.078,24.0195Q400.988,25.2266,400.391,26.9375Q399.805,28.6367,399.805,30.7344Q399.805,32.9844,400.438,34.7539Q401.082,36.523399999999995,402.242,37.7422Q403.402,38.960899999999995,405.031,39.6055Q406.672,40.25,408.688,40.25Q410.129,40.25,411.266,39.9453Q412.402,39.6289,413.48,39.0898L413.48,34.25L410.199,34.25Q409.73,34.25,409.473,33.9805Q409.215,33.710899999999995,409.215,33.324200000000005L409.215,30.5L417.852,30.5ZM426.137,28.4492Q427.004,26.7969,428.188,26.0234Q429.383,25.25,431,25.25Q432.277,25.25,433.051,25.4961L432.77,28.6133Q432.676,28.918,432.5,29.0469Q432.336,29.1758,432.043,29.1758Q431.773,29.1758,431.234,29.0938Q430.707,29,430.203,29Q429.465,29,428.891,29.2227Q428.316,29.4453,427.859,29.8789Q427.402,30.3008,427.051,30.8984Q426.699,31.4961,426.395,32.2695L426.395,44L421.941,44L421.941,25.25L424.555,25.25Q425.234,25.25,425.504,25.4961Q425.785,25.7422,425.867,26.3633L426.137,28.4492ZM445.203,35.75Q443.281,35.75,441.957,36.0078Q440.645,36.2539,439.848,36.6523Q439.062,37.050799999999995,438.723,37.5781Q438.383,38.1055,438.383,38.726600000000005Q438.383,39.9453,439.074,40.4727Q439.766,41,440.879,41Q442.25,41,443.246,40.4961Q444.242,39.9805,445.203,38.949200000000005L445.203,35.75ZM435.02,28.1094Q438.195,25.25,442.684,25.25Q444.301,25.25,445.578,25.7773Q446.855,26.3047,447.734,27.2539Q448.625,28.1914,449.082,29.5039Q449.539,30.8164,449.539,32.375L449.539,44L447.523,44Q446.891,44,446.551,43.8008Q446.211,43.5898,446.012,42.9688L445.613,41.5391Q444.91,42.1367,444.242,42.5938Q443.586,43.0508,442.859,43.3672Q442.145,43.6719,441.324,43.8359Q440.504,44,439.52,44Q438.348,44,437.352,43.6719Q436.367,43.3438,435.641,42.6875Q434.926,42.0312,434.527,41.0586Q434.129,40.085899999999995,434.129,38.7969Q434.129,38.0703,434.363,37.3555Q434.598,36.6289,435.125,35.9727Q435.664,35.3164,436.508,34.7422Q437.352,34.1562,438.582,33.7227Q439.824,33.289100000000005,441.453,33.0195Q443.094,32.75,445.203,32.75L445.203,31.8945Q445.203,30.418,444.406,29.7148Q443.621,29,442.121,29Q441.043,29,440.328,29.1992Q439.625,29.3984,439.086,29.6445Q438.547,29.8906,438.102,30.0898Q437.656,30.2891,437.117,30.2891Q436.648,30.2891,436.32,30.0547Q436.004,29.8086,435.805,29.4922L435.02,28.1094ZM457.895,38.7031Q458.645,39.5469,459.535,39.898399999999995Q460.426,40.25,461.469,40.25Q462.477,40.25,463.285,39.898399999999995Q464.105,39.5469,464.668,38.832Q465.23,38.1172,465.535,37.039100000000005Q465.852,35.949200000000005,465.852,34.4727Q465.852,32.9727,465.582,31.9414Q465.324,30.8984,464.832,30.2539Q464.352,29.5977,463.66,29.3047Q462.969,29,462.09,29Q460.695,29,459.723,29.5508Q458.762,30.0898,457.895,31.0742L457.895,38.7031ZM457.66,27.7695Q458.797,26.4922,460.227,25.8711Q461.668,25.25,463.613,25.25Q465.125,25.25,466.379,25.8711Q467.633,26.4922,468.535,27.6641Q469.449,28.8359,469.941,30.5703Q470.434,32.293,470.434,34.5195Q470.434,36.5586,469.871,38.293Q469.32,40.0156,468.277,41.293Q467.246,42.5703,465.781,43.2852Q464.316,44,462.5,44Q460.953,44,459.852,43.4727Q458.762,42.9453,457.895,42.0078L457.895,50L453.441,50L453.441,25.25L456.16,25.25Q457.027,25.25,457.297,26.0586L457.66,27.7695ZM478.145,27.7227Q479.223,26.6211,480.512,25.9414Q481.812,25.25,483.559,25.25Q485.07,25.25,486.242,25.7656Q487.414,26.2812,488.188,27.207Q488.973,28.1328,489.383,29.4219Q489.793,30.6992,489.793,32.2461L489.793,44L485.34,44L485.34,32.4805Q485.34,30.8164,484.566,29.9141Q483.793,29,482.211,29Q481.062,29,480.055,29.5625Q479.047,30.1133,478.145,31.0625L478.145,44L473.691,44L473.691,17L478.145,17L478.145,27.7227Z" fill="#1E4AD4" fill-opacity="1"/></g><g style="mix-blend-mode:passthrough"><path d="M333,185L210,185L210,181L333,181L333,185Z" fill="#000000" fill-opacity="1"/></g><g style="mix-blend-mode:passthrough"><path d="M333,295L210,295L210,291L333,291L333,295Z" fill="#000000" fill-opacity="1"/></g><g style="mix-blend-mode:passthrough"><path d="M280,403L251,403L251,401L280,401L280,403ZM289,402L278.9541,407.8L278.9541,396.2L289,402Z" fill="#000000" fill-opacity="1"/></g><g style="mix-blend-mode:passthrough" transform="matrix(0.9999478459358215,-0.012447524815797806,0.012447524815797806,0.9999478459358215,-2.0863938715647237,2.2617833558178972)"><ellipse cx="196.00342464447021" cy="183.37695980072021" rx="15.003424644470215" ry="15.003424644470215" fill="#82318E" fill-opacity="1"/></g><g style="mix-blend-mode:passthrough" transform="matrix(0.9999478459358215,-0.012447524815797806,0.012447524815797806,0.9999478459358215,-3.4556216013024823,2.2675203028775286)"><ellipse cx="196.00342464447021" cy="293.3769598007202" rx="15.003424644470215" ry="15.003424644470215" fill="#82318E" fill-opacity="1"/></g><g style="mix-blend-mode:passthrough" transform="matrix(0.9999478459358215,-0.012447524815797806,0.012447524815797806,0.9999478459358215,-2.0785707619379536,4.128912078187568)"><ellipse cx="346.0034246444702" cy="183.37695980072021" rx="15.003424644470215" ry="15.003424644470215" fill="#82318E" fill-opacity="1"/></g><g style="mix-blend-mode:passthrough" transform="matrix(0.9999478459358215,-0.012447524815797806,0.012447524815797806,0.9999478459358215,-3.4477984916757123,4.1346490252471995)"><ellipse cx="346.0034246444702" cy="293.3769598007202" rx="15.003424644470215" ry="15.003424644470215" fill="#82318E" fill-opacity="1"/></g></g></svg>