<svg xmlns="http://www.w3.org/2000/svg" xmlns:xlink="http://www.w3.org/1999/xlink" fill="none" version="1.1" width="989" height="439" viewBox="0 0 989 439"><g style="mix-blend-mode:passthrough"><g><g style="mix-blend-mode:passthrough"><ellipse cx="652.5" cy="259.5" rx="38.5" ry="119.5" fill="#F5F5F5" fill-opacity="1"/><path d="M637.0524,150.0411Q639.312,146.96886,641.6794,144.81686L643.0246,146.29681Q640.8049,148.31458,638.6635,151.226L637.0524,150.0411ZM630.1498,162.198Q631.668,158.8382,633.2837,155.9496L635.0292,156.9259Q633.4553,159.7398,631.9724,163.0216L630.1498,162.198ZM625.1823,175.2939Q626.2899,171.832,627.4847,168.662L629.3562,169.3674Q628.1793,172.4899,627.0872,175.9033L625.1823,175.2939ZM621.46338,188.7898Q622.29045,185.2924,623.19706,181.9903L625.1257,182.5199Q624.2285,185.7875,623.4097,189.2501L621.46338,188.7898ZM618.66234,202.49779999999998Q619.27554,198.9909,619.96274,195.6188L621.92246,196.0182Q621.24085,199.3629,620.63245,202.8423L618.66234,202.49779999999998ZM616.59733,216.35160000000002Q617.03741,212.8237,617.5485,209.3893L619.52672,209.6837Q619.0191,213.09480000000002,618.58195,216.5992L616.59733,216.35160000000002ZM615.16792,230.2895Q615.45404,226.7665,615.80859,223.3039L617.79819,223.5077Q617.44578,226.9493,617.16135,230.4514L615.16792,230.2895ZM614.313458,244.28199999999998Q614.459245,240.75799999999998,614.672244,237.2663L616.66853,237.3881Q616.45673,240.86,616.31175,244.365L614.313458,244.28199999999998ZM614.00204193,258.269Q614.0136502,254.77100000000002,614.091173,251.281L616.09068,251.325Q616.01358,254.797,616.00203,258.276L614.00204193,258.269ZM614.219139,272.23199999999997Q614.0982042,268.72900000000004,614.0439706,265.21L616.04373,265.179Q616.09767,268.679,616.21795,272.163L614.219139,272.23199999999997ZM614.97464,286.21799999999996Q614.717837,282.743,614.528228,279.227L616.52533,279.12Q616.71386,282.616,616.9692,286.071L614.97464,286.21799999999996ZM616.29881,300.174Q615.89654,296.725,615.56319,293.206L617.55428,293.017Q617.88559,296.515,618.28534,299.943L616.29881,300.174ZM618.24265,314.034Q617.68128,310.63599999999997,617.19094,307.134L619.17161,306.85699999999997Q619.65852,310.334,620.21589,313.70799999999997L618.24265,314.034ZM620.90557,327.789Q620.15319,324.435,619.47638,320.93L621.44011,320.551Q622.11125,324.026,622.85706,327.351L620.90557,327.789ZM624.4449,341.337Q623.45546,338.06899999999996,622.54768,334.58000000000004L624.4832,334.077Q625.3811,337.527,626.3591,340.75800000000004L624.4449,341.337ZM629.1531,354.52Q627.8414,351.416,626.6201,347.974L628.505,347.305Q629.7067,350.69100000000003,630.9955,353.74199999999996L629.1531,354.52ZM635.6284,366.91499999999996Q633.8184,364.175,632.1102,360.865L633.8875,359.948Q635.5463,363.163,637.297,365.812L635.6284,366.91499999999996ZM645.2764,376.878Q642.539,375.255,639.9056,372.425L641.3696,371.063Q643.8069,373.68100000000004,646.2964,375.15700000000004L645.2764,376.878ZM658.6201,377.481Q655.5796,379,652.5,379Q652.1902,379,651.8805,378.985L651.9804,376.98699999999997Q652.2401,377,652.5,377Q655.1077,377,657.726,375.69100000000003L658.6201,377.481ZM668.6793,367.93600000000004Q666.5023,371.065,664.217,373.331L662.8087,371.911Q664.9645,369.773,667.0375,366.794L668.6793,367.93600000000004ZM675.3606,355.653Q673.8844,359.034,672.3112,361.96500000000003L670.5491,361.019Q672.0838,358.15999999999997,673.5277,354.853L675.3606,355.653ZM680.189,342.529Q679.1138,345.98400000000004,677.9528,349.159L676.0744,348.473Q677.2188,345.34299999999996,678.2794,341.935L680.189,342.529ZM683.819,329Q683.0145,332.493,682.1314,335.797L680.1992,335.281Q681.0734,332.01,681.87,328.551L683.819,329ZM686.5506,315.267Q685.9537,318.778,685.283,322.159L683.3212,321.77Q683.9866,318.416,684.5789,314.932L686.5506,315.267ZM688.5543,301.413Q688.1289,304.93899999999996,687.6327,308.374L685.6533,308.089Q686.1461,304.676,686.5687,301.173L688.5543,301.413ZM689.931,287.464Q689.6579,290.98699999999997,689.3165,294.451L687.3261,294.255Q687.6655,290.81100000000004,687.937,287.31L689.931,287.464ZM690.7359,273.473Q690.6024,276.994,690.4018,280.483L688.4051,280.368Q688.6045,276.899,688.7373,273.398L690.7359,273.473ZM691,259.5Q691,262.984,690.9346,266.462L688.935,266.425Q689,262.96500000000003,689,259.5L691,259.5ZM690.8215,248.006Q690.9308,251.51600000000002,690.9732,255.039L688.9733,255.063Q688.9311,251.559,688.8225,248.06900000000002L690.8215,248.006ZM690.1151,234.02679999999998Q690.3598,237.507,690.5372,241.026L688.5397,241.127Q688.3633,237.6275,688.12,234.1671L690.1151,234.02679999999998ZM688.8433,220.0655Q689.2323,223.5192,689.5525,227.0404L687.5607,227.2215Q687.2424,223.7215,686.8559,220.2893L688.8433,220.0655ZM686.9562,206.187Q687.5039,209.59730000000002,687.9805,213.10899999999998L685.9987,213.3779Q685.5253,209.89,684.9815,206.5042L686.9562,206.187ZM684.3647,192.4322Q685.0996,195.79579999999999,685.7591,199.3066L683.7935,199.6759Q683.1394,196.1938,682.4108,192.8591L684.3647,192.4322ZM680.9156,178.8703Q681.878,182.1378,682.7598,185.6173L680.8211,186.1086Q679.9487,182.6663,678.9971,179.43529999999998L680.9156,178.8703ZM676.3278,165.6367Q677.6017,168.7524,678.7868,172.18959999999998L676.896,172.8415Q675.7293,169.4574,674.4766,166.3936L676.3278,165.6367ZM670.0594,153.1528Q671.8116,155.9402,673.4632,159.2679L671.6716,160.157Q670.0649,156.9194,668.3662,154.2172L670.0594,153.1528ZM660.7697000000001,142.78931Q663.397,144.58281,665.9184,147.49295L664.4069,148.8026Q662.0553,146.08845,659.6421,144.44113L660.7697000000001,142.78931ZM654.3647,140.140239L654.067,142.11796Q653.2832,142,652.5,142Q650.384,142,648.2604,142.86185L647.5083,141.00867Q649.9936,140,652.5,140Q653.4329,140,654.3647,140.140239Z" fill-rule="evenodd" fill="#000000" fill-opacity="1"/></g><g style="mix-blend-mode:passthrough"><ellipse cx="119" cy="201" rx="23" ry="31" fill="#F5F5F5" fill-opacity="1"/><path d="M104.959,176.44698Q106.2243,175.13246,107.6123,174.06635Q109.0004,173.00024,110.4844,172.20302L111.4309,173.96489Q108.7251,175.41846,106.3999,177.83398L104.959,176.44698ZM97.9664,188.4582Q99.09219,185.0283,100.79238,182.0592L102.52796000000001,183.0531Q100.92895,185.8454,99.86664999999999,189.0819L97.9664,188.4582ZM96.0185069,202.2433Q96,201.6219,96,201Q96,198.1115,96.395938,195.2727L98.37676,195.549Q98,198.2503,98,201Q98,201.5921,98.01762,202.1838L96.0185069,202.2433ZM98.83111,215.9004Q97.53328,212.7091,96.819105,209.1994L98.77894,208.8006Q99.45602,212.128,100.68377,215.147L98.83111,215.9004ZM106.7882,227.2696Q105.5011,226.1826,104.3312,224.8769Q103.16131,223.5713,102.12896,222.0696L103.77708,220.9366Q105.69851,223.73160000000001,108.0786,225.7415L106.7882,227.2696ZM119.6193,231.9888Q119.30969999999999,232,119,232Q117.4197,232,115.85419999999999,231.7087Q114.2888,231.4174,112.7676,230.8402L113.47710000000001,228.9703Q116.1911,230,119,230Q119.2734,230,119.5468,229.99009999999998L119.6193,231.9888ZM132.1472,226.4361Q130.8155,227.6866,129.3666,228.6726Q127.9177,229.6586,126.38040000000001,230.3606L125.5496,228.5413Q128.3408,227.2668,130.7782,224.97809999999998L132.1472,226.4361ZM139.62189999999998,214.7278Q138.37709999999998,218.1249,136.5618,221.0179L134.8677,219.9549Q136.57139999999998,217.2397,137.744,214.0396L139.62189999999998,214.7278ZM141.9248,198.4955Q142,199.7457,142,201Q142,204.526,141.4125,207.9619L139.4411,207.6248Q140,204.3562,140,201Q140,199.8058,139.9284,198.6156L141.9248,198.4955ZM138.675,184.9448Q140.0841,188.0818,140.91129999999998,191.5754L138.9651,192.0362Q138.1818,188.7278,136.8506,185.7643L138.675,184.9448ZM130.228,173.94485Q131.5745,174.96001,132.8084,176.20847Q134.0422,177.45693,135.1413,178.91632L133.5437,180.1195Q131.5047,177.41209,129.024,175.54184L130.228,173.94485ZM124.035,170.75193L123.45609999999999,172.66632Q121.2526,172,119,172Q118.1703,172,117.34309999999999,172.09125L117.1238,170.103313Q118.0603,170,119,170Q121.5484,170,124.035,170.75193Z" fill-rule="evenodd" fill="#000000" fill-opacity="1"/></g><g style="mix-blend-mode:passthrough"><ellipse cx="269" cy="201" rx="23" ry="31" fill="#F5F5F5" fill-opacity="1"/><path d="M254.959,176.44698Q256.22429999999997,175.13246,257.6123,174.06635Q259.0004,173.00024,260.4844,172.20302L261.4309,173.96489Q258.7251,175.41846,256.3999,177.83398L254.959,176.44698ZM247.9664,188.4582Q249.09219,185.0283,250.79238,182.0592L252.52796,183.0531Q250.92895,185.8454,249.86665,189.0819L247.9664,188.4582ZM246.0185069,202.2433Q246,201.6219,246,201Q246,198.1115,246.395938,195.2727L248.37676,195.549Q248,198.2503,248,201Q248,201.5921,248.01762,202.1838L246.0185069,202.2433ZM248.83111,215.9004Q247.53328,212.7091,246.819105,209.1994L248.77894,208.8006Q249.45602,212.128,250.68377,215.147L248.83111,215.9004ZM256.7882,227.2696Q255.5011,226.1826,254.3312,224.8769Q253.16131000000001,223.5713,252.12896,222.0696L253.77708,220.9366Q255.69851,223.73160000000001,258.0786,225.7415L256.7882,227.2696ZM269.6193,231.9888Q269.3097,232,269,232Q267.4197,232,265.8542,231.7087Q264.2888,231.4174,262.7676,230.8402L263.4771,228.9703Q266.1911,230,269,230Q269.2734,230,269.5468,229.99009999999998L269.6193,231.9888ZM282.1472,226.4361Q280.8155,227.6866,279.3666,228.6726Q277.9177,229.6586,276.3804,230.3606L275.5496,228.5413Q278.3408,227.2668,280.77819999999997,224.97809999999998L282.1472,226.4361ZM289.6219,214.7278Q288.3771,218.1249,286.5618,221.0179L284.8677,219.9549Q286.5714,217.2397,287.744,214.0396L289.6219,214.7278ZM291.9248,198.4955Q292,199.7457,292,201Q292,204.526,291.4125,207.9619L289.4411,207.6248Q290,204.3562,290,201Q290,199.8058,289.9284,198.6156L291.9248,198.4955ZM288.675,184.9448Q290.0841,188.0818,290.9113,191.5754L288.9651,192.0362Q288.1818,188.7278,286.8506,185.7643L288.675,184.9448ZM280.228,173.94485Q281.5745,174.96001,282.8084,176.20847Q284.0422,177.45693,285.1413,178.91632L283.5437,180.1195Q281.5047,177.41209,279.024,175.54184L280.228,173.94485ZM274.035,170.75193L273.4561,172.66632Q271.25260000000003,172,269,172Q268.1703,172,267.3431,172.09125L267.1238,170.103313Q268.0603,170,269,170Q271.5484,170,274.035,170.75193Z" fill-rule="evenodd" fill="#000000" fill-opacity="1"/></g><g style="mix-blend-mode:passthrough"><ellipse cx="269" cy="311" rx="23" ry="31" fill="#F5F5F5" fill-opacity="1"/><path d="M254.959,286.44698Q256.22429999999997,285.13246,257.6123,284.06635Q259.0004,283.00024,260.4844,282.20302L261.4309,283.96489Q258.7251,285.41846,256.3999,287.83398L254.959,286.44698ZM247.9664,298.4582Q249.09219,295.0283,250.79238,292.0592L252.52796,293.0531Q250.92895,295.8454,249.86665,299.0819L247.9664,298.4582ZM246.0185069,312.2433Q246,311.6219,246,311Q246,308.1115,246.395938,305.2727L248.37676,305.549Q248,308.2503,248,311Q248,311.5921,248.01762,312.1838L246.0185069,312.2433ZM248.83111,325.9004Q247.53328,322.7091,246.819105,319.19939999999997L248.77894,318.80060000000003Q249.45602,322.128,250.68377,325.147L248.83111,325.9004ZM256.7882,337.26959999999997Q255.5011,336.1826,254.3312,334.8769Q253.16131000000001,333.5713,252.12896,332.0696L253.77708,330.9366Q255.69851,333.7316,258.0786,335.7415L256.7882,337.26959999999997ZM269.6193,341.98879999999997Q269.3097,342,269,342Q267.4197,342,265.8542,341.7087Q264.2888,341.4174,262.7676,340.8402L263.4771,338.9703Q266.1911,340,269,340Q269.2734,340,269.5468,339.9901L269.6193,341.98879999999997ZM282.1472,336.4361Q280.8155,337.6866,279.3666,338.6726Q277.9177,339.6586,276.3804,340.3606L275.5496,338.5413Q278.3408,337.2668,280.77819999999997,334.9781L282.1472,336.4361ZM289.6219,324.7278Q288.3771,328.1249,286.5618,331.0179L284.8677,329.9549Q286.5714,327.23969999999997,287.744,324.0396L289.6219,324.7278ZM291.9248,308.4955Q292,309.7457,292,311Q292,314.526,291.4125,317.9619L289.4411,317.6248Q290,314.3562,290,311Q290,309.8058,289.9284,308.6156L291.9248,308.4955ZM288.675,294.9448Q290.0841,298.0818,290.9113,301.5754L288.9651,302.0362Q288.1818,298.7278,286.8506,295.7643L288.675,294.9448ZM280.228,283.94485Q281.5745,284.96001,282.8084,286.20847Q284.0422,287.45693,285.1413,288.91632L283.5437,290.1195Q281.5047,287.41209,279.024,285.54184L280.228,283.94485ZM274.035,280.75193L273.4561,282.66632Q271.25260000000003,282,269,282Q268.1703,282,267.3431,282.09125L267.1238,280.103313Q268.0603,280,269,280Q271.5484,280,274.035,280.75193Z" fill-rule="evenodd" fill="#000000" fill-opacity="1"/></g><g style="mix-blend-mode:passthrough"><ellipse cx="119" cy="311" rx="23" ry="31" fill="#F5F5F5" fill-opacity="1"/><path d="M104.959,286.44698Q106.2243,285.13246,107.6123,284.06635Q109.0004,283.00024,110.4844,282.20302L111.4309,283.96489Q108.7251,285.41846,106.3999,287.83398L104.959,286.44698ZM97.9664,298.4582Q99.09219,295.0283,100.79238,292.0592L102.52796000000001,293.0531Q100.92895,295.8454,99.86664999999999,299.0819L97.9664,298.4582ZM96.0185069,312.2433Q96,311.6219,96,311Q96,308.1115,96.395938,305.2727L98.37676,305.549Q98,308.2503,98,311Q98,311.5921,98.01762,312.1838L96.0185069,312.2433ZM98.83111,325.9004Q97.53328,322.7091,96.819105,319.19939999999997L98.77894,318.80060000000003Q99.45602,322.128,100.68377,325.147L98.83111,325.9004ZM106.7882,337.26959999999997Q105.5011,336.1826,104.3312,334.8769Q103.16131,333.5713,102.12896,332.0696L103.77708,330.9366Q105.69851,333.7316,108.0786,335.7415L106.7882,337.26959999999997ZM119.6193,341.98879999999997Q119.30969999999999,342,119,342Q117.4197,342,115.85419999999999,341.7087Q114.2888,341.4174,112.7676,340.8402L113.47710000000001,338.9703Q116.1911,340,119,340Q119.2734,340,119.5468,339.9901L119.6193,341.98879999999997ZM132.1472,336.4361Q130.8155,337.6866,129.3666,338.6726Q127.9177,339.6586,126.38040000000001,340.3606L125.5496,338.5413Q128.3408,337.2668,130.7782,334.9781L132.1472,336.4361ZM139.62189999999998,324.7278Q138.37709999999998,328.1249,136.5618,331.0179L134.8677,329.9549Q136.57139999999998,327.23969999999997,137.744,324.0396L139.62189999999998,324.7278ZM141.9248,308.4955Q142,309.7457,142,311Q142,314.526,141.4125,317.9619L139.4411,317.6248Q140,314.3562,140,311Q140,309.8058,139.9284,308.6156L141.9248,308.4955ZM138.675,294.9448Q140.0841,298.0818,140.91129999999998,301.5754L138.9651,302.0362Q138.1818,298.7278,136.8506,295.7643L138.675,294.9448ZM130.228,283.94485Q131.5745,284.96001,132.8084,286.20847Q134.0422,287.45693,135.1413,288.91632L133.5437,290.1195Q131.5047,287.41209,129.024,285.54184L130.228,283.94485ZM124.035,280.75193L123.45609999999999,282.66632Q121.2526,282,119,282Q118.1703,282,117.34309999999999,282.09125L117.1238,280.103313Q118.0603,280,119,280Q121.5484,280,124.035,280.75193Z" fill-rule="evenodd" fill="#000000" fill-opacity="1"/></g><g style="mix-blend-mode:passthrough"><ellipse cx="874.5" cy="259.5" rx="38.5" ry="119.5" fill="#000000" fill-opacity="0.03999999910593033"/><path d="M859.0524,150.0411Q861.312,146.96886,863.6794,144.81686L865.0246,146.29681Q862.8049,148.31458,860.6635,151.226L859.0524,150.0411ZM852.1498,162.198Q853.668,158.8382,855.2837,155.9496L857.0292,156.9259Q855.4553,159.7398,853.9724,163.0216L852.1498,162.198ZM847.1823,175.2939Q848.2899,171.832,849.4847,168.662L851.3562,169.3674Q850.1793,172.4899,849.0872,175.9033L847.1823,175.2939ZM843.46338,188.7898Q844.29045,185.2924,845.19706,181.9903L847.1257,182.5199Q846.2285,185.7875,845.4097,189.2501L843.46338,188.7898ZM840.66234,202.49779999999998Q841.27554,198.9909,841.96274,195.6188L843.92246,196.0182Q843.24085,199.3629,842.63245,202.8423L840.66234,202.49779999999998ZM838.59733,216.35160000000002Q839.03741,212.8237,839.5485,209.3893L841.52672,209.6837Q841.0191,213.09480000000002,840.58195,216.5992L838.59733,216.35160000000002ZM837.16792,230.2895Q837.45404,226.7665,837.80859,223.3039L839.79819,223.5077Q839.44578,226.9493,839.16135,230.4514L837.16792,230.2895ZM836.313458,244.28199999999998Q836.459245,240.75799999999998,836.672244,237.2663L838.66853,237.3881Q838.45673,240.86,838.31175,244.365L836.313458,244.28199999999998ZM836.00204193,258.269Q836.0136502,254.77100000000002,836.091173,251.281L838.09068,251.325Q838.01358,254.797,838.00203,258.276L836.00204193,258.269ZM836.219139,272.23199999999997Q836.0982042,268.72900000000004,836.0439706,265.21L838.04373,265.179Q838.09767,268.679,838.21795,272.163L836.219139,272.23199999999997ZM836.97464,286.21799999999996Q836.717837,282.743,836.528228,279.227L838.52533,279.12Q838.71386,282.616,838.9692,286.071L836.97464,286.21799999999996ZM838.29881,300.174Q837.89654,296.725,837.56319,293.206L839.55428,293.017Q839.88559,296.515,840.28534,299.943L838.29881,300.174ZM840.24265,314.034Q839.68128,310.63599999999997,839.19094,307.134L841.17161,306.85699999999997Q841.65852,310.334,842.21589,313.70799999999997L840.24265,314.034ZM842.90557,327.789Q842.15319,324.435,841.47638,320.93L843.44011,320.551Q844.11125,324.026,844.85706,327.351L842.90557,327.789ZM846.4449,341.337Q845.45546,338.06899999999996,844.54768,334.58000000000004L846.4832,334.077Q847.3811,337.527,848.3591,340.75800000000004L846.4449,341.337ZM851.1531,354.52Q849.8414,351.416,848.6201,347.974L850.505,347.305Q851.7067,350.69100000000003,852.9955,353.74199999999996L851.1531,354.52ZM857.6284,366.91499999999996Q855.8184,364.175,854.1102,360.865L855.8875,359.948Q857.5463,363.163,859.297,365.812L857.6284,366.91499999999996ZM867.2764,376.878Q864.539,375.255,861.9056,372.425L863.3696,371.063Q865.8069,373.68100000000004,868.2964,375.15700000000004L867.2764,376.878ZM880.6201,377.481Q877.5796,379,874.5,379Q874.1902,379,873.8805,378.985L873.9804,376.98699999999997Q874.2401,377,874.5,377Q877.1077,377,879.726,375.69100000000003L880.6201,377.481ZM890.6793,367.93600000000004Q888.5023,371.065,886.217,373.331L884.8087,371.911Q886.9645,369.773,889.0375,366.794L890.6793,367.93600000000004ZM897.3606,355.653Q895.8844,359.034,894.3112,361.96500000000003L892.5491,361.019Q894.0838,358.15999999999997,895.5277,354.853L897.3606,355.653ZM902.189,342.529Q901.1138,345.98400000000004,899.9528,349.159L898.0744,348.473Q899.2188,345.34299999999996,900.2794,341.935L902.189,342.529ZM905.819,329Q905.0145,332.493,904.1314,335.797L902.1992,335.281Q903.0734,332.01,903.87,328.551L905.819,329ZM908.5506,315.267Q907.9537,318.778,907.283,322.159L905.3212,321.77Q905.9866,318.416,906.5789,314.932L908.5506,315.267ZM910.5543,301.413Q910.1289,304.93899999999996,909.6327,308.374L907.6533,308.089Q908.1461,304.676,908.5687,301.173L910.5543,301.413ZM911.931,287.464Q911.6579,290.98699999999997,911.3165,294.451L909.3261,294.255Q909.6655,290.81100000000004,909.937,287.31L911.931,287.464ZM912.7359,273.473Q912.6024,276.994,912.4018,280.483L910.4051,280.368Q910.6045,276.899,910.7373,273.398L912.7359,273.473ZM913,259.5Q913,262.984,912.9346,266.462L910.935,266.425Q911,262.96500000000003,911,259.5L913,259.5ZM912.8215,248.006Q912.9308,251.51600000000002,912.9732,255.039L910.9733,255.063Q910.9311,251.559,910.8225,248.06900000000002L912.8215,248.006ZM912.1151,234.02679999999998Q912.3598,237.507,912.5372,241.026L910.5397,241.127Q910.3633,237.6275,910.12,234.1671L912.1151,234.02679999999998ZM910.8433,220.0655Q911.2323,223.5192,911.5525,227.0404L909.5607,227.2215Q909.2424,223.7215,908.8559,220.2893L910.8433,220.0655ZM908.9562,206.187Q909.5039,209.59730000000002,909.9805,213.10899999999998L907.9987,213.3779Q907.5253,209.89,906.9815,206.5042L908.9562,206.187ZM906.3647,192.4322Q907.0996,195.79579999999999,907.7591,199.3066L905.7935,199.6759Q905.1394,196.1938,904.4108,192.8591L906.3647,192.4322ZM902.9156,178.8703Q903.878,182.1378,904.7598,185.6173L902.8211,186.1086Q901.9487,182.6663,900.9971,179.43529999999998L902.9156,178.8703ZM898.3278,165.6367Q899.6017,168.7524,900.7868,172.18959999999998L898.896,172.8415Q897.7293,169.4574,896.4766,166.3936L898.3278,165.6367ZM892.0594,153.1528Q893.8116,155.9402,895.4632,159.2679L893.6716,160.157Q892.0649,156.9194,890.3662,154.2172L892.0594,153.1528ZM882.7697000000001,142.78931Q885.397,144.58281,887.9184,147.49295L886.4069,148.8026Q884.0553,146.08845,881.6421,144.44113L882.7697000000001,142.78931ZM876.3647,140.140239L876.067,142.11796Q875.2832,142,874.5,142Q872.384,142,870.2604,142.86185L869.5083,141.00867Q871.9936,140,874.5,140Q875.4329,140,876.3647,140.140239Z" fill-rule="evenodd" fill="#000000" fill-opacity="1"/></g><g style="mix-blend-mode:passthrough"><ellipse cx="874.0007591247559" cy="216.374174118042" rx="15.00075912475586" ry="15.000761032104492" transform="matrix(0.9999478459358215,-0.012446580454707146,0.012447524815797806,0.9999478459358215,-2.4618002154998067,10.702115052503359)" fill="#82318E" fill-opacity="1"/></g><g style="mix-blend-mode:passthrough"><ellipse cx="874.0007591247559" cy="296.374174118042" rx="15.00075912475586" ry="15.000761032104492" transform="matrix(0.9999478459358215,-0.012446580454707146,0.012447524815797806,0.9999478459358215,-3.457602200763631,10.706287377637636)" fill="#82318E" fill-opacity="1"/></g><g style="mix-blend-mode:passthrough"><path d="M558.1719,109L560.1641,109L560.1641,99.3125C560.1641,97.8125,560.0156,95.6953,559.875,94.1719L559.9688,94.1719L561.3828,98.1484L564.7266,107.2422L566.2109,107.2422L569.5234,98.1484L570.9375,94.1719L571.0391,94.1719C570.9141,95.6953,570.75,97.8125,570.75,99.3125L570.75,109L572.8125,109L572.8125,91.5L570.1484,91.5L566.7891,100.8594C566.3828,102.0547,566.0156,103.2891,565.5625,104.5L565.4688,104.5C565.0312,103.2891,564.6484,102.0547,564.1953,100.8594L560.8359,91.5L558.1719,91.5L558.1719,109ZM582.7344,109.5C584.4844,109.5,585.8828,108.9297,587.0078,108.1875L586.2422,106.6797C585.2578,107.3516,584.25,107.75,582.9766,107.75C580.5,107.75,578.7969,105.9062,578.6562,103L587.4375,103C587.4844,102.6641,587.5391,102.2344,587.5391,101.7578C587.5391,97.9219,585.6641,95.5,582.3281,95.5C579.3516,95.5,576.4922,98.1484,576.4922,102.5C576.4922,106.9531,579.2578,109.5,582.7344,109.5ZM578.6328,101.4453C578.8906,98.7656,580.5234,97.2578,582.375,97.2578C584.4141,97.2578,585.6172,98.7188,585.6172,101.4453L578.6328,101.4453ZM594.3594,109.5C597.4375,109.5,599.0938,107.75,599.0938,105.5703C599.0938,103.0234,597.0234,102.2344,595.1328,101.4922C593.6641,100.9219,592.3203,100.4219,592.3203,99.1641C592.3203,98.1016,593.0938,97.2109,594.75,97.2109C595.8984,97.2109,596.8125,97.7266,597.6953,98.3984L598.7578,96.9922C597.7734,96.1797,596.3281,95.5,594.7188,95.5C591.8672,95.5,590.2344,97.1328,590.2344,99.2578C590.2344,101.5625,592.2031,102.4531,594.0234,103.1484C595.4688,103.6875,597,104.3359,597,105.6953C597,106.8594,596.1641,107.7969,594.4375,107.7969C592.875,107.7969,591.7188,107.1562,590.5703,106.1875L589.5156,107.7031C590.7344,108.7344,592.5156,109.5,594.3594,109.5ZM605.3594,109.5C608.4375,109.5,610.0938,107.75,610.0938,105.5703C610.0938,103.0234,608.0234,102.2344,606.1328,101.4922C604.6641,100.9219,603.3203,100.4219,603.3203,99.1641C603.3203,98.1016,604.0938,97.2109,605.75,97.2109C606.8984,97.2109,607.8125,97.7266,608.6953,98.3984L609.7578,96.9922C608.7734,96.1797,607.3281,95.5,605.7188,95.5C602.8672,95.5,601.2344,97.1328,601.2344,99.2578C601.2344,101.5625,603.2031,102.4531,605.0234,103.1484C606.4688,103.6875,608,104.3359,608,105.6953C608,106.8594,607.1641,107.7969,605.4375,107.7969C603.875,107.7969,602.7188,107.1562,601.5703,106.1875L600.5156,107.7031C601.7344,108.7344,603.5156,109.5,605.3594,109.5ZM615.9531,109.5C617.5625,109.5,619.0234,108.6641,620.2734,107.625L620.3438,107.625L620.5391,109L622.3359,109L622.3359,100.8984C622.3359,97.6172,621.0156,95.5,617.8281,95.5C615.7109,95.5,613.8906,96.4375,612.7109,97.2109L613.5547,98.7344C614.5859,98.0312,615.9531,97.3281,617.4688,97.3281C619.6016,97.3281,620.1562,98.9531,620.1562,100.6562C614.6094,101.2812,612.1641,102.7188,612.1641,105.5781C612.1641,108.1562,613.7734,109.5,615.9531,109.5ZM616.5781,107.7266C615.2812,107.7266,614.2734,107.1328,614.2734,105.6016C614.2734,103.8672,615.7656,102.75,620.1562,102.2344L620.1562,105.9688C618.8828,107.1328,617.8281,107.7266,616.5781,107.7266ZM630.8438,115C634.8828,115,637.4453,112.9609,637.4453,110.7109C637.4453,108.6406,635.9141,107.7031,632.9141,107.7031L630.3438,107.7031C628.5938,107.7031,628.0625,107.0625,628.0625,106.1875C628.0625,105.4141,628.4219,104.9531,628.9062,104.5469C629.4766,104.8359,630.1953,105,630.8203,105C633.5078,105,635.6016,103.25,635.6016,100.4141C635.6016,99.2734,635.1641,98.2969,634.5469,97.6875L637.2109,97.6875L637.2109,96L632.6719,96C632.2109,95.6484,631.5703,95.5,630.8203,95.5C628.2031,95.5,625.9531,97.3125,625.9531,100.2891C625.9531,101.9141,626.7891,103.2422,627.6562,103.9219L627.6562,104.0234C626.9609,104.5,626.2109,105.3516,626.2109,106.3984C626.2109,107.3984,626.7188,108.0703,627.3906,108.4688L627.3906,108.5859C626.1641,109.3125,625.4688,110.3984,625.4688,111.5234C625.4688,113.7578,627.6797,115,630.8438,115ZM630.8203,103.5156C629.3359,103.5156,628.0625,102.2656,628.0625,100.2891C628.0625,98.2891,629.3125,97.1094,630.8203,97.1094C632.3828,97.1094,633.6094,98.2891,633.6094,100.2891C633.6094,102.2656,632.3359,103.5156,630.8203,103.5156ZM631.1562,113.4922C628.7812,113.4922,627.3906,112.6016,627.3906,111.2109C627.3906,110.4688,627.7734,109.6719,628.7109,109C629.2891,109.4531,629.9141,109.5,630.3906,109.5L632.6484,109.5C634.375,109.5,635.2891,109.9062,635.2891,111.0391C635.2891,112.1953,633.6797,113.4922,631.1562,113.4922ZM645.2344,109.5C646.9844,109.5,648.383,108.9297,649.508,108.1875L648.742,106.6797C647.7578,107.3516,646.75,107.75,645.4766,107.75C643,107.75,641.2969,105.9062,641.1562,103L649.938,103C649.984,102.6641,650.039,102.2344,650.039,101.7578C650.039,97.9219,648.164,95.5,644.8281,95.5C641.8516,95.5,638.9922,98.1484,638.9922,102.5C638.9922,106.9531,641.7578,109.5,645.2344,109.5ZM641.1328,101.4453C641.3906,98.7656,643.0234,97.2578,644.875,97.2578C646.9141,97.2578,648.117,98.7188,648.117,101.4453L641.1328,101.4453ZM659.172,109L661.375,109L661.375,102L664.281,102C668.148,102,670.766,100.2969,670.766,96.625C670.766,92.8203,668.125,91.5,664.188,91.5L659.172,91.5L659.172,109ZM661.375,100.2031L661.375,93.3047L663.898,93.3047C666.992,93.3047,668.5550000000001,94.0859,668.5550000000001,96.625C668.5550000000001,99.1094,667.094,100.2031,663.992,100.2031L661.375,100.2031ZM673.953,109L676.164,109L676.164,100.5312C677.023,98.2969,678.344,97.4688,679.4300000000001,97.4688C679.977,97.4688,680.266,97.5469,680.6949999999999,97.6875L681.109,96C680.6949999999999,95.5781,680.289,95.5,679.711,95.5C678.273,95.5,676.9300000000001,96.5625,676.016,98.2266L675.969,98.2266L675.758,96L673.953,96L673.953,109ZM688.516,109.5C691.711,109.5,694.547,106.9844,694.547,102.5312C694.547,98.0469,691.711,95.5,688.516,95.5C685.328,95.5,682.492,98.0469,682.492,102.5312C682.492,106.9844,685.328,109.5,688.516,109.5ZM688.516,107.6797C686.266,107.6797,684.75,105.625,684.75,102.5312C684.75,99.4297,686.266,97.3516,688.516,97.3516C690.773,97.3516,692.312,99.4297,692.312,102.5312C692.312,105.625,690.773,107.6797,688.516,107.6797ZM697.953,114.5L700.164,114.5L700.164,110.2422L700.094,107.9922C701.266,108.9766,702.516,109.5,703.688,109.5C706.664,109.5,709.352,106.9141,709.352,102.3047C709.352,98.1484,707.531,95.5,704.172,95.5C702.656,95.5,701.1949999999999,96.3672,700.016,97.3516L699.969,97.3516L699.758,96L697.953,96L697.953,114.5ZM703.328,107.6562C702.469,107.6562,701.312,107.3125,700.164,106.2969L700.164,99.1875C701.414,98,702.539,97.3516,703.617,97.3516C706.117,97.3516,707.078,99.3359,707.078,102.3281C707.078,105.6875,705.492,107.6562,703.328,107.6562ZM715.953,109.5C717.562,109.5,719.023,108.6641,720.273,107.625L720.344,107.625L720.539,109L722.336,109L722.336,100.8984C722.336,97.6172,721.016,95.5,717.828,95.5C715.711,95.5,713.891,96.4375,712.711,97.2109L713.5550000000001,98.7344C714.586,98.0312,715.953,97.3281,717.469,97.3281C719.602,97.3281,720.156,98.9531,720.156,100.6562C714.609,101.2812,712.164,102.7188,712.164,105.5781C712.164,108.1562,713.773,109.5,715.953,109.5ZM716.578,107.7266C715.281,107.7266,714.273,107.1328,714.273,105.6016C714.273,103.8672,715.766,102.75,720.156,102.2344L720.156,105.9688C718.883,107.1328,717.828,107.7266,716.578,107.7266ZM730.844,115C734.883,115,737.4449999999999,112.9609,737.4449999999999,110.7109C737.4449999999999,108.6406,735.914,107.7031,732.914,107.7031L730.344,107.7031C728.594,107.7031,728.062,107.0625,728.062,106.1875C728.062,105.4141,728.422,104.9531,728.906,104.5469C729.477,104.8359,730.1949999999999,105,730.8199999999999,105C733.508,105,735.602,103.25,735.602,100.4141C735.602,99.2734,735.164,98.2969,734.547,97.6875L737.211,97.6875L737.211,96L732.672,96C732.211,95.6484,731.5699999999999,95.5,730.8199999999999,95.5C728.203,95.5,725.953,97.3125,725.953,100.2891C725.953,101.9141,726.789,103.2422,727.656,103.9219L727.656,104.0234C726.961,104.5,726.211,105.3516,726.211,106.3984C726.211,107.3984,726.719,108.0703,727.391,108.4688L727.391,108.5859C726.164,109.3125,725.469,110.3984,725.469,111.5234C725.469,113.7578,727.6800000000001,115,730.844,115ZM730.8199999999999,103.5156C729.336,103.5156,728.062,102.2656,728.062,100.2891C728.062,98.2891,729.312,97.1094,730.8199999999999,97.1094C732.383,97.1094,733.609,98.2891,733.609,100.2891C733.609,102.2656,732.336,103.5156,730.8199999999999,103.5156ZM731.156,113.4922C728.781,113.4922,727.391,112.6016,727.391,111.2109C727.391,110.4688,727.773,109.6719,728.711,109C729.289,109.4531,729.914,109.5,730.391,109.5L732.648,109.5C734.375,109.5,735.289,109.9062,735.289,111.0391C735.289,112.1953,733.6800000000001,113.4922,731.156,113.4922ZM742.953,109.5C744.562,109.5,746.023,108.6641,747.273,107.625L747.344,107.625L747.539,109L749.336,109L749.336,100.8984C749.336,97.6172,748.016,95.5,744.828,95.5C742.711,95.5,740.891,96.4375,739.711,97.2109L740.5550000000001,98.7344C741.586,98.0312,742.953,97.3281,744.469,97.3281C746.602,97.3281,747.156,98.9531,747.156,100.6562C741.609,101.2812,739.164,102.7188,739.164,105.5781C739.164,108.1562,740.773,109.5,742.953,109.5ZM743.578,107.7266C742.281,107.7266,741.273,107.1328,741.273,105.6016C741.273,103.8672,742.766,102.75,747.156,102.2344L747.156,105.9688C745.883,107.1328,744.828,107.7266,743.578,107.7266ZM757.531,109.5C758.352,109.5,759.211,109.2656,759.961,109.0234L759.523,107.3594C759.094,107.5547,758.516,107.7266,758.039,107.7266C756.523,107.7266,756.023,106.8047,756.023,105.1953L756.023,97.7812L759.578,97.7812L759.578,96L756.023,96L756.023,92.3281L754.1949999999999,92.3281L753.961,96L751.891,96.125L751.891,97.7812L753.836,97.7812L753.836,105.1172C753.836,107.7734,754.773,109.5,757.531,109.5ZM762.453,109L764.664,109L764.664,96L762.453,96L762.453,109ZM763.5550000000001,93.3828C764.422,93.3828,765.023,92.8047,765.023,91.9219C765.023,91.0781,764.422,90.5,763.5550000000001,90.5C762.6949999999999,90.5,762.117,91.0781,762.117,91.9219C762.117,92.8047,762.6949999999999,93.3828,763.5550000000001,93.3828ZM774.016,109.5C777.211,109.5,780.047,106.9844,780.047,102.5312C780.047,98.0469,777.211,95.5,774.016,95.5C770.828,95.5,767.992,98.0469,767.992,102.5312C767.992,106.9844,770.828,109.5,774.016,109.5ZM774.016,107.6797C771.766,107.6797,770.25,105.625,770.25,102.5312C770.25,99.4297,771.766,97.3516,774.016,97.3516C776.273,97.3516,777.812,99.4297,777.812,102.5312C777.812,105.625,776.273,107.6797,774.016,107.6797ZM783.453,109L785.664,109L785.664,99.4375C786.961,98.1016,787.867,97.4219,789.211,97.4219C790.9449999999999,97.4219,791.688,98.4688,791.688,100.9453L791.688,109L793.875,109L793.875,100.6562C793.875,97.3047,792.625,95.5,789.891,95.5C788.109,95.5,786.742,96.4844,785.516,97.7422L785.469,97.7422L785.258,96L783.453,96L783.453,109ZM806.2660000000001,109L808.828,109L813.438,96L811.281,96L808.8050000000001,103.3984C808.422,104.6641,807.992,105.9844,807.6089999999999,107.2266L807.4839999999999,107.2266C807.102,105.9844,806.6949999999999,104.6641,806.289,103.3984L803.836,96L801.5550000000001,96L806.2660000000001,109ZM815.953,109L818.164,109L818.164,96L815.953,96L815.953,109ZM817.0550000000001,93.3828C817.922,93.3828,818.523,92.8047,818.523,91.9219C818.523,91.0781,817.922,90.5,817.0550000000001,90.5C816.1949999999999,90.5,815.617,91.0781,815.617,91.9219C815.617,92.8047,816.1949999999999,93.3828,817.0550000000001,93.3828ZM825.453,109.5C827.062,109.5,828.523,108.6641,829.773,107.625L829.844,107.625L830.039,109L831.836,109L831.836,100.8984C831.836,97.6172,830.5160000000001,95.5,827.328,95.5C825.211,95.5,823.3910000000001,96.4375,822.211,97.2109L823.0550000000001,98.7344C824.086,98.0312,825.453,97.3281,826.969,97.3281C829.102,97.3281,829.656,98.9531,829.656,100.6562C824.1089999999999,101.2812,821.664,102.7188,821.664,105.5781C821.664,108.1562,823.273,109.5,825.453,109.5ZM826.078,107.7266C824.781,107.7266,823.773,107.1328,823.773,105.6016C823.773,103.8672,825.2660000000001,102.75,829.656,102.2344L829.656,105.9688C828.383,107.1328,827.328,107.7266,826.078,107.7266ZM841.4300000000001,109L844.9839999999999,109L844.9839999999999,101.0781L851.703,101.0781L851.703,109L855.2339999999999,109L855.2339999999999,91L851.703,91L851.703,98L844.9839999999999,98L844.9839999999999,91L841.4300000000001,91L841.4300000000001,109ZM860.3199999999999,114.5C863.3199999999999,114.5,864.758,112.7031,865.938,109.5078L870.711,95.5L867.328,95.5L865.477,101.8125C865.1410000000001,103.0781,864.8050000000001,104.3906,864.5160000000001,105.6484L864.398,105.6484C864.0160000000001,104.3359,863.6800000000001,103.0312,863.273,101.8125L861.133,95.5L857.586,95.5L862.812,108.8281L862.578,109.6562C862.188,110.8438,861.422,111.7188,860.0550000000001,111.7188C859.742,111.7188,859.3589999999999,111.625,859.117,111.5469L858.469,114C859,114.4062,859.523,114.5,860.3199999999999,114.5ZM873.1410000000001,114L876.672,114L876.672,110.1797L876.547,108.0391C877.562,108.9766,878.711,109.5,879.8910000000001,109.5C882.836,109.5,885.602,106.8359,885.602,102.0234C885.602,97.7188,883.6089999999999,95,880.3199999999999,95C878.852,95,877.4839999999999,95.7734,876.3589999999999,96.7344L876.289,96.7344L876.023,95.5L873.1410000000001,95.5L873.1410000000001,114ZM879.117,106.6016C878.375,106.6016,877.531,106.3281,876.672,105.5703L876.672,99.3359C877.586,98.3828,878.398,97.9062,879.312,97.9062C881.156,97.9062,881.977,99.3906,881.977,102.0781C881.977,105.1797,880.703,106.6016,879.117,106.6016ZM894.5,109.5C896.156,109.5,897.8589999999999,108.9297,899.1800000000001,108.0156L897.977,105.8359C896.992,106.4453,896.062,106.7656,894.977,106.7656C892.961,106.7656,891.523,105.6172,891.2339999999999,103.3828L899.5160000000001,103.3828C899.6089999999999,103.0469,899.6800000000001,102.3984,899.6800000000001,101.75C899.6800000000001,97.6953,897.7660000000001,95,894.0699999999999,95C890.875,95,887.8050000000001,97.7188,887.8050000000001,102.375C887.8050000000001,106.8906,890.727,109.5,894.5,109.5ZM891.164,101C891.453,98.8516,892.6949999999999,97.7422,894.117,97.7422C895.867,97.7422,896.656,99.0156,896.656,101L891.164,101ZM902.6410000000001,109L906.172,109L906.172,100.9766C906.938,98.8359,908.188,98.125,909.219,98.125C909.797,98.125,910.1800000000001,98.1953,910.656,98.3438L911.2339999999999,95.5C910.852,95.125,910.422,95,909.672,95C908.281,95,906.844,95.9609,905.8589999999999,97.7188L905.789,97.7188L905.523,95.5L902.6410000000001,95.5L902.6410000000001,109ZM919,109.5C920.656,109.5,922.3589999999999,108.9297,923.6800000000001,108.0156L922.477,105.8359C921.492,106.4453,920.562,106.7656,919.477,106.7656C917.461,106.7656,916.023,105.6172,915.7339999999999,103.3828L924.0160000000001,103.3828C924.1089999999999,103.0469,924.1800000000001,102.3984,924.1800000000001,101.75C924.1800000000001,97.6953,922.2660000000001,95,918.5699999999999,95C915.375,95,912.3050000000001,97.7188,912.3050000000001,102.375C912.3050000000001,106.8906,915.227,109.5,919,109.5ZM915.664,101C915.953,98.8516,917.1949999999999,97.7422,918.617,97.7422C920.367,97.7422,921.156,99.0156,921.156,101L915.664,101ZM931.867,109.5C933.2660000000001,109.5,934.6089999999999,108.7578,935.594,107.7734L935.688,107.7734L935.953,109L938.828,109L938.828,89.625L935.3050000000001,89.625L935.3050000000001,94.3594L935.422,96.4688C934.461,95.5781,933.523,95,932.0160000000001,95C929.133,95,926.375,97.6953,926.375,102.1484C926.375,106.8672,928.508,109.5,931.867,109.5ZM932.781,106.6016C931.008,106.6016,930,105.1406,930,102.2031C930,99.4141,931.273,97.9062,932.781,97.9062C933.648,97.9062,934.4839999999999,98.1797,935.3050000000001,98.9609L935.3050000000001,105.1406C934.531,106.1953,933.719,106.6016,932.781,106.6016ZM947.367,115C951.8589999999999,115,954.688,112.9375,954.688,110.2812C954.688,107.9453,952.914,106.9375,949.672,106.9375L947.367,106.9375C945.812,106.9375,945.258,106.5547,945.258,105.8594C945.258,105.2891,945.5,105,945.836,104.6953C946.438,104.9062,947.062,105,947.562,105C950.469,105,952.773,103.4922,952.773,100.2812C952.773,99.3828,952.508,98.5859,952.172,98.0938L954.453,98.0938L954.453,95.5L949.625,95.5C949.0550000000001,95.1484,948.352,95,947.562,95C944.727,95,942.164,96.7109,942.164,100.0859C942.164,101.8203,943.023,103.1797,943.961,103.8516L943.961,103.9453C943.148,104.5234,942.477,105.4531,942.477,106.4375C942.477,107.5625,942.977,108.2578,943.6949999999999,108.7109L943.6949999999999,108.8281C942.4300000000001,109.5312,941.781,110.4688,941.781,111.5703C941.781,113.9219,944.203,115,947.367,115ZM947.562,102.8203C946.414,102.8203,945.477,101.8438,945.477,100.0859C945.477,98.375,946.383,97.4297,947.562,97.4297C948.7660000000001,97.4297,949.6949999999999,98.375,949.6949999999999,100.0859C949.6949999999999,101.8438,948.7660000000001,102.8203,947.562,102.8203ZM947.898,112.75C945.953,112.75,944.703,112.1328,944.703,111.0547C944.703,110.4922,944.969,109.9766,945.5699999999999,109.5C946.078,109.6953,946.625,109.7422,947.422,109.7422L949.078,109.7422C950.5160000000001,109.7422,951.3050000000001,109.9922,951.3050000000001,110.9141C951.3050000000001,111.875,949.938,112.75,947.898,112.75ZM963,109.5C964.656,109.5,966.3589999999999,108.9297,967.6800000000001,108.0156L966.477,105.8359C965.492,106.4453,964.562,106.7656,963.477,106.7656C961.461,106.7656,960.023,105.6172,959.7339999999999,103.3828L968.0160000000001,103.3828C968.1089999999999,103.0469,968.1800000000001,102.3984,968.1800000000001,101.75C968.1800000000001,97.6953,966.2660000000001,95,962.5699999999999,95C959.375,95,956.3050000000001,97.7188,956.3050000000001,102.375C956.3050000000001,106.8906,959.227,109.5,963,109.5ZM959.664,101C959.953,98.8516,961.1949999999999,97.7422,962.617,97.7422C964.367,97.7422,965.156,99.0156,965.156,101L959.664,101ZM974.9839999999999,109.5C978.461,109.5,980.336,107.6328,980.336,105.1875C980.336,102.6016,978.367,101.6484,976.594,100.9531C975.148,100.3984,973.9300000000001,100.0234,973.9300000000001,99C973.9300000000001,98.1953,974.5,97.6406,975.727,97.6406C976.711,97.6406,977.648,98.1484,978.6089999999999,98.8438L980.188,96.6562C979.086,95.7969,977.578,95,975.633,95C972.5550000000001,95,970.617,96.7109,970.617,99.1719C970.617,101.5234,972.508,102.6016,974.211,103.2812C975.633,103.8594,977.023,104.3359,977.023,105.3828C977.023,106.2656,976.422,106.8672,975.078,106.8672C973.8050000000001,106.8672,972.6800000000001,106.2891,971.477,105.3359L969.867,107.6328C971.211,108.7344,973.1800000000001,109.5,974.9839999999999,109.5Z" fill="#3D3D3D" fill-opacity="1"/></g><g style="mix-blend-mode:passthrough"><path d="M87.63281,429L90.20312,429L95.7969,411.5L93.5391,411.5L90.71094,420.9766C90.10938,423.0234,89.67969,424.6953,89.00781,426.75L88.90625,426.75C88.25781,424.6953,87.80469,423.0234,87.20312,420.9766L84.35156,411.5L82.0234375,411.5L87.63281,429ZM103.4844,429.5C105.2344,429.5,106.6328,428.9297,107.7578,428.1875L106.9922,426.6797C106.0078,427.3516,105,427.75,103.7266,427.75C101.25,427.75,99.5469,425.9062,99.4062,423L108.1875,423C108.2344,422.6641,108.2891,422.2344,108.2891,421.7578C108.2891,417.9219,106.4141,415.5,103.0781,415.5C100.1016,415.5,97.2422,418.1484,97.2422,422.5C97.2422,426.9531,100.0078,429.5,103.4844,429.5ZM99.3828,421.4453C99.6406,418.7656,101.2734,417.2578,103.125,417.2578C105.1641,417.2578,106.3672,418.7188,106.3672,421.4453L99.3828,421.4453ZM111.7031,429L113.9141,429L113.9141,420.5312C114.77340000000001,418.2969,116.0938,417.4688,117.1797,417.4688C117.72659999999999,417.4688,118.0156,417.5469,118.4453,417.6875L118.8594,416C118.4453,415.5781,118.03909999999999,415.5,117.46090000000001,415.5C116.02340000000001,415.5,114.6797,416.5625,113.7656,418.2266L113.7188,418.2266L113.5078,416L111.7031,416L111.7031,429ZM125.2812,429.5C126.10159999999999,429.5,126.96090000000001,429.2656,127.71090000000001,429.0234L127.27340000000001,427.3594C126.8438,427.5547,126.2656,427.7266,125.78909999999999,427.7266C124.27340000000001,427.7266,123.77340000000001,426.8047,123.77340000000001,425.1953L123.77340000000001,417.7812L127.3281,417.7812L127.3281,416L123.77340000000001,416L123.77340000000001,412.3281L121.9453,412.3281L121.71090000000001,416L119.6406,416.125L119.6406,417.7812L121.58590000000001,417.7812L121.58590000000001,425.1172C121.58590000000001,427.7734,122.52340000000001,429.5,125.2812,429.5ZM135.4844,429.5C137.2344,429.5,138.6328,428.9297,139.7578,428.1875L138.9922,426.6797C138.0078,427.3516,137,427.75,135.7266,427.75C133.25,427.75,131.5469,425.9062,131.4062,423L140.1875,423C140.2344,422.6641,140.2891,422.2344,140.2891,421.7578C140.2891,417.9219,138.4141,415.5,135.0781,415.5C132.1016,415.5,129.2422,418.1484,129.2422,422.5C129.2422,426.9531,132.0078,429.5,135.4844,429.5ZM131.3828,421.4453C131.6406,418.7656,133.2734,417.2578,135.125,417.2578C137.1641,417.2578,138.3672,418.7188,138.3672,421.4453L131.3828,421.4453ZM141.8594,429L144.1641,429L145.9141,425.9609C146.3672,425.1719,146.77339999999998,424.3828,147.2344,423.6406L147.35160000000002,423.6406C147.8594,424.3828,148.33589999999998,425.1719,148.7656,425.9609L150.6875,429L153.08589999999998,429L148.78910000000002,422.4453L152.75,416L150.47660000000002,416L148.8672,418.8516C148.4531,419.5938,148.0938,420.2891,147.71089999999998,421.0312L147.5938,421.0312C147.16410000000002,420.2891,146.7031,419.5938,146.3203,418.8516L144.5703,416L142.1953,416L146.1562,422.2266L141.8594,429Z" fill="#3D3D3D" fill-opacity="1"/></g><g style="mix-blend-mode:passthrough"><path d="M234.63281,429L237.20312,429L242.7969,411.5L240.5391,411.5L237.71094,420.9766C237.10938,423.0234,236.67969,424.6953,236.00781,426.75L235.90625,426.75C235.25781,424.6953,234.80469,423.0234,234.20312,420.9766L231.35156,411.5L229.0234375,411.5L234.63281,429ZM250.4844,429.5C252.2344,429.5,253.6328,428.9297,254.7578,428.1875L253.9922,426.6797C253.0078,427.3516,252,427.75,250.7266,427.75C248.25,427.75,246.5469,425.9062,246.4062,423L255.1875,423C255.2344,422.6641,255.2891,422.2344,255.2891,421.7578C255.2891,417.9219,253.4141,415.5,250.0781,415.5C247.1016,415.5,244.2422,418.1484,244.2422,422.5C244.2422,426.9531,247.0078,429.5,250.4844,429.5ZM246.3828,421.4453C246.6406,418.7656,248.2734,417.2578,250.125,417.2578C252.1641,417.2578,253.3672,418.7188,253.3672,421.4453L246.3828,421.4453ZM258.7031,429L260.9141,429L260.9141,420.5312C261.7734,418.2969,263.0938,417.4688,264.1797,417.4688C264.7266,417.4688,265.0156,417.5469,265.4453,417.6875L265.8594,416C265.4453,415.5781,265.0391,415.5,264.4609,415.5C263.0234,415.5,261.6797,416.5625,260.7656,418.2266L260.7188,418.2266L260.5078,416L258.7031,416L258.7031,429ZM272.2812,429.5C273.1016,429.5,273.9609,429.2656,274.7109,429.0234L274.2734,427.3594C273.8438,427.5547,273.2656,427.7266,272.7891,427.7266C271.2734,427.7266,270.7734,426.8047,270.7734,425.1953L270.7734,417.7812L274.3281,417.7812L274.3281,416L270.7734,416L270.7734,412.3281L268.9453,412.3281L268.7109,416L266.6406,416.125L266.6406,417.7812L268.5859,417.7812L268.5859,425.1172C268.5859,427.7734,269.5234,429.5,272.2812,429.5ZM282.4844,429.5C284.2344,429.5,285.6328,428.9297,286.7578,428.1875L285.9922,426.6797C285.0078,427.3516,284,427.75,282.7266,427.75C280.25,427.75,278.5469,425.9062,278.4062,423L287.1875,423C287.2344,422.6641,287.2891,422.2344,287.2891,421.7578C287.2891,417.9219,285.4141,415.5,282.0781,415.5C279.1016,415.5,276.2422,418.1484,276.2422,422.5C276.2422,426.9531,279.0078,429.5,282.4844,429.5ZM278.3828,421.4453C278.6406,418.7656,280.2734,417.2578,282.125,417.2578C284.1641,417.2578,285.3672,418.7188,285.3672,421.4453L278.3828,421.4453ZM288.8594,429L291.1641,429L292.9141,425.9609C293.3672,425.1719,293.7734,424.3828,294.2344,423.6406L294.3516,423.6406C294.8594,424.3828,295.3359,425.1719,295.7656,425.9609L297.6875,429L300.0859,429L295.7891,422.4453L299.75,416L297.4766,416L295.8672,418.8516C295.4531,419.5938,295.0938,420.2891,294.7109,421.0312L294.5938,421.0312C294.1641,420.2891,293.7031,419.5938,293.3203,418.8516L291.5703,416L289.1953,416L293.1562,422.2266L288.8594,429Z" fill="#3D3D3D" fill-opacity="1"/></g><g style="mix-blend-mode:passthrough"><path d="M597.63281,430L600.20312,430L605.7969,412.5L603.5391,412.5L600.71094,421.9766C600.10938,424.0234,599.67969,425.6953,599.00781,427.75L598.90625,427.75C598.25781,425.6953,597.80469,424.0234,597.20312,421.9766L594.35156,412.5L592.0234375,412.5L597.63281,430ZM613.4844,430.5C615.2344,430.5,616.6328,429.9297,617.7578,429.1875L616.9922,427.6797C616.0078,428.3516,615,428.75,613.7266,428.75C611.25,428.75,609.5469,426.9062,609.4062,424L618.1875,424C618.2344,423.6641,618.2891,423.2344,618.2891,422.7578C618.2891,418.9219,616.4141,416.5,613.0781,416.5C610.1016,416.5,607.2422,419.1484,607.2422,423.5C607.2422,427.9531,610.0078,430.5,613.4844,430.5ZM609.3828,422.4453C609.6406,419.7656,611.2734,418.2578,613.125,418.2578C615.1641,418.2578,616.3672,419.7188,616.3672,422.4453L609.3828,422.4453ZM621.7031,430L623.9141,430L623.9141,421.5312C624.7734,419.2969,626.0938,418.4688,627.1797,418.4688C627.7266,418.4688,628.0156,418.5469,628.4453,418.6875L628.8594,417C628.4453,416.5781,628.0391,416.5,627.4609,416.5C626.0234,416.5,624.6797,417.5625,623.7656,419.2266L623.7188,419.2266L623.5078,417L621.7031,417L621.7031,430ZM635.2812,430.5C636.1016,430.5,636.9609,430.2656,637.7109,430.0234L637.2734,428.3594C636.8438,428.5547,636.2656,428.7266,635.7891,428.7266C634.2734,428.7266,633.7734,427.8047,633.7734,426.1953L633.7734,418.7812L637.3281,418.7812L637.3281,417L633.7734,417L633.7734,413.3281L631.9453,413.3281L631.7109,417L629.6406,417.125L629.6406,418.7812L631.5859,418.7812L631.5859,426.1172C631.5859,428.7734,632.5234,430.5,635.2812,430.5ZM645.4844,430.5C647.2344,430.5,648.6328,429.9297,649.7578,429.1875L648.9922,427.6797C648.0078,428.3516,647,428.75,645.7266,428.75C643.25,428.75,641.5469,426.9062,641.4062,424L650.1875,424C650.2344,423.6641,650.2891,423.2344,650.2891,422.7578C650.2891,418.9219,648.4141,416.5,645.0781,416.5C642.1016,416.5,639.2422,419.1484,639.2422,423.5C639.2422,427.9531,642.0078,430.5,645.4844,430.5ZM641.3828,422.4453C641.6406,419.7656,643.2734,418.2578,645.125,418.2578C647.1641,418.2578,648.3672,419.7188,648.3672,422.4453L641.3828,422.4453ZM651.8594,430L654.1641,430L655.9141,426.9609C656.3672,426.1719,656.7734,425.3828,657.2344,424.6406L657.3516,424.6406C657.8594,425.3828,658.3359,426.1719,658.7656,426.9609L660.6875,430L663.0859,430L658.7891,423.4453L662.75,417L660.4766,417L658.8672,419.8516C658.4531,420.5938,658.0938,421.2891,657.7109,422.0312L657.5938,422.0312C657.1641,421.2891,656.7031,420.5938,656.3203,419.8516L654.5703,417L652.1953,417L656.1562,423.2266L651.8594,430ZM676.2891,430.5C679.9688,430.5,682.2656,428.2891,682.2656,425.4531C682.2656,422.7812,680.6875,421.5625,678.6484,420.6562L676.1484,419.5547C674.7812,418.9688,673.2188,418.3047,673.2188,416.5391C673.2188,414.9531,674.5156,413.9453,676.5078,413.9453C678.1406,413.9453,679.4375,414.5859,680.5156,415.6094L681.6719,414.1719C680.4453,412.8906,678.5938,412,676.5078,412C673.3203,412,670.9609,413.9453,670.9609,416.7109C670.9609,419.3359,672.9062,420.6016,674.5391,421.3125L677.0625,422.4375C678.7422,423.2031,680.0156,423.7891,680.0156,425.6484C680.0156,427.3828,678.6484,428.5625,676.3203,428.5625C674.4922,428.5625,672.7188,427.6797,671.4688,426.3359L670.1484,427.8984C671.6641,429.4922,673.7969,430.5,676.2891,430.5ZM690.9844,430.5C692.734,430.5,694.133,429.9297,695.258,429.1875L694.492,427.6797C693.508,428.3516,692.5,428.75,691.2266,428.75C688.75,428.75,687.0469,426.9062,686.9062,424L695.688,424C695.734,423.6641,695.789,423.2344,695.789,422.7578C695.789,418.9219,693.914,416.5,690.5781,416.5C687.6016,416.5,684.7422,419.1484,684.7422,423.5C684.7422,427.9531,687.5078,430.5,690.9844,430.5ZM686.8828,422.4453C687.1406,419.7656,688.7734,418.2578,690.625,418.2578C692.664,418.2578,693.867,419.7188,693.867,422.4453L686.8828,422.4453ZM703.281,430.5C704.102,430.5,704.961,430.2656,705.711,430.0234L705.273,428.3594C704.844,428.5547,704.266,428.7266,703.789,428.7266C702.273,428.7266,701.773,427.8047,701.773,426.1953L701.773,418.7812L705.328,418.7812L705.328,417L701.773,417L701.773,413.3281L699.9449999999999,413.3281L699.711,417L697.641,417.125L697.641,418.7812L699.586,418.7812L699.586,426.1172C699.586,428.7734,700.523,430.5,703.281,430.5Z" fill="#3D3D3D" fill-opacity="1"/></g><g style="mix-blend-mode:passthrough"><path d="M819.63281,430L822.20312,430L827.7969,412.5L825.5391,412.5L822.71094,421.9766C822.10938,424.0234,821.67969,425.6953,821.00781,427.75L820.90625,427.75C820.25781,425.6953,819.80469,424.0234,819.20312,421.9766L816.35156,412.5L814.0234375,412.5L819.63281,430ZM835.4844,430.5C837.2344,430.5,838.6328,429.9297,839.7578,429.1875L838.9922,427.6797C838.0078,428.3516,837,428.75,835.7266,428.75C833.25,428.75,831.5469,426.9062,831.4062,424L840.1875,424C840.2344,423.6641,840.2891,423.2344,840.2891,422.7578C840.2891,418.9219,838.4141,416.5,835.0781,416.5C832.1016,416.5,829.2422,419.1484,829.2422,423.5C829.2422,427.9531,832.0078,430.5,835.4844,430.5ZM831.3828,422.4453C831.6406,419.7656,833.2734,418.2578,835.125,418.2578C837.1641,418.2578,838.3672,419.7188,838.3672,422.4453L831.3828,422.4453ZM843.7031,430L845.9141,430L845.9141,421.5312C846.7734,419.2969,848.0938,418.4688,849.1797,418.4688C849.7266,418.4688,850.0156,418.5469,850.4453,418.6875L850.8594,417C850.4453,416.5781,850.0391,416.5,849.4609,416.5C848.0234,416.5,846.6797,417.5625,845.7656,419.2266L845.7188,419.2266L845.5078,417L843.7031,417L843.7031,430ZM857.2812,430.5C858.1016,430.5,858.9609,430.2656,859.7109,430.0234L859.2734,428.3594C858.8438,428.5547,858.2656,428.7266,857.7891,428.7266C856.2734,428.7266,855.7734,427.8047,855.7734,426.1953L855.7734,418.7812L859.3281,418.7812L859.3281,417L855.7734,417L855.7734,413.3281L853.9453,413.3281L853.7109,417L851.6406,417.125L851.6406,418.7812L853.5859,418.7812L853.5859,426.1172C853.5859,428.7734,854.5234,430.5,857.2812,430.5ZM867.4844,430.5C869.2344,430.5,870.6328,429.9297,871.7578,429.1875L870.9922,427.6797C870.0078,428.3516,869,428.75,867.7266,428.75C865.25,428.75,863.5469,426.9062,863.4062,424L872.1875,424C872.2344,423.6641,872.2891,423.2344,872.2891,422.7578C872.2891,418.9219,870.4141,416.5,867.0781,416.5C864.1016,416.5,861.2422,419.1484,861.2422,423.5C861.2422,427.9531,864.0078,430.5,867.4844,430.5ZM863.3828,422.4453C863.6406,419.7656,865.2734,418.2578,867.125,418.2578C869.1641,418.2578,870.3672,419.7188,870.3672,422.4453L863.3828,422.4453ZM873.8594,430L876.1641,430L877.9141,426.9609C878.3672,426.1719,878.7734,425.3828,879.2344,424.6406L879.3516,424.6406C879.8594,425.3828,880.3359,426.1719,880.7656,426.9609L882.6875,430L885.0859,430L880.7891,423.4453L884.75,417L882.4766,417L880.8672,419.8516C880.4531,420.5938,880.0938,421.2891,879.7109,422.0312L879.5938,422.0312C879.1641,421.2891,878.7031,420.5938,878.3203,419.8516L876.5703,417L874.1953,417L878.1562,423.2266L873.8594,430ZM898.2891,430.5C901.9688,430.5,904.2656,428.2891,904.2656,425.4531C904.2656,422.7812,902.6875,421.5625,900.6484,420.6562L898.1484,419.5547C896.7812,418.9688,895.2188,418.3047,895.2188,416.5391C895.2188,414.9531,896.5156,413.9453,898.5078,413.9453C900.1406,413.9453,901.4375,414.5859,902.5156,415.6094L903.6719,414.1719C902.4453,412.8906,900.5938,412,898.5078,412C895.3203,412,892.9609,413.9453,892.9609,416.7109C892.9609,419.3359,894.9062,420.6016,896.5391,421.3125L899.0625,422.4375C900.7422,423.2031,902.0156,423.7891,902.0156,425.6484C902.0156,427.3828,900.6484,428.5625,898.3203,428.5625C896.4922,428.5625,894.7188,427.6797,893.4688,426.3359L892.1484,427.8984C893.6641,429.4922,895.7969,430.5,898.2891,430.5ZM912.9844,430.5C914.734,430.5,916.133,429.9297,917.258,429.1875L916.492,427.6797C915.508,428.3516,914.5,428.75,913.2266,428.75C910.75,428.75,909.0469,426.9062,908.9062,424L917.688,424C917.734,423.6641,917.789,423.2344,917.789,422.7578C917.789,418.9219,915.914,416.5,912.5781,416.5C909.6016,416.5,906.7422,419.1484,906.7422,423.5C906.7422,427.9531,909.5078,430.5,912.9844,430.5ZM908.8828,422.4453C909.1406,419.7656,910.7734,418.2578,912.625,418.2578C914.664,418.2578,915.867,419.7188,915.867,422.4453L908.8828,422.4453ZM925.281,430.5C926.102,430.5,926.961,430.2656,927.711,430.0234L927.273,428.3594C926.844,428.5547,926.266,428.7266,925.789,428.7266C924.273,428.7266,923.773,427.8047,923.773,426.1953L923.773,418.7812L927.328,418.7812L927.328,417L923.773,417L923.773,413.3281L921.9449999999999,413.3281L921.711,417L919.641,417.125L919.641,418.7812L921.586,418.7812L921.586,426.1172C921.586,428.7734,922.523,430.5,925.281,430.5Z" fill="#3D3D3D" fill-opacity="1"/></g><g style="mix-blend-mode:passthrough"><path d="M12.1719,107L14.1641,107L14.1641,97.3125C14.1641,95.8125,14.0156,93.6953,13.875,92.1719L13.9688,92.1719L15.3828,96.1484L18.7266,105.2422L20.2109,105.2422L23.5234,96.1484L24.9375,92.1719L25.0391,92.1719C24.9141,93.6953,24.75,95.8125,24.75,97.3125L24.75,107L26.8125,107L26.8125,89.5L24.1484,89.5L20.7891,98.8594C20.3828,100.0547,20.0156,101.2891,19.5625,102.5L19.4688,102.5C19.0312,101.2891,18.6484,100.0547,18.1953,98.8594L14.8359,89.5L12.1719,89.5L12.1719,107ZM36.7344,107.5C38.4844,107.5,39.8828,106.9297,41.0078,106.1875L40.2422,104.6797C39.2578,105.3516,38.25,105.75,36.9766,105.75C34.5,105.75,32.7969,103.9062,32.6562,101L41.4375,101C41.4844,100.6641,41.5391,100.2344,41.5391,99.7578C41.5391,95.9219,39.6641,93.5,36.3281,93.5C33.3516,93.5,30.4922,96.1484,30.4922,100.5C30.4922,104.9531,33.2578,107.5,36.7344,107.5ZM32.6328,99.4453C32.8906,96.7656,34.5234,95.2578,36.375,95.2578C38.4141,95.2578,39.6172,96.7188,39.6172,99.4453L32.6328,99.4453ZM48.3594,107.5C51.4375,107.5,53.0938,105.75,53.0938,103.5703C53.0938,101.0234,51.0234,100.2344,49.1328,99.4922C47.6641,98.9219,46.3203,98.4219,46.3203,97.1641C46.3203,96.1016,47.0938,95.2109,48.75,95.2109C49.8984,95.2109,50.8125,95.7266,51.6953,96.3984L52.7578,94.9922C51.7734,94.1797,50.3281,93.5,48.7188,93.5C45.8672,93.5,44.2344,95.1328,44.2344,97.2578C44.2344,99.5625,46.2031,100.4531,48.0234,101.1484C49.4688,101.6875,51,102.3359,51,103.6953C51,104.8594,50.1641,105.7969,48.4375,105.7969C46.875,105.7969,45.7188,105.1562,44.5703,104.1875L43.5156,105.7031C44.7344,106.7344,46.5156,107.5,48.3594,107.5ZM59.3594,107.5C62.4375,107.5,64.0938,105.75,64.0938,103.5703C64.0938,101.0234,62.0234,100.2344,60.1328,99.4922C58.6641,98.9219,57.3203,98.4219,57.3203,97.1641C57.3203,96.1016,58.0938,95.2109,59.75,95.2109C60.8984,95.2109,61.8125,95.7266,62.6953,96.3984L63.7578,94.9922C62.7734,94.1797,61.3281,93.5,59.7188,93.5C56.8672,93.5,55.2344,95.1328,55.2344,97.2578C55.2344,99.5625,57.2031,100.4531,59.0234,101.1484C60.4688,101.6875,62,102.3359,62,103.6953C62,104.8594,61.1641,105.7969,59.4375,105.7969C57.875,105.7969,56.7188,105.1562,55.5703,104.1875L54.5156,105.7031C55.7344,106.7344,57.5156,107.5,59.3594,107.5ZM69.9531,107.5C71.5625,107.5,73.0234,106.6641,74.2734,105.625L74.3438,105.625L74.5391,107L76.3359,107L76.3359,98.8984C76.3359,95.6172,75.0156,93.5,71.8281,93.5C69.7109,93.5,67.8906,94.4375,66.7109,95.2109L67.5547,96.7344C68.5859,96.0312,69.9531,95.3281,71.4688,95.3281C73.6016,95.3281,74.1562,96.9531,74.1562,98.6562C68.6094,99.2812,66.1641,100.7188,66.1641,103.5781C66.1641,106.1562,67.7734,107.5,69.9531,107.5ZM70.5781,105.7266C69.2812,105.7266,68.2734,105.1328,68.2734,103.6016C68.2734,101.8672,69.7656,100.75,74.1562,100.2344L74.1562,103.9688C72.8828,105.1328,71.8281,105.7266,70.5781,105.7266ZM84.8438,113C88.8828,113,91.4453,110.9609,91.4453,108.7109C91.4453,106.6406,89.9141,105.7031,86.9141,105.7031L84.3438,105.7031C82.5938,105.7031,82.0625,105.0625,82.0625,104.1875C82.0625,103.4141,82.4219,102.9531,82.9062,102.5469C83.4766,102.8359,84.1953,103,84.8203,103C87.5078,103,89.6016,101.25,89.6016,98.4141C89.6016,97.2734,89.1641,96.2969,88.5469,95.6875L91.2109,95.6875L91.2109,94L86.6719,94C86.2109,93.6484,85.5703,93.5,84.8203,93.5C82.2031,93.5,79.9531,95.3125,79.9531,98.2891C79.9531,99.9141,80.7891,101.2422,81.6562,101.9219L81.6562,102.0234C80.9609,102.5,80.2109,103.3516,80.2109,104.3984C80.2109,105.3984,80.7188,106.0703,81.3906,106.4688L81.3906,106.5859C80.1641,107.3125,79.4688,108.3984,79.4688,109.5234C79.4688,111.7578,81.6797,113,84.8438,113ZM84.8203,101.5156C83.3359,101.5156,82.0625,100.2656,82.0625,98.2891C82.0625,96.2891,83.3125,95.1094,84.8203,95.1094C86.3828,95.1094,87.6094,96.2891,87.6094,98.2891C87.6094,100.2656,86.3359,101.5156,84.8203,101.5156ZM85.1562,111.4922C82.7812,111.4922,81.3906,110.6016,81.3906,109.2109C81.3906,108.4688,81.7734,107.6719,82.7109,107C83.2891,107.4531,83.9141,107.5,84.3906,107.5L86.6484,107.5C88.375,107.5,89.2891,107.9062,89.2891,109.0391C89.2891,110.1953,87.6797,111.4922,85.1562,111.4922ZM99.2344,107.5C100.984,107.5,102.383,106.9297,103.508,106.1875L102.742,104.6797C101.758,105.3516,100.75,105.75,99.4766,105.75C97,105.75,95.2969,103.9062,95.1562,101L103.938,101C103.984,100.6641,104.039,100.2344,104.039,99.7578C104.039,95.9219,102.164,93.5,98.8281,93.5C95.8516,93.5,92.9922,96.1484,92.9922,100.5C92.9922,104.9531,95.7578,107.5,99.2344,107.5ZM95.1328,99.4453C95.3906,96.7656,97.0234,95.2578,98.875,95.2578C100.914,95.2578,102.117,96.7188,102.117,99.4453L95.1328,99.4453ZM113.172,107L115.375,107L115.375,100L118.281,100C122.148,100,124.766,98.2969,124.766,94.625C124.766,90.8203,122.125,89.5,118.188,89.5L113.172,89.5L113.172,107ZM115.375,98.2031L115.375,91.3047L117.898,91.3047C120.992,91.3047,122.555,92.0859,122.555,94.625C122.555,97.1094,121.094,98.2031,117.992,98.2031L115.375,98.2031ZM127.953,107L130.164,107L130.164,98.5312C131.023,96.2969,132.344,95.4688,133.43,95.4688C133.977,95.4688,134.266,95.5469,134.695,95.6875L135.109,94C134.695,93.5781,134.289,93.5,133.711,93.5C132.273,93.5,130.93,94.5625,130.016,96.2266L129.969,96.2266L129.758,94L127.953,94L127.953,107ZM142.516,107.5C145.711,107.5,148.547,104.9844,148.547,100.5312C148.547,96.0469,145.711,93.5,142.516,93.5C139.328,93.5,136.492,96.0469,136.492,100.5312C136.492,104.9844,139.328,107.5,142.516,107.5ZM142.516,105.6797C140.266,105.6797,138.75,103.625,138.75,100.5312C138.75,97.4297,140.266,95.3516,142.516,95.3516C144.773,95.3516,146.312,97.4297,146.312,100.5312C146.312,103.625,144.773,105.6797,142.516,105.6797ZM151.953,112.5L154.164,112.5L154.164,108.2422L154.094,105.9922C155.266,106.9766,156.516,107.5,157.688,107.5C160.664,107.5,163.352,104.9141,163.352,100.3047C163.352,96.1484,161.531,93.5,158.172,93.5C156.656,93.5,155.195,94.3672,154.016,95.3516L153.969,95.3516L153.758,94L151.953,94L151.953,112.5ZM157.328,105.6562C156.469,105.6562,155.312,105.3125,154.164,104.2969L154.164,97.1875C155.414,96,156.539,95.3516,157.617,95.3516C160.117,95.3516,161.078,97.3359,161.078,100.3281C161.078,103.6875,159.492,105.6562,157.328,105.6562ZM169.953,107.5C171.562,107.5,173.023,106.6641,174.273,105.625L174.344,105.625L174.539,107L176.336,107L176.336,98.8984C176.336,95.6172,175.016,93.5,171.828,93.5C169.711,93.5,167.891,94.4375,166.711,95.2109L167.555,96.7344C168.586,96.0312,169.953,95.3281,171.469,95.3281C173.602,95.3281,174.156,96.9531,174.156,98.6562C168.609,99.2812,166.164,100.7188,166.164,103.5781C166.164,106.1562,167.773,107.5,169.953,107.5ZM170.578,105.7266C169.281,105.7266,168.273,105.1328,168.273,103.6016C168.273,101.8672,169.766,100.75,174.156,100.2344L174.156,103.9688C172.883,105.1328,171.828,105.7266,170.578,105.7266ZM184.844,113C188.883,113,191.445,110.9609,191.445,108.7109C191.445,106.6406,189.914,105.7031,186.914,105.7031L184.344,105.7031C182.594,105.7031,182.062,105.0625,182.062,104.1875C182.062,103.4141,182.422,102.9531,182.906,102.5469C183.477,102.8359,184.195,103,184.82,103C187.508,103,189.602,101.25,189.602,98.4141C189.602,97.2734,189.164,96.2969,188.547,95.6875L191.211,95.6875L191.211,94L186.672,94C186.211,93.6484,185.57,93.5,184.82,93.5C182.203,93.5,179.953,95.3125,179.953,98.2891C179.953,99.9141,180.789,101.2422,181.656,101.9219L181.656,102.0234C180.961,102.5,180.211,103.3516,180.211,104.3984C180.211,105.3984,180.719,106.0703,181.391,106.4688L181.391,106.5859C180.164,107.3125,179.469,108.3984,179.469,109.5234C179.469,111.7578,181.68,113,184.844,113ZM184.82,101.5156C183.336,101.5156,182.062,100.2656,182.062,98.2891C182.062,96.2891,183.312,95.1094,184.82,95.1094C186.383,95.1094,187.609,96.2891,187.609,98.2891C187.609,100.2656,186.336,101.5156,184.82,101.5156ZM185.156,111.4922C182.781,111.4922,181.391,110.6016,181.391,109.2109C181.391,108.4688,181.773,107.6719,182.711,107C183.289,107.4531,183.914,107.5,184.391,107.5L186.648,107.5C188.375,107.5,189.289,107.9062,189.289,109.0391C189.289,110.1953,187.68,111.4922,185.156,111.4922ZM196.953,107.5C198.562,107.5,200.023,106.6641,201.273,105.625L201.344,105.625L201.539,107L203.336,107L203.336,98.8984C203.336,95.6172,202.016,93.5,198.828,93.5C196.711,93.5,194.891,94.4375,193.711,95.2109L194.555,96.7344C195.586,96.0312,196.953,95.3281,198.469,95.3281C200.602,95.3281,201.156,96.9531,201.156,98.6562C195.609,99.2812,193.164,100.7188,193.164,103.5781C193.164,106.1562,194.773,107.5,196.953,107.5ZM197.578,105.7266C196.281,105.7266,195.273,105.1328,195.273,103.6016C195.273,101.8672,196.766,100.75,201.156,100.2344L201.156,103.9688C199.883,105.1328,198.828,105.7266,197.578,105.7266ZM211.531,107.5C212.352,107.5,213.211,107.2656,213.961,107.0234L213.523,105.3594C213.094,105.5547,212.516,105.7266,212.039,105.7266C210.523,105.7266,210.023,104.8047,210.023,103.1953L210.023,95.7812L213.578,95.7812L213.578,94L210.023,94L210.023,90.3281L208.195,90.3281L207.961,94L205.891,94.125L205.891,95.7812L207.836,95.7812L207.836,103.1172C207.836,105.7734,208.773,107.5,211.531,107.5ZM216.453,107L218.664,107L218.664,94L216.453,94L216.453,107ZM217.555,91.3828C218.422,91.3828,219.023,90.8047,219.023,89.9219C219.023,89.0781,218.422,88.5,217.555,88.5C216.695,88.5,216.117,89.0781,216.117,89.9219C216.117,90.8047,216.695,91.3828,217.555,91.3828ZM228.016,107.5C231.211,107.5,234.047,104.9844,234.047,100.5312C234.047,96.0469,231.211,93.5,228.016,93.5C224.828,93.5,221.992,96.0469,221.992,100.5312C221.992,104.9844,224.828,107.5,228.016,107.5ZM228.016,105.6797C225.766,105.6797,224.25,103.625,224.25,100.5312C224.25,97.4297,225.766,95.3516,228.016,95.3516C230.273,95.3516,231.812,97.4297,231.812,100.5312C231.812,103.625,230.273,105.6797,228.016,105.6797ZM237.453,107L239.664,107L239.664,97.4375C240.961,96.1016,241.867,95.4219,243.211,95.4219C244.945,95.4219,245.688,96.4688,245.688,98.9453L245.688,107L247.875,107L247.875,98.6562C247.875,95.3047,246.625,93.5,243.891,93.5C242.109,93.5,240.742,94.4844,239.516,95.7422L239.469,95.7422L239.258,94L237.453,94L237.453,107ZM260.266,107L262.828,107L267.438,94L265.281,94L262.805,101.3984C262.422,102.6641,261.992,103.9844,261.609,105.2266L261.484,105.2266C261.102,103.9844,260.695,102.6641,260.289,101.3984L257.836,94L255.555,94L260.266,107ZM269.953,107L272.164,107L272.164,94L269.953,94L269.953,107ZM271.055,91.3828C271.922,91.3828,272.523,90.8047,272.523,89.9219C272.523,89.0781,271.922,88.5,271.055,88.5C270.195,88.5,269.617,89.0781,269.617,89.9219C269.617,90.8047,270.195,91.3828,271.055,91.3828ZM279.453,107.5C281.062,107.5,282.523,106.6641,283.773,105.625L283.844,105.625L284.039,107L285.836,107L285.836,98.8984C285.836,95.6172,284.516,93.5,281.328,93.5C279.211,93.5,277.391,94.4375,276.211,95.2109L277.055,96.7344C278.086,96.0312,279.453,95.3281,280.969,95.3281C283.102,95.3281,283.656,96.9531,283.656,98.6562C278.109,99.2812,275.664,100.7188,275.664,103.5781C275.664,106.1562,277.273,107.5,279.453,107.5ZM280.078,105.7266C278.781,105.7266,277.773,105.1328,277.773,103.6016C277.773,101.8672,279.266,100.75,283.656,100.2344L283.656,103.9688C282.383,105.1328,281.328,105.7266,280.078,105.7266ZM295.43,107L306.594,107L306.594,104.0312L298.984,104.0312L298.984,99L305.195,99L305.195,96.0312L298.984,96.0312L298.984,91.9766L306.328,91.9766L306.328,89L295.43,89L295.43,107ZM314.867,107.5C316.266,107.5,317.609,106.7578,318.594,105.7734L318.688,105.7734L318.953,107L321.828,107L321.828,87.625L318.305,87.625L318.305,92.3594L318.422,94.4688C317.461,93.5781,316.523,93,315.016,93C312.133,93,309.375,95.6953,309.375,100.1484C309.375,104.8672,311.508,107.5,314.867,107.5ZM315.781,104.6016C314.008,104.6016,313,103.1406,313,100.2031C313,97.4141,314.273,95.9062,315.781,95.9062C316.648,95.9062,317.484,96.1797,318.305,96.9609L318.305,103.1406C317.531,104.1953,316.719,104.6016,315.781,104.6016ZM330.367,113C334.859,113,337.688,110.9375,337.688,108.2812C337.688,105.9453,335.914,104.9375,332.672,104.9375L330.367,104.9375C328.812,104.9375,328.258,104.5547,328.258,103.8594C328.258,103.2891,328.5,103,328.836,102.6953C329.438,102.9062,330.062,103,330.562,103C333.469,103,335.773,101.4922,335.773,98.2812C335.773,97.3828,335.508,96.5859,335.172,96.0938L337.453,96.0938L337.453,93.5L332.625,93.5C332.055,93.1484,331.352,93,330.562,93C327.727,93,325.164,94.7109,325.164,98.0859C325.164,99.8203,326.023,101.1797,326.961,101.8516L326.961,101.9453C326.148,102.5234,325.477,103.4531,325.477,104.4375C325.477,105.5625,325.977,106.2578,326.695,106.7109L326.695,106.8281C325.43,107.5312,324.781,108.4688,324.781,109.5703C324.781,111.9219,327.203,113,330.367,113ZM330.562,100.8203C329.414,100.8203,328.477,99.8438,328.477,98.0859C328.477,96.375,329.383,95.4297,330.562,95.4297C331.766,95.4297,332.695,96.375,332.695,98.0859C332.695,99.8438,331.766,100.8203,330.562,100.8203ZM330.898,110.75C328.953,110.75,327.703,110.1328,327.703,109.0547C327.703,108.4922,327.969,107.9766,328.57,107.5C329.078,107.6953,329.625,107.7422,330.422,107.7422L332.078,107.7422C333.516,107.7422,334.305,107.9922,334.305,108.9141C334.305,109.875,332.938,110.75,330.898,110.75ZM346,107.5C347.656,107.5,349.359,106.9297,350.68,106.0156L349.477,103.8359C348.492,104.4453,347.562,104.7656,346.477,104.7656C344.461,104.7656,343.023,103.6172,342.734,101.3828L351.016,101.3828C351.109,101.0469,351.18,100.3984,351.18,99.75C351.18,95.6953,349.266,93,345.57,93C342.375,93,339.305,95.7188,339.305,100.375C339.305,104.8906,342.227,107.5,346,107.5ZM342.664,99C342.953,96.8516,344.195,95.7422,345.617,95.7422C347.367,95.7422,348.156,97.0156,348.156,99L342.664,99ZM357.984,107.5C361.461,107.5,363.336,105.6328,363.336,103.1875C363.336,100.6016,361.367,99.6484,359.594,98.9531C358.148,98.3984,356.93,98.0234,356.93,97C356.93,96.1953,357.5,95.6406,358.727,95.6406C359.711,95.6406,360.648,96.1484,361.609,96.8438L363.188,94.6562C362.086,93.7969,360.578,93,358.633,93C355.555,93,353.617,94.7109,353.617,97.1719C353.617,99.5234,355.508,100.6016,357.211,101.2812C358.633,101.8594,360.023,102.3359,360.023,103.3828C360.023,104.2656,359.422,104.8672,358.078,104.8672C356.805,104.8672,355.68,104.2891,354.477,103.3359L352.867,105.6328C354.211,106.7344,356.18,107.5,357.984,107.5Z" fill="#3D3D3D" fill-opacity="1"/></g><g style="mix-blend-mode:passthrough"><path d="M143.0039,52.75C146.5312,52.75,149.4492,51.4609,151.1367,49.6914L151.1367,38.5L142.4648,38.5L142.4648,41.2773L148.0781,41.2773L148.0781,48.2734C147.0352,49.2578,145.1953,49.8438,143.3203,49.8438C137.6719,49.8438,134.5078,45.6133,134.5078,38.898399999999995C134.5078,32.113299999999995,137.9531,27.918,143.2852,27.918C145.9102,27.918,147.6445,29.0781,148.9805,30.4844L150.7734,28.2578C149.2617,26.6641,146.8477,25,143.1797,25C136.1953,25,131.0859,30.2266,131.0859,39.0156C131.0859,47.6523,136.0547,52.75,143.0039,52.75ZM157.0547,52L160.3711,52L160.3711,39.2969C161.6602,35.9453,163.6406,34.7031,165.2695,34.7031C166.0898,34.7031,166.52339999999998,34.8203,167.168,35.0312L167.78910000000002,32.5C167.168,31.8672,166.5586,31.75,165.6914,31.75C163.5352,31.75,161.5195,33.3438,160.14839999999998,35.8398L160.0781,35.8398L159.76170000000002,32.5L157.0547,32.5L157.0547,52ZM175.8047,52.75C178.2188,52.75,180.4102,51.4961,182.2852,49.9375L182.3906,49.9375L182.6836,52L185.3789,52L185.3789,39.8477C185.3789,34.925799999999995,183.39839999999998,31.75,178.6172,31.75C175.4414,31.75,172.71089999999998,33.1562,170.9414,34.3164L172.207,36.601600000000005C173.7539,35.5469,175.8047,34.4922,178.0781,34.4922C181.2773,34.4922,182.1094,36.9297,182.1094,39.4844C173.78910000000002,40.4219,170.1211,42.5781,170.1211,46.8672C170.1211,50.7344,172.5352,52.75,175.8047,52.75ZM176.7422,50.0898C174.7969,50.0898,173.2852,49.1992,173.2852,46.9023C173.2852,44.3008,175.52339999999998,42.625,182.1094,41.851600000000005L182.1094,47.4531C180.19920000000002,49.1992,178.6172,50.0898,176.7422,50.0898ZM191.5547,60.25L194.87099999999998,60.25L194.87099999999998,53.8633L194.76600000000002,50.4883C196.523,51.9648,198.398,52.75,200.156,52.75C204.62099999999998,52.75,208.652,48.8711,208.652,41.957C208.652,35.7227,205.922,31.75,200.88299999999998,31.75C198.60899999999998,31.75,196.418,33.050799999999995,194.648,34.5273L194.578,34.5273L194.262,32.5L191.5547,32.5L191.5547,60.25ZM199.61700000000002,49.9844C198.328,49.9844,196.594,49.4688,194.87099999999998,47.9453L194.87099999999998,37.2812C196.74599999999998,35.5,198.434,34.5273,200.051,34.5273C203.801,34.5273,205.24200000000002,37.5039,205.24200000000002,41.9922C205.24200000000002,47.0312,202.863,49.9844,199.61700000000002,49.9844ZM214.055,52L217.37099999999998,52L217.37099999999998,37.6562C219.316,35.6523,220.676,34.6328,222.691,34.6328C225.293,34.6328,226.406,36.2031,226.406,39.918L226.406,52L229.688,52L229.688,39.4844C229.688,34.457,227.812,31.75,223.711,31.75C221.039,31.75,219.023,33.226600000000005,217.23000000000002,35.0312L217.37099999999998,31L217.37099999999998,23.148400000000002L214.055,23.148400000000002L214.055,52ZM240.914,52.75C245.531,52.75,248.016,50.125,248.016,46.8555C248.016,43.0352,244.91,41.851600000000005,242.074,40.738299999999995C239.871,39.8828,237.855,39.1328,237.855,37.2461C237.855,35.6523,239.016,34.3164,241.5,34.3164C243.223,34.3164,244.594,35.0898,245.918,36.0977L247.512,33.988299999999995C246.035,32.7695,243.867,31.75,241.453,31.75C237.176,31.75,234.727,34.199200000000005,234.727,37.386700000000005C234.727,40.8438,237.68,42.1797,240.41,43.2227C242.578,44.0312,244.875,45.0039,244.875,47.043C244.875,48.7891,243.621,50.1953,241.031,50.1953C238.688,50.1953,236.953,49.2344,235.23,47.7812L233.648,50.0547C235.477,51.6016,238.148,52.75,240.914,52.75Z" fill="#3D3D3D" fill-opacity="1"/></g><g style="mix-blend-mode:passthrough"><path d="M664.8828,42L668.1875,42L668.1875,29.8828L680.5039,29.8828L680.5039,42L683.8555,42L683.8555,15.75L680.5039,15.75L680.5039,27L668.1875,27L668.1875,15.75L664.8828,15.75L664.8828,42ZM691.1328,50.25C695.0234,50.25,697.0742,47.3086,698.4336,43.5234L705.7812,22.5L702.582,22.5L699.0547,33.2461C698.5508,34.9922,697.9766,36.9609,697.4727,38.7422L697.2852,38.7422C696.6055,36.9258,695.9492,34.957,695.3398,33.2461L691.3789,22.5L687.957,22.5L695.8086,41.918L695.375,43.3828C694.5547,45.7734,693.1836,47.5547,690.9922,47.5547C690.4414,47.5547,689.8672,47.3789,689.4688,47.2383L688.8242,49.8633C689.4336,50.1094,690.2305,50.25,691.1328,50.25ZM709.5547,50.25L712.8711,50.25L712.8711,43.8633L712.7656,40.4883C714.5234,41.9648,716.3984,42.75,718.1562,42.75C722.6211,42.75,726.6523,38.8711,726.6523,31.957C726.6523,25.7227,723.9219,21.75,718.8828,21.75C716.6094,21.75,714.418,23.0508,712.6484,24.5273L712.5781,24.5273L712.2617,22.5L709.5547,22.5L709.5547,50.25ZM717.6172,39.9844C716.3281,39.9844,714.5938,39.4688,712.8711,37.9453L712.8711,27.2812C714.7461,25.5,716.4336,24.5273,718.0508,24.5273C721.8008,24.5273,723.2422,27.5039,723.2422,31.9922C723.2422,37.0312,720.8633,39.9844,717.6172,39.9844ZM739.9766,42.75C742.6016,42.75,744.6992,41.8945,746.3867,40.7812L745.2383,38.5195C743.7617,39.5273,742.25,40.125,740.3398,40.125C736.625,40.125,734.0703,37.3594,733.8594,33L747.0312,33C747.1016,32.4961,747.1836,31.8516,747.1836,31.1367C747.1836,25.3828,744.3711,21.75,739.3672,21.75C734.9023,21.75,730.6133,25.7227,730.6133,32.25C730.6133,38.9297,734.7617,42.75,739.9766,42.75ZM733.8242,30.668C734.2109,26.6484,736.6602,24.3867,739.4375,24.3867C742.4961,24.3867,744.3008,26.5781,744.3008,30.668L733.8242,30.668ZM752.3050000000001,42L755.621,42L755.621,29.2969C756.91,25.9453,758.891,24.7031,760.52,24.7031C761.34,24.7031,761.773,24.8203,762.418,25.0312L763.039,22.5C762.418,21.8672,761.809,21.75,760.941,21.75C758.785,21.75,756.77,23.3438,755.398,25.8398L755.328,25.8398L755.012,22.5L752.3050000000001,22.5L752.3050000000001,42ZM773.141,51C779.1990000000001,51,783.043,47.9414,783.043,44.5664C783.043,41.4609,780.746,40.0547,776.246,40.0547L772.391,40.0547C769.766,40.0547,768.969,39.0938,768.969,37.7812C768.969,36.6211,769.508,35.9297,770.234,35.3203C771.09,35.7539,772.168,36,773.105,36C777.137,36,780.277,33.375,780.277,29.1211C780.277,27.4102,779.621,25.9453,778.6949999999999,25.0312L782.691,25.0312L782.691,22.5L775.883,22.5C775.191,21.9727,774.23,21.75,773.105,21.75C769.1800000000001,21.75,765.8050000000001,24.4688,765.8050000000001,28.9336C765.8050000000001,31.3711,767.059,33.3633,768.359,34.3828L768.359,34.5352C767.316,35.25,766.191,36.5273,766.191,38.0977C766.191,39.5977,766.953,40.6055,767.961,41.2031L767.961,41.3789C766.121,42.4688,765.078,44.0977,765.078,45.7852C765.078,49.1367,768.395,51,773.141,51ZM773.105,33.7734C770.879,33.7734,768.969,31.8984,768.969,28.9336C768.969,25.9336,770.844,24.1641,773.105,24.1641C775.449,24.1641,777.289,25.9336,777.289,28.9336C777.289,31.8984,775.379,33.7734,773.105,33.7734ZM773.609,48.7383C770.047,48.7383,767.961,47.4023,767.961,45.3164C767.961,44.2031,768.535,43.0078,769.941,42C770.809,42.6797,771.746,42.75,772.461,42.75L775.848,42.75C778.438,42.75,779.809,43.3594,779.809,45.0586C779.809,46.793,777.395,48.7383,773.609,48.7383ZM786.8050000000001,42L790.121,42L790.121,29.2969C791.41,25.9453,793.391,24.7031,795.02,24.7031C795.84,24.7031,796.273,24.8203,796.918,25.0312L797.539,22.5C796.918,21.8672,796.309,21.75,795.441,21.75C793.285,21.75,791.27,23.3438,789.898,25.8398L789.828,25.8398L789.512,22.5L786.8050000000001,22.5L786.8050000000001,42ZM805.5550000000001,42.75C807.969,42.75,810.16,41.4961,812.035,39.9375L812.141,39.9375L812.434,42L815.129,42L815.129,29.8477C815.129,24.9258,813.148,21.75,808.367,21.75C805.191,21.75,802.461,23.1562,800.691,24.3164L801.957,26.6016C803.504,25.5469,805.5550000000001,24.4922,807.828,24.4922C811.027,24.4922,811.859,26.9297,811.859,29.4844C803.539,30.4219,799.871,32.5781,799.871,36.8672C799.871,40.7344,802.285,42.75,805.5550000000001,42.75ZM806.492,40.0898C804.547,40.0898,803.035,39.1992,803.035,36.9023C803.035,34.3008,805.273,32.625,811.859,31.8516L811.859,37.4531C809.9490000000001,39.1992,808.367,40.0898,806.492,40.0898ZM821.3050000000001,50.25L824.621,50.25L824.621,43.8633L824.516,40.4883C826.273,41.9648,828.148,42.75,829.906,42.75C834.371,42.75,838.402,38.8711,838.402,31.957C838.402,25.7227,835.672,21.75,830.633,21.75C828.359,21.75,826.168,23.0508,824.398,24.5273L824.328,24.5273L824.012,22.5L821.3050000000001,22.5L821.3050000000001,50.25ZM829.367,39.9844C828.078,39.9844,826.344,39.4688,824.621,37.9453L824.621,27.2812C826.496,25.5,828.184,24.5273,829.8009999999999,24.5273C833.5509999999999,24.5273,834.992,27.5039,834.992,31.9922C834.992,37.0312,832.613,39.9844,829.367,39.9844ZM843.8050000000001,42L847.121,42L847.121,27.6562C849.066,25.6523,850.4259999999999,24.6328,852.441,24.6328C855.043,24.6328,856.156,26.2031,856.156,29.918L856.156,42L859.438,42L859.438,29.4844C859.438,24.457,857.562,21.75,853.461,21.75C850.789,21.75,848.773,23.2266,846.98,25.0312L847.121,21L847.121,13.1484L843.8050000000001,13.1484L843.8050000000001,42ZM870.664,42.75C875.281,42.75,877.766,40.125,877.766,36.8555C877.766,33.0352,874.66,31.8516,871.8240000000001,30.7383C869.621,29.8828,867.605,29.1328,867.605,27.2461C867.605,25.6523,868.766,24.3164,871.25,24.3164C872.973,24.3164,874.344,25.0898,875.668,26.0977L877.262,23.9883C875.785,22.7695,873.617,21.75,871.203,21.75C866.9259999999999,21.75,864.477,24.1992,864.477,27.3867C864.477,30.8438,867.4300000000001,32.1797,870.16,33.2227C872.328,34.0312,874.625,35.0039,874.625,37.043C874.625,38.7891,873.371,40.1953,870.781,40.1953C868.438,40.1953,866.703,39.2344,864.98,37.7812L863.398,40.0547C865.227,41.6016,867.898,42.75,870.664,42.75Z" fill="#3D3D3D" fill-opacity="1"/></g><g style="mix-blend-mode:passthrough"><path d="M256,203L133,203L133,199L256,199L256,203Z" fill="#000000" fill-opacity="1"/></g><g style="mix-blend-mode:passthrough"><path d="M256,313L133,313L133,309L256,309L256,313Z" fill="#000000" fill-opacity="1"/></g><g style="mix-blend-mode:passthrough"><path d="M203,421L174,421L174,419L203,419L203,421ZM212,420L201.9541,425.8L201.9541,414.2L212,420Z" fill="#000000" fill-opacity="1"/></g><g style="mix-blend-mode:passthrough"><path d="M774,423L745,423L745,421L774,421L774,423ZM783,422L772.9541,427.8L772.9541,416.2L783,422Z" fill="#000000" fill-opacity="1"/></g><g style="mix-blend-mode:passthrough"><path d="M860,298.5Q850.679,298.5,841.436,289.773Q837.962,286.493,834.0550000000001,281.5697Q831.765,278.6844,827.575,272.8888Q824.7719999999999,269.012,823.451,267.2816Q821.3050000000001,264.4712,819.693,262.7469Q816.19,259,814,259L814,255Q816.22,255,818.565,256.4971Q820.451,257.7009,822.615,260.0152Q824.363,261.885,826.63,264.8541Q827.984,266.62649999999996,830.817,270.5453Q834.954,276.2685,837.188,279.08320000000003Q840.917,283.7817,844.182,286.865Q852.269,294.5,860,294.5L860,298.5ZM666,333.5Q670.2314,333.5,674.38999,330.553Q678.2989,327.78200000000004,682.3869,322.243Q685.8759,317.51599999999996,689.9729,310.067Q692.4533,305.557,697.3239,295.877Q702.3271,285.933,704.913,281.2425Q709.2607,273.3573,713.0444,268.26980000000003Q717.6839,262.0317,722.3157,258.7919Q727.7367,255,733.5,255L733.5,259Q728.9968,259,724.6084,262.0696Q720.5072,264.9384,716.2541,270.6569Q712.6324,275.5265,708.4159,283.1739Q705.8663,287.798,700.8971,297.675Q695.9935,307.421,693.4777,311.995Q689.2524,319.677,685.6052999999999,324.619Q681.1359,330.674,676.703,333.81600000000003Q671.50518,337.5,666,337.5L666,333.5ZM668,255L733.5,255L733.5,259L668,259L668,255ZM860,219.5Q855.4010000000001,219.5,847.782,226.5119Q844.634,229.4095,840.598,233.8644Q838.178,236.5351,833.44,242.0521Q829.792,246.2996,828.064,248.2387Q825.179,251.4769,823.082,253.5236Q820.511,256.0329,818.54,257.3358Q816.023,259,814,259L753.0317,259L733.5,259Q729.5968,259,725.6525,256.0354Q722.3649,253.5643,718.7655,248.7841Q715.8214,244.8742,712.1566,238.7067Q709.963,235.0151,705.4931,226.9718Q699.9668,217.0274,697.0591,212.2468Q692.2158,204.284,688.0304,199.1249Q683.061,192.99965,678.3201,189.88678Q673.16195,186.5,668,186.5L668,182.5Q674.35777,182.5,680.5155,186.54311Q685.7759,189.99702,691.1367,196.6048Q695.4926,201.9741,700.4766,210.1681Q703.4251,215.0158,708.9895,225.0288Q713.4313,233.0216,715.5953,236.6634Q719.1484,242.6429,721.9609,246.378Q728.4532,255,733.5,255L753.0317,255L814,255Q815.842,255,820.288,250.6609Q823.289,247.7323,830.405,239.446Q835.178,233.8884,837.633,231.1789Q841.7909999999999,226.5892,845.073,223.5687Q849.13,219.8358,852.5,217.87279999999998Q856.575,215.5,860,215.5L860,219.5ZM814,259L733.5,259L733.5,255L814,255L814,259Z" fill="#000000" fill-opacity="1"/></g><g style="mix-blend-mode:passthrough"><ellipse cx="653.0007591247559" cy="184.386625289917" rx="15.00075912475586" ry="15.000761032104492" transform="matrix(0.9999478459358215,-0.012446580454707146,0.012447524815797806,0.9999478459358215,-2.075160455848618,7.949752491338586)" fill="#82318E" fill-opacity="1"/></g><g style="mix-blend-mode:passthrough"><ellipse cx="653.0007591247559" cy="334.374174118042" rx="15.00075912475586" ry="15.000761032104492" transform="matrix(0.9999478459358215,-0.012446580454707146,0.012447524815797806,0.9999478459358215,-3.942134191947389,7.957574951586139)" fill="#82318E" fill-opacity="1"/></g><g style="mix-blend-mode:passthrough"><ellipse cx="653.0007591247559" cy="257.386625289917" rx="15.00075912475586" ry="15.000761032104492" transform="matrix(0.9999478459358215,-0.012446580454707146,0.012447524815797806,0.9999478459358215,-2.9838297674018577,7.953559738023614)" fill="#82318E" fill-opacity="1"/></g><g style="mix-blend-mode:passthrough"><ellipse cx="119.0011396408081" cy="201.37455463409424" rx="15.001139640808105" ry="15.001141548156738" transform="matrix(0.9999478459358215,-0.012446579523384571,0.012447524815797806,0.9999478459358215,-2.314463661717582,1.3041644013792393)" fill="#82318E" fill-opacity="1"/></g><g style="mix-blend-mode:passthrough"><ellipse cx="119.0011396408081" cy="311.37455463409424" rx="15.001139640808105" ry="15.001141548156738" transform="matrix(0.9999478459358215,-0.012446579523384571,0.012447524815797806,0.9999478459358215,-3.6836913914553406,1.3099013484388706)" fill="#82318E" fill-opacity="1"/></g><g style="mix-blend-mode:passthrough"><ellipse cx="269.0011396408081" cy="201.37455463409424" rx="15.001139640808105" ry="15.001141548156738" transform="matrix(0.9999478459358215,-0.012446579523384571,0.012447524815797806,0.9999478459358215,-2.306640552090812,3.171151329886925)" fill="#82318E" fill-opacity="1"/></g><g style="mix-blend-mode:passthrough"><ellipse cx="269.0011396408081" cy="311.37455463409424" rx="15.001139640808105" ry="15.001141548156738" transform="matrix(0.9999478459358215,-0.012446579523384571,0.012447524815797806,0.9999478459358215,-3.6758682818285706,3.1768882769465563)" fill="#82318E" fill-opacity="1"/></g></g></g></svg>