<svg xmlns="http://www.w3.org/2000/svg" xmlns:xlink="http://www.w3.org/1999/xlink" fill="none" version="1.1" width="901" height="439" viewBox="0 0 901 439"><g style="mix-blend-mode:passthrough"><g><g style="mix-blend-mode:passthrough"><ellipse cx="597.5" cy="259.5" rx="38.5" ry="119.5" fill="#F5F5F5" fill-opacity="1"/><path d="M582.0524,150.0411Q584.312,146.96886,586.6794,144.81686L588.0246,146.29681Q585.8049,148.31458,583.6635,151.226L582.0524,150.0411ZM575.1498,162.198Q576.668,158.8382,578.2837,155.9496L580.0292,156.9259Q578.4553,159.7398,576.9724,163.0216L575.1498,162.198ZM570.1823,175.2939Q571.2899,171.832,572.4847,168.662L574.3562,169.3674Q573.1793,172.4899,572.0872,175.9033L570.1823,175.2939ZM566.46338,188.7898Q567.29045,185.2924,568.19706,181.9903L570.1257,182.5199Q569.2285,185.7875,568.4097,189.2501L566.46338,188.7898ZM563.66234,202.49779999999998Q564.27554,198.9909,564.96274,195.6188L566.92246,196.0182Q566.24085,199.3629,565.63245,202.8423L563.66234,202.49779999999998ZM561.59733,216.35160000000002Q562.03741,212.8237,562.5485,209.3893L564.52672,209.6837Q564.0191,213.09480000000002,563.58195,216.5992L561.59733,216.35160000000002ZM560.16792,230.2895Q560.45404,226.7665,560.80859,223.3039L562.79819,223.5077Q562.44578,226.9493,562.16135,230.4514L560.16792,230.2895ZM559.313458,244.28199999999998Q559.459245,240.75799999999998,559.672244,237.2663L561.66853,237.3881Q561.45673,240.86,561.31175,244.365L559.313458,244.28199999999998ZM559.00204193,258.269Q559.0136502,254.77100000000002,559.091173,251.281L561.09068,251.325Q561.01358,254.797,561.00203,258.276L559.00204193,258.269ZM559.219139,272.23199999999997Q559.0982042,268.72900000000004,559.0439706,265.21L561.04373,265.179Q561.09767,268.679,561.21795,272.163L559.219139,272.23199999999997ZM559.97464,286.21799999999996Q559.717837,282.743,559.528228,279.227L561.52533,279.12Q561.71386,282.616,561.9692,286.071L559.97464,286.21799999999996ZM561.29881,300.174Q560.89654,296.725,560.56319,293.206L562.55428,293.017Q562.88559,296.515,563.28534,299.943L561.29881,300.174ZM563.24265,314.034Q562.68128,310.63599999999997,562.19094,307.134L564.17161,306.85699999999997Q564.65852,310.334,565.21589,313.70799999999997L563.24265,314.034ZM565.90557,327.789Q565.15319,324.435,564.47638,320.93L566.44011,320.551Q567.11125,324.026,567.85706,327.351L565.90557,327.789ZM569.4449,341.337Q568.45546,338.06899999999996,567.54768,334.58000000000004L569.4832,334.077Q570.3811,337.527,571.3591,340.75800000000004L569.4449,341.337ZM574.1531,354.52Q572.8414,351.416,571.6201,347.974L573.505,347.305Q574.7067,350.69100000000003,575.9955,353.74199999999996L574.1531,354.52ZM580.6284,366.91499999999996Q578.8184,364.175,577.1102,360.865L578.8875,359.948Q580.5463,363.163,582.297,365.812L580.6284,366.91499999999996ZM590.2764,376.878Q587.539,375.255,584.9056,372.425L586.3696,371.063Q588.8069,373.68100000000004,591.2964,375.15700000000004L590.2764,376.878ZM603.6201,377.481Q600.5796,379,597.5,379Q597.1902,379,596.8805,378.985L596.9804,376.98699999999997Q597.2401,377,597.5,377Q600.1077,377,602.726,375.69100000000003L603.6201,377.481ZM613.6793,367.93600000000004Q611.5023,371.065,609.217,373.331L607.8087,371.911Q609.9645,369.773,612.0375,366.794L613.6793,367.93600000000004ZM620.3606,355.653Q618.8844,359.034,617.3112,361.96500000000003L615.5491,361.019Q617.0838,358.15999999999997,618.5277,354.853L620.3606,355.653ZM625.189,342.529Q624.1138,345.98400000000004,622.9528,349.159L621.0744,348.473Q622.2188,345.34299999999996,623.2794,341.935L625.189,342.529ZM628.819,329Q628.0145,332.493,627.1314,335.797L625.1992,335.281Q626.0734,332.01,626.87,328.551L628.819,329ZM631.5506,315.267Q630.9537,318.778,630.283,322.159L628.3212,321.77Q628.9866,318.416,629.5789,314.932L631.5506,315.267ZM633.5543,301.413Q633.1289,304.93899999999996,632.6327,308.374L630.6533,308.089Q631.1461,304.676,631.5687,301.173L633.5543,301.413ZM634.931,287.464Q634.6579,290.98699999999997,634.3165,294.451L632.3261,294.255Q632.6655,290.81100000000004,632.937,287.31L634.931,287.464ZM635.7359,273.473Q635.6024,276.994,635.4018,280.483L633.4051,280.368Q633.6045,276.899,633.7373,273.398L635.7359,273.473ZM636,259.5Q636,262.984,635.9346,266.462L633.935,266.425Q634,262.96500000000003,634,259.5L636,259.5ZM635.8215,248.006Q635.9308,251.51600000000002,635.9732,255.039L633.9733,255.063Q633.9311,251.559,633.8225,248.06900000000002L635.8215,248.006ZM635.1151,234.02679999999998Q635.3598,237.507,635.5372,241.026L633.5397,241.127Q633.3633,237.6275,633.12,234.1671L635.1151,234.02679999999998ZM633.8433,220.0655Q634.2323,223.5192,634.5525,227.0404L632.5607,227.2215Q632.2424,223.7215,631.8559,220.2893L633.8433,220.0655ZM631.9562,206.187Q632.5039,209.59730000000002,632.9805,213.10899999999998L630.9987,213.3779Q630.5253,209.89,629.9815,206.5042L631.9562,206.187ZM629.3647,192.4322Q630.0996,195.79579999999999,630.7591,199.3066L628.7935,199.6759Q628.1394,196.1938,627.4108,192.8591L629.3647,192.4322ZM625.9156,178.8703Q626.878,182.1378,627.7598,185.6173L625.8211,186.1086Q624.9487,182.6663,623.9971,179.43529999999998L625.9156,178.8703ZM621.3278,165.6367Q622.6017,168.7524,623.7868,172.18959999999998L621.896,172.8415Q620.7293,169.4574,619.4766,166.3936L621.3278,165.6367ZM615.0594,153.1528Q616.8116,155.9402,618.4632,159.2679L616.6716,160.157Q615.0649,156.9194,613.3662,154.2172L615.0594,153.1528ZM605.7697000000001,142.78931Q608.397,144.58281,610.9184,147.49295L609.4069,148.8026Q607.0553,146.08845,604.6421,144.44113L605.7697000000001,142.78931ZM599.3647,140.140239L599.067,142.11796Q598.2832,142,597.5,142Q595.384,142,593.2604,142.86185L592.5083,141.00867Q594.9936,140,597.5,140Q598.4329,140,599.3647,140.140239Z" fill-rule="evenodd" fill="#000000" fill-opacity="1"/></g><g style="mix-blend-mode:passthrough"><ellipse cx="819.5" cy="259.5" rx="38.5" ry="119.5" fill="#000000" fill-opacity="0.03999999910593033"/><path d="M804.0524,150.0411Q806.312,146.96886,808.6794,144.81686L810.0246,146.29681Q807.8049,148.31458,805.6635,151.226L804.0524,150.0411ZM797.1498,162.198Q798.668,158.8382,800.2837,155.9496L802.0292,156.9259Q800.4553,159.7398,798.9724,163.0216L797.1498,162.198ZM792.1823,175.2939Q793.2899,171.832,794.4847,168.662L796.3562,169.3674Q795.1793,172.4899,794.0872,175.9033L792.1823,175.2939ZM788.46338,188.7898Q789.29045,185.2924,790.19706,181.9903L792.1257,182.5199Q791.2285,185.7875,790.4097,189.2501L788.46338,188.7898ZM785.66234,202.49779999999998Q786.27554,198.9909,786.96274,195.6188L788.92246,196.0182Q788.24085,199.3629,787.63245,202.8423L785.66234,202.49779999999998ZM783.59733,216.35160000000002Q784.03741,212.8237,784.5485,209.3893L786.52672,209.6837Q786.0191,213.09480000000002,785.58195,216.5992L783.59733,216.35160000000002ZM782.16792,230.2895Q782.45404,226.7665,782.80859,223.3039L784.79819,223.5077Q784.44578,226.9493,784.16135,230.4514L782.16792,230.2895ZM781.313458,244.28199999999998Q781.459245,240.75799999999998,781.672244,237.2663L783.66853,237.3881Q783.45673,240.86,783.31175,244.365L781.313458,244.28199999999998ZM781.00204193,258.269Q781.0136502,254.77100000000002,781.091173,251.281L783.09068,251.325Q783.01358,254.797,783.00203,258.276L781.00204193,258.269ZM781.219139,272.23199999999997Q781.0982042,268.72900000000004,781.0439706,265.21L783.04373,265.179Q783.09767,268.679,783.21795,272.163L781.219139,272.23199999999997ZM781.97464,286.21799999999996Q781.717837,282.743,781.528228,279.227L783.52533,279.12Q783.71386,282.616,783.9692,286.071L781.97464,286.21799999999996ZM783.29881,300.174Q782.89654,296.725,782.56319,293.206L784.55428,293.017Q784.88559,296.515,785.28534,299.943L783.29881,300.174ZM785.24265,314.034Q784.68128,310.63599999999997,784.19094,307.134L786.17161,306.85699999999997Q786.65852,310.334,787.21589,313.70799999999997L785.24265,314.034ZM787.90557,327.789Q787.15319,324.435,786.47638,320.93L788.44011,320.551Q789.11125,324.026,789.85706,327.351L787.90557,327.789ZM791.4449,341.337Q790.45546,338.06899999999996,789.54768,334.58000000000004L791.4832,334.077Q792.3811,337.527,793.3591,340.75800000000004L791.4449,341.337ZM796.1531,354.52Q794.8414,351.416,793.6201,347.974L795.505,347.305Q796.7067,350.69100000000003,797.9955,353.74199999999996L796.1531,354.52ZM802.6284,366.91499999999996Q800.8184,364.175,799.1102,360.865L800.8875,359.948Q802.5463,363.163,804.297,365.812L802.6284,366.91499999999996ZM812.2764,376.878Q809.539,375.255,806.9056,372.425L808.3696,371.063Q810.8069,373.68100000000004,813.2964,375.15700000000004L812.2764,376.878ZM825.6201,377.481Q822.5796,379,819.5,379Q819.1902,379,818.8805,378.985L818.9804,376.98699999999997Q819.2401,377,819.5,377Q822.1077,377,824.726,375.69100000000003L825.6201,377.481ZM835.6793,367.93600000000004Q833.5023,371.065,831.217,373.331L829.8087,371.911Q831.9645,369.773,834.0375,366.794L835.6793,367.93600000000004ZM842.3606,355.653Q840.8844,359.034,839.3112,361.96500000000003L837.5491,361.019Q839.0838,358.15999999999997,840.5277,354.853L842.3606,355.653ZM847.189,342.529Q846.1138,345.98400000000004,844.9528,349.159L843.0744,348.473Q844.2188,345.34299999999996,845.2794,341.935L847.189,342.529ZM850.819,329Q850.0145,332.493,849.1314,335.797L847.1992,335.281Q848.0734,332.01,848.87,328.551L850.819,329ZM853.5506,315.267Q852.9537,318.778,852.283,322.159L850.3212,321.77Q850.9866,318.416,851.5789,314.932L853.5506,315.267ZM855.5543,301.413Q855.1289,304.93899999999996,854.6327,308.374L852.6533,308.089Q853.1461,304.676,853.5687,301.173L855.5543,301.413ZM856.931,287.464Q856.6579,290.98699999999997,856.3165,294.451L854.3261,294.255Q854.6655,290.81100000000004,854.937,287.31L856.931,287.464ZM857.7359,273.473Q857.6024,276.994,857.4018,280.483L855.4051,280.368Q855.6045,276.899,855.7373,273.398L857.7359,273.473ZM858,259.5Q858,262.984,857.9346,266.462L855.935,266.425Q856,262.96500000000003,856,259.5L858,259.5ZM857.8215,248.006Q857.9308,251.51600000000002,857.9732,255.039L855.9733,255.063Q855.9311,251.559,855.8225,248.06900000000002L857.8215,248.006ZM857.1151,234.02679999999998Q857.3598,237.507,857.5372,241.026L855.5397,241.127Q855.3633,237.6275,855.12,234.1671L857.1151,234.02679999999998ZM855.8433,220.0655Q856.2323,223.5192,856.5525,227.0404L854.5607,227.2215Q854.2424,223.7215,853.8559,220.2893L855.8433,220.0655ZM853.9562,206.187Q854.5039,209.59730000000002,854.9805,213.10899999999998L852.9987,213.3779Q852.5253,209.89,851.9815,206.5042L853.9562,206.187ZM851.3647,192.4322Q852.0996,195.79579999999999,852.7591,199.3066L850.7935,199.6759Q850.1394,196.1938,849.4108,192.8591L851.3647,192.4322ZM847.9156,178.8703Q848.878,182.1378,849.7598,185.6173L847.8211,186.1086Q846.9487,182.6663,845.9971,179.43529999999998L847.9156,178.8703ZM843.3278,165.6367Q844.6017,168.7524,845.7868,172.18959999999998L843.896,172.8415Q842.7293,169.4574,841.4766,166.3936L843.3278,165.6367ZM837.0594,153.1528Q838.8116,155.9402,840.4632,159.2679L838.6716,160.157Q837.0649,156.9194,835.3662,154.2172L837.0594,153.1528ZM827.7697000000001,142.78931Q830.397,144.58281,832.9184,147.49295L831.4069,148.8026Q829.0553,146.08845,826.6421,144.44113L827.7697000000001,142.78931ZM821.3647,140.140239L821.067,142.11796Q820.2832,142,819.5,142Q817.384,142,815.2604,142.86185L814.5083,141.00867Q816.9936,140,819.5,140Q820.4329,140,821.3647,140.140239Z" fill-rule="evenodd" fill="#000000" fill-opacity="1"/></g><g style="mix-blend-mode:passthrough"><ellipse cx="818.9996204376221" cy="216.37303352355957" rx="14.99962043762207" ry="14.99962043762207" transform="matrix(0.9999478459358215,-0.012447524815797806,0.012447524815797806,0.9999478459358215,-2.4646686890296223,10.018312393811357)" fill="#82318E" fill-opacity="1"/></g><g style="mix-blend-mode:passthrough"><ellipse cx="818.9996204376221" cy="296.37303352355957" rx="14.99962043762207" ry="14.99962043762207" transform="matrix(0.9999478459358215,-0.012447524815797806,0.012447524815797806,0.9999478459358215,-3.460470674293447,10.022484718945634)" fill="#82318E" fill-opacity="1"/></g><g style="mix-blend-mode:passthrough"><path d="M526.67188,106.964L528.66406,106.964L528.66406,97.2765C528.66406,95.7765,528.51562,93.6593,528.375,92.13589999999999L528.46875,92.13589999999999L529.8828,96.11240000000001L533.2266,105.2062L534.7109,105.2062L538.0234,96.11240000000001L539.4375,92.13589999999999L539.5391,92.13589999999999C539.4141,93.6593,539.25,95.7765,539.25,97.2765L539.25,106.964L541.3125,106.964L541.3125,89.464L538.6484,89.464L535.2891,98.82339999999999C534.8828,100.0187,534.5156,101.2531,534.0625,102.464L533.9688,102.464C533.5312,101.2531,533.1484,100.0187,532.6953,98.82339999999999L529.3359,89.464L526.67188,89.464L526.67188,106.964ZM551.2344,107.464C552.9844,107.464,554.3828,106.8937,555.5078,106.1515L554.7422,104.6437C553.7578,105.3156,552.75,105.714,551.4766,105.714C549,105.714,547.2969,103.8703,547.1562,100.964L555.9375,100.964C555.9844,100.6281,556.0391,100.19839999999999,556.0391,99.7218C556.0391,95.88589999999999,554.1641,93.464,550.8281,93.464C547.8516,93.464,544.9922,96.11240000000001,544.9922,100.464C544.9922,104.9171,547.7578,107.464,551.2344,107.464ZM547.1328,99.4093C547.3906,96.7296,549.0234,95.2218,550.875,95.2218C552.9141,95.2218,554.1172,96.6828,554.1172,99.4093L547.1328,99.4093ZM562.8594,107.464C565.9375,107.464,567.5938,105.714,567.5938,103.5343C567.5938,100.98740000000001,565.5234,100.19839999999999,563.6328,99.4562C562.1641,98.88589999999999,560.8203,98.38589999999999,560.8203,97.1281C560.8203,96.0656,561.5938,95.17490000000001,563.25,95.17490000000001C564.3984,95.17490000000001,565.3125,95.6906,566.1953,96.36240000000001L567.2578,94.9562C566.2734,94.1437,564.8281,93.464,563.2188,93.464C560.3672,93.464,558.7344,95.0968,558.7344,97.2218C558.7344,99.5265,560.7031,100.4171,562.5234,101.11240000000001C563.9688,101.6515,565.5,102.29990000000001,565.5,103.6593C565.5,104.82339999999999,564.6641,105.76089999999999,562.9375,105.76089999999999C561.375,105.76089999999999,560.2188,105.1203,559.0703,104.1515L558.0156,105.6671C559.2344,106.69839999999999,561.0156,107.464,562.8594,107.464ZM573.8594,107.464C576.9375,107.464,578.5938,105.714,578.5938,103.5343C578.5938,100.98740000000001,576.5234,100.19839999999999,574.6328,99.4562C573.1641,98.88589999999999,571.8203,98.38589999999999,571.8203,97.1281C571.8203,96.0656,572.5938,95.17490000000001,574.25,95.17490000000001C575.3984,95.17490000000001,576.3125,95.6906,577.1953,96.36240000000001L578.2578,94.9562C577.2734,94.1437,575.8281,93.464,574.2188,93.464C571.3672,93.464,569.7344,95.0968,569.7344,97.2218C569.7344,99.5265,571.7031,100.4171,573.5234,101.11240000000001C574.9688,101.6515,576.5,102.29990000000001,576.5,103.6593C576.5,104.82339999999999,575.6641,105.76089999999999,573.9375,105.76089999999999C572.375,105.76089999999999,571.2188,105.1203,570.0703,104.1515L569.0156,105.6671C570.2344,106.69839999999999,572.0156,107.464,573.8594,107.464ZM584.4531,107.464C586.0625,107.464,587.5234,106.6281,588.7734,105.589L588.8438,105.589L589.0391,106.964L590.8359,106.964L590.8359,98.86240000000001C590.8359,95.5812,589.5156,93.464,586.3281,93.464C584.2109,93.464,582.3906,94.4015,581.2109,95.17490000000001L582.0547,96.69839999999999C583.0859,95.9953,584.4531,95.2921,585.9688,95.2921C588.1016,95.2921,588.6562,96.9171,588.6562,98.6203C583.1094,99.2453,580.6641,100.6828,580.6641,103.5421C580.6641,106.1203,582.2734,107.464,584.4531,107.464ZM585.0781,105.6906C583.7812,105.6906,582.7734,105.0968,582.7734,103.5656C582.7734,101.8312,584.2656,100.714,588.6562,100.19839999999999L588.6562,103.9328C587.3828,105.0968,586.3281,105.6906,585.0781,105.6906ZM599.3438,112.964C603.3828,112.964,605.9453,110.92490000000001,605.9453,108.67490000000001C605.9453,106.6046,604.4141,105.6671,601.4141,105.6671L598.8438,105.6671C597.0938,105.6671,596.5625,105.0265,596.5625,104.1515C596.5625,103.3781,596.9219,102.9171,597.4062,102.51089999999999C597.9766,102.79990000000001,598.6953,102.964,599.3203,102.964C602.0078,102.964,604.1016,101.214,604.1016,98.3781C604.1016,97.23740000000001,603.6641,96.26089999999999,603.0469,95.6515L605.7109,95.6515L605.7109,93.964L601.1719,93.964C600.7109,93.6124,600.0703,93.464,599.3203,93.464C596.7031,93.464,594.4531,95.2765,594.4531,98.2531C594.4531,99.8781,595.2891,101.2062,596.1562,101.88589999999999L596.1562,101.98740000000001C595.4609,102.464,594.7109,103.3156,594.7109,104.36240000000001C594.7109,105.36240000000001,595.2188,106.0343,595.8906,106.4328L595.8906,106.54990000000001C594.6641,107.2765,593.9688,108.36240000000001,593.9688,109.48740000000001C593.9688,111.7218,596.1797,112.964,599.3438,112.964ZM599.3203,101.4796C597.8359,101.4796,596.5625,100.2296,596.5625,98.2531C596.5625,96.2531,597.8125,95.07339999999999,599.3203,95.07339999999999C600.8828,95.07339999999999,602.1094,96.2531,602.1094,98.2531C602.1094,100.2296,600.8359,101.4796,599.3203,101.4796ZM599.6562,111.4562C597.2812,111.4562,595.8906,110.5656,595.8906,109.17490000000001C595.8906,108.4328,596.2734,107.63589999999999,597.2109,106.964C597.7891,107.4171,598.4141,107.464,598.8906,107.464L601.1484,107.464C602.875,107.464,603.7891,107.8703,603.7891,109.0031C603.7891,110.1593,602.1797,111.4562,599.6562,111.4562ZM613.7344,107.464C615.4844,107.464,616.8828,106.8937,618.0078,106.1515L617.2422,104.6437C616.2578,105.3156,615.25,105.714,613.9766,105.714C611.5,105.714,609.7969,103.8703,609.6562,100.964L618.4375,100.964C618.4844,100.6281,618.5391,100.19839999999999,618.5391,99.7218C618.5391,95.88589999999999,616.6641,93.464,613.3281,93.464C610.3516,93.464,607.4922,96.11240000000001,607.4922,100.464C607.4922,104.9171,610.2578,107.464,613.7344,107.464ZM609.6328,99.4093C609.8906,96.7296,611.5234,95.2218,613.375,95.2218C615.4141,95.2218,616.6172,96.6828,616.6172,99.4093L609.6328,99.4093ZM627.672,106.964L629.875,106.964L629.875,99.964L632.781,99.964C636.648,99.964,639.266,98.26089999999999,639.266,94.589C639.266,90.7843,636.625,89.464,632.688,89.464L627.672,89.464L627.672,106.964ZM629.875,98.1671L629.875,91.2687L632.398,91.2687C635.492,91.2687,637.0550000000001,92.0499,637.0550000000001,94.589C637.0550000000001,97.07339999999999,635.594,98.1671,632.492,98.1671L629.875,98.1671ZM645.453,107.464C647.062,107.464,648.523,106.6281,649.773,105.589L649.844,105.589L650.039,106.964L651.836,106.964L651.836,98.86240000000001C651.836,95.5812,650.516,93.464,647.328,93.464C645.211,93.464,643.391,94.4015,642.211,95.17490000000001L643.0550000000001,96.69839999999999C644.086,95.9953,645.453,95.2921,646.969,95.2921C649.102,95.2921,649.656,96.9171,649.656,98.6203C644.109,99.2453,641.664,100.6828,641.664,103.5421C641.664,106.1203,643.273,107.464,645.453,107.464ZM646.078,105.6906C644.781,105.6906,643.773,105.0968,643.773,103.5656C643.773,101.8312,645.266,100.714,649.656,100.19839999999999L649.656,103.9328C648.383,105.0968,647.328,105.6906,646.078,105.6906ZM659.359,107.464C662.438,107.464,664.094,105.714,664.094,103.5343C664.094,100.98740000000001,662.023,100.19839999999999,660.133,99.4562C658.664,98.88589999999999,657.3199999999999,98.38589999999999,657.3199999999999,97.1281C657.3199999999999,96.0656,658.094,95.17490000000001,659.75,95.17490000000001C660.898,95.17490000000001,661.812,95.6906,662.6949999999999,96.36240000000001L663.758,94.9562C662.773,94.1437,661.328,93.464,659.719,93.464C656.867,93.464,655.234,95.0968,655.234,97.2218C655.234,99.5265,657.203,100.4171,659.023,101.11240000000001C660.469,101.6515,662,102.29990000000001,662,103.6593C662,104.82339999999999,661.164,105.76089999999999,659.438,105.76089999999999C657.875,105.76089999999999,656.719,105.1203,655.5699999999999,104.1515L654.516,105.6671C655.734,106.69839999999999,657.516,107.464,659.359,107.464ZM670.359,107.464C673.438,107.464,675.094,105.714,675.094,103.5343C675.094,100.98740000000001,673.023,100.19839999999999,671.133,99.4562C669.664,98.88589999999999,668.3199999999999,98.38589999999999,668.3199999999999,97.1281C668.3199999999999,96.0656,669.094,95.17490000000001,670.75,95.17490000000001C671.898,95.17490000000001,672.812,95.6906,673.6949999999999,96.36240000000001L674.758,94.9562C673.773,94.1437,672.328,93.464,670.719,93.464C667.867,93.464,666.234,95.0968,666.234,97.2218C666.234,99.5265,668.203,100.4171,670.023,101.11240000000001C671.469,101.6515,673,102.29990000000001,673,103.6593C673,104.82339999999999,672.164,105.76089999999999,670.438,105.76089999999999C668.875,105.76089999999999,667.719,105.1203,666.5699999999999,104.1515L665.516,105.6671C666.734,106.69839999999999,668.516,107.464,670.359,107.464ZM677.953,106.964L680.164,106.964L680.164,93.964L677.953,93.964L677.953,106.964ZM679.0550000000001,91.3468C679.922,91.3468,680.523,90.7687,680.523,89.88589999999999C680.523,89.0421,679.922,88.464,679.0550000000001,88.464C678.1949999999999,88.464,677.617,89.0421,677.617,89.88589999999999C677.617,90.7687,678.1949999999999,91.3468,679.0550000000001,91.3468ZM684.453,106.964L686.664,106.964L686.664,97.4015C687.961,96.0656,688.867,95.38589999999999,690.211,95.38589999999999C691.9449999999999,95.38589999999999,692.688,96.4328,692.688,98.9093L692.688,106.964L694.875,106.964L694.875,98.6203C694.875,95.2687,693.625,93.464,690.891,93.464C689.109,93.464,687.742,94.44839999999999,686.516,95.7062L686.469,95.7062L686.258,93.964L684.453,93.964L684.453,106.964ZM703.344,112.964C707.383,112.964,709.9449999999999,110.92490000000001,709.9449999999999,108.67490000000001C709.9449999999999,106.6046,708.414,105.6671,705.414,105.6671L702.844,105.6671C701.094,105.6671,700.562,105.0265,700.562,104.1515C700.562,103.3781,700.922,102.9171,701.406,102.51089999999999C701.977,102.79990000000001,702.6949999999999,102.964,703.3199999999999,102.964C706.008,102.964,708.102,101.214,708.102,98.3781C708.102,97.23740000000001,707.664,96.26089999999999,707.047,95.6515L709.711,95.6515L709.711,93.964L705.172,93.964C704.711,93.6124,704.0699999999999,93.464,703.3199999999999,93.464C700.703,93.464,698.453,95.2765,698.453,98.2531C698.453,99.8781,699.289,101.2062,700.156,101.88589999999999L700.156,101.98740000000001C699.461,102.464,698.711,103.3156,698.711,104.36240000000001C698.711,105.36240000000001,699.219,106.0343,699.891,106.4328L699.891,106.54990000000001C698.664,107.2765,697.969,108.36240000000001,697.969,109.48740000000001C697.969,111.7218,700.1800000000001,112.964,703.344,112.964ZM703.3199999999999,101.4796C701.836,101.4796,700.562,100.2296,700.562,98.2531C700.562,96.2531,701.812,95.07339999999999,703.3199999999999,95.07339999999999C704.883,95.07339999999999,706.109,96.2531,706.109,98.2531C706.109,100.2296,704.836,101.4796,703.3199999999999,101.4796ZM703.656,111.4562C701.281,111.4562,699.891,110.5656,699.891,109.17490000000001C699.891,108.4328,700.273,107.63589999999999,701.211,106.964C701.789,107.4171,702.414,107.464,702.891,107.464L705.148,107.464C706.875,107.464,707.789,107.8703,707.789,109.0031C707.789,110.1593,706.1800000000001,111.4562,703.656,111.4562ZM720.766,106.964L723.328,106.964L727.938,93.964L725.781,93.964L723.3050000000001,101.36240000000001C722.922,102.6281,722.492,103.94839999999999,722.109,105.1906L721.984,105.1906C721.602,103.94839999999999,721.1949999999999,102.6281,720.789,101.36240000000001L718.336,93.964L716.0550000000001,93.964L720.766,106.964ZM730.453,106.964L732.664,106.964L732.664,93.964L730.453,93.964L730.453,106.964ZM731.5550000000001,91.3468C732.422,91.3468,733.023,90.7687,733.023,89.88589999999999C733.023,89.0421,732.422,88.464,731.5550000000001,88.464C730.6949999999999,88.464,730.117,89.0421,730.117,89.88589999999999C730.117,90.7687,730.6949999999999,91.3468,731.5550000000001,91.3468ZM739.953,107.464C741.562,107.464,743.023,106.6281,744.273,105.589L744.344,105.589L744.539,106.964L746.336,106.964L746.336,98.86240000000001C746.336,95.5812,745.016,93.464,741.828,93.464C739.711,93.464,737.891,94.4015,736.711,95.17490000000001L737.5550000000001,96.69839999999999C738.586,95.9953,739.953,95.2921,741.469,95.2921C743.602,95.2921,744.156,96.9171,744.156,98.6203C738.609,99.2453,736.164,100.6828,736.164,103.5421C736.164,106.1203,737.773,107.464,739.953,107.464ZM740.578,105.6906C739.281,105.6906,738.273,105.0968,738.273,103.5656C738.273,101.8312,739.766,100.714,744.156,100.19839999999999L744.156,103.9328C742.883,105.0968,741.828,105.6906,740.578,105.6906ZM755.9300000000001,106.964L759.484,106.964L759.484,99.0421L766.203,99.0421L766.203,106.964L769.734,106.964L769.734,88.964L766.203,88.964L766.203,95.964L759.484,95.964L759.484,88.964L755.9300000000001,88.964L755.9300000000001,106.964ZM774.8199999999999,112.464C777.8199999999999,112.464,779.258,110.6671,780.438,107.4718L785.211,93.464L781.828,93.464L779.977,99.7765C779.6410000000001,101.0421,779.3050000000001,102.3546,779.0160000000001,103.61240000000001L778.898,103.61240000000001C778.5160000000001,102.29990000000001,778.1800000000001,100.9953,777.773,99.7765L775.633,93.464L772.086,93.464L777.312,106.7921L777.078,107.6203C776.688,108.8078,775.922,109.6828,774.5550000000001,109.6828C774.242,109.6828,773.859,109.589,773.617,109.51089999999999L772.969,111.964C773.5,112.3703,774.023,112.464,774.8199999999999,112.464ZM787.6410000000001,111.964L791.172,111.964L791.172,108.1437L791.047,106.0031C792.062,106.9406,793.211,107.464,794.3910000000001,107.464C797.336,107.464,800.102,104.79990000000001,800.102,99.98740000000001C800.102,95.6828,798.1089999999999,92.964,794.8199999999999,92.964C793.352,92.964,791.9839999999999,93.7374,790.8589999999999,94.69839999999999L790.789,94.69839999999999L790.523,93.464L787.6410000000001,93.464L787.6410000000001,111.964ZM793.617,104.5656C792.875,104.5656,792.031,104.2921,791.172,103.5343L791.172,97.29990000000001C792.086,96.3468,792.898,95.8703,793.812,95.8703C795.656,95.8703,796.477,97.3546,796.477,100.0421C796.477,103.1437,795.203,104.5656,793.617,104.5656ZM809,107.464C810.656,107.464,812.3589999999999,106.8937,813.6800000000001,105.9796L812.477,103.79990000000001C811.492,104.4093,810.562,104.7296,809.477,104.7296C807.461,104.7296,806.023,103.5812,805.7339999999999,101.3468L814.0160000000001,101.3468C814.1089999999999,101.01089999999999,814.1800000000001,100.36240000000001,814.1800000000001,99.714C814.1800000000001,95.6593,812.2660000000001,92.964,808.5699999999999,92.964C805.375,92.964,802.3050000000001,95.6828,802.3050000000001,100.339C802.3050000000001,104.8546,805.227,107.464,809,107.464ZM805.664,98.964C805.953,96.8156,807.1949999999999,95.7062,808.617,95.7062C810.367,95.7062,811.156,96.9796,811.156,98.964L805.664,98.964ZM817.1410000000001,106.964L820.672,106.964L820.672,98.9406C821.438,96.79990000000001,822.688,96.089,823.719,96.089C824.297,96.089,824.6800000000001,96.1593,825.156,96.3078L825.7339999999999,93.464C825.352,93.089,824.922,92.964,824.172,92.964C822.781,92.964,821.344,93.9249,820.3589999999999,95.6828L820.289,95.6828L820.023,93.464L817.1410000000001,93.464L817.1410000000001,106.964ZM833.5,107.464C835.156,107.464,836.8589999999999,106.8937,838.1800000000001,105.9796L836.977,103.79990000000001C835.992,104.4093,835.062,104.7296,833.977,104.7296C831.961,104.7296,830.523,103.5812,830.2339999999999,101.3468L838.5160000000001,101.3468C838.6089999999999,101.01089999999999,838.6800000000001,100.36240000000001,838.6800000000001,99.714C838.6800000000001,95.6593,836.7660000000001,92.964,833.0699999999999,92.964C829.875,92.964,826.8050000000001,95.6828,826.8050000000001,100.339C826.8050000000001,104.8546,829.727,107.464,833.5,107.464ZM830.164,98.964C830.453,96.8156,831.6949999999999,95.7062,833.117,95.7062C834.867,95.7062,835.656,96.9796,835.656,98.964L830.164,98.964ZM846.367,107.464C847.7660000000001,107.464,849.1089999999999,106.7218,850.094,105.73740000000001L850.188,105.73740000000001L850.453,106.964L853.328,106.964L853.328,87.589L849.8050000000001,87.589L849.8050000000001,92.32339999999999L849.922,94.4328C848.961,93.5421,848.023,92.964,846.5160000000001,92.964C843.633,92.964,840.875,95.6593,840.875,100.11240000000001C840.875,104.8312,843.008,107.464,846.367,107.464ZM847.281,104.5656C845.508,104.5656,844.5,103.1046,844.5,100.1671C844.5,97.3781,845.773,95.8703,847.281,95.8703C848.148,95.8703,848.9839999999999,96.1437,849.8050000000001,96.92490000000001L849.8050000000001,103.1046C849.031,104.1593,848.219,104.5656,847.281,104.5656ZM861.867,112.964C866.3589999999999,112.964,869.188,110.9015,869.188,108.2453C869.188,105.9093,867.414,104.9015,864.172,104.9015L861.867,104.9015C860.312,104.9015,859.758,104.5187,859.758,103.82339999999999C859.758,103.2531,860,102.964,860.336,102.6593C860.938,102.8703,861.562,102.964,862.062,102.964C864.969,102.964,867.273,101.4562,867.273,98.2453C867.273,97.3468,867.008,96.54990000000001,866.672,96.0578L868.953,96.0578L868.953,93.464L864.125,93.464C863.5550000000001,93.1124,862.852,92.964,862.062,92.964C859.227,92.964,856.664,94.6749,856.664,98.04990000000001C856.664,99.7843,857.523,101.1437,858.461,101.8156L858.461,101.9093C857.648,102.48740000000001,856.977,103.4171,856.977,104.4015C856.977,105.5265,857.477,106.2218,858.1949999999999,106.67490000000001L858.1949999999999,106.7921C856.9300000000001,107.4953,856.281,108.4328,856.281,109.5343C856.281,111.88589999999999,858.703,112.964,861.867,112.964ZM862.062,100.7843C860.914,100.7843,859.977,99.8078,859.977,98.04990000000001C859.977,96.339,860.883,95.3937,862.062,95.3937C863.2660000000001,95.3937,864.1949999999999,96.339,864.1949999999999,98.04990000000001C864.1949999999999,99.8078,863.2660000000001,100.7843,862.062,100.7843ZM862.398,110.714C860.453,110.714,859.203,110.0968,859.203,109.0187C859.203,108.4562,859.469,107.9406,860.0699999999999,107.464C860.578,107.6593,861.125,107.7062,861.922,107.7062L863.578,107.7062C865.0160000000001,107.7062,865.8050000000001,107.9562,865.8050000000001,108.8781C865.8050000000001,109.839,864.438,110.714,862.398,110.714ZM877.5,107.464C879.156,107.464,880.8589999999999,106.8937,882.1800000000001,105.9796L880.977,103.79990000000001C879.992,104.4093,879.062,104.7296,877.977,104.7296C875.961,104.7296,874.523,103.5812,874.2339999999999,101.3468L882.5160000000001,101.3468C882.6089999999999,101.01089999999999,882.6800000000001,100.36240000000001,882.6800000000001,99.714C882.6800000000001,95.6593,880.7660000000001,92.964,877.0699999999999,92.964C873.875,92.964,870.8050000000001,95.6828,870.8050000000001,100.339C870.8050000000001,104.8546,873.727,107.464,877.5,107.464ZM874.164,98.964C874.453,96.8156,875.6949999999999,95.7062,877.117,95.7062C878.867,95.7062,879.656,96.9796,879.656,98.964L874.164,98.964ZM889.4839999999999,107.464C892.961,107.464,894.836,105.5968,894.836,103.1515C894.836,100.5656,892.867,99.61240000000001,891.094,98.9171C889.648,98.36240000000001,888.4300000000001,97.98740000000001,888.4300000000001,96.964C888.4300000000001,96.1593,889,95.6046,890.227,95.6046C891.211,95.6046,892.148,96.11240000000001,893.1089999999999,96.8078L894.688,94.6203C893.586,93.76089999999999,892.078,92.964,890.133,92.964C887.0550000000001,92.964,885.117,94.6749,885.117,97.13589999999999C885.117,99.48740000000001,887.008,100.5656,888.711,101.2453C890.133,101.82339999999999,891.523,102.29990000000001,891.523,103.3468C891.523,104.2296,890.922,104.8312,889.578,104.8312C888.3050000000001,104.8312,887.1800000000001,104.2531,885.977,103.29990000000001L884.367,105.5968C885.711,106.69839999999999,887.6800000000001,107.464,889.4839999999999,107.464Z" fill="#3D3D3D" fill-opacity="1"/></g><g style="mix-blend-mode:passthrough"><path d="M32.63281,428.964L35.20312,428.964L40.7969,411.464L38.5391,411.464L35.71094,420.9406C35.10938,422.9874,34.67969,424.65930000000003,34.00781,426.714L33.90625,426.714C33.25781,424.65930000000003,32.80469,422.9874,32.20312,420.9406L29.35156,411.464L27.0234375,411.464L32.63281,428.964ZM48.4844,429.464C50.2344,429.464,51.6328,428.8937,52.7578,428.1515L51.9922,426.6437C51.0078,427.3156,50,427.714,48.726600000000005,427.714C46.25,427.714,44.5469,425.8703,44.4062,422.964L53.1875,422.964C53.2344,422.6281,53.289100000000005,422.1984,53.289100000000005,421.72180000000003C53.289100000000005,417.8859,51.414100000000005,415.464,48.0781,415.464C45.101600000000005,415.464,42.2422,418.1124,42.2422,422.464C42.2422,426.9171,45.0078,429.464,48.4844,429.464ZM44.3828,421.40930000000003C44.6406,418.7296,46.273399999999995,417.22180000000003,48.125,417.22180000000003C50.164100000000005,417.22180000000003,51.3672,418.6828,51.3672,421.40930000000003L44.3828,421.40930000000003ZM56.7031,428.964L58.914100000000005,428.964L58.914100000000005,420.4953C59.7734,418.2609,61.0938,417.4328,62.1797,417.4328C62.7266,417.4328,63.0156,417.5109,63.4453,417.6515L63.8594,415.964C63.4453,415.5421,63.0391,415.464,62.4609,415.464C61.0234,415.464,59.6797,416.5265,58.7656,418.1906L58.7188,418.1906L58.5078,415.964L56.7031,415.964L56.7031,428.964ZM70.2812,429.464C71.10159999999999,429.464,71.96090000000001,429.2296,72.71090000000001,428.9874L72.27340000000001,427.3234C71.8438,427.5187,71.2656,427.6906,70.78909999999999,427.6906C69.27340000000001,427.6906,68.77340000000001,426.7687,68.77340000000001,425.15930000000003L68.77340000000001,417.7453L72.3281,417.7453L72.3281,415.964L68.77340000000001,415.964L68.77340000000001,412.2921L66.9453,412.2921L66.71090000000001,415.964L64.6406,416.089L64.6406,417.7453L66.58590000000001,417.7453L66.58590000000001,425.0812C66.58590000000001,427.7374,67.52340000000001,429.464,70.2812,429.464ZM80.4844,429.464C82.2344,429.464,83.6328,428.8937,84.7578,428.1515L83.9922,426.6437C83.0078,427.3156,82,427.714,80.72659999999999,427.714C78.25,427.714,76.5469,425.8703,76.4062,422.964L85.1875,422.964C85.2344,422.6281,85.28909999999999,422.1984,85.28909999999999,421.72180000000003C85.28909999999999,417.8859,83.41409999999999,415.464,80.0781,415.464C77.10159999999999,415.464,74.2422,418.1124,74.2422,422.464C74.2422,426.9171,77.0078,429.464,80.4844,429.464ZM76.3828,421.40930000000003C76.6406,418.7296,78.27340000000001,417.22180000000003,80.125,417.22180000000003C82.16409999999999,417.22180000000003,83.3672,418.6828,83.3672,421.40930000000003L76.3828,421.40930000000003ZM86.8594,428.964L89.16409999999999,428.964L90.91409999999999,425.9249C91.3672,425.1359,91.7734,424.34680000000003,92.2344,423.6046L92.3516,423.6046C92.8594,424.34680000000003,93.3359,425.1359,93.7656,425.9249L95.6875,428.964L98.0859,428.964L93.7891,422.40930000000003L97.75,415.964L95.4766,415.964L93.8672,418.8156C93.4531,419.5578,93.0938,420.2531,92.7109,420.9953L92.5938,420.9953C92.1641,420.2531,91.7031,419.5578,91.3203,418.8156L89.5703,415.964L87.1953,415.964L91.1562,422.1906L86.8594,428.964Z" fill="#3D3D3D" fill-opacity="1"/></g><g style="mix-blend-mode:passthrough"><path d="M179.63281,428.964L182.20312,428.964L187.7969,411.464L185.5391,411.464L182.71094,420.9406C182.10938,422.9874,181.67969,424.65930000000003,181.00781,426.714L180.90625,426.714C180.25781,424.65930000000003,179.80469,422.9874,179.20312,420.9406L176.35156,411.464L174.0234375,411.464L179.63281,428.964ZM195.4844,429.464C197.2344,429.464,198.6328,428.8937,199.7578,428.1515L198.9922,426.6437C198.0078,427.3156,197,427.714,195.7266,427.714C193.25,427.714,191.5469,425.8703,191.4062,422.964L200.1875,422.964C200.2344,422.6281,200.2891,422.1984,200.2891,421.72180000000003C200.2891,417.8859,198.4141,415.464,195.0781,415.464C192.1016,415.464,189.2422,418.1124,189.2422,422.464C189.2422,426.9171,192.0078,429.464,195.4844,429.464ZM191.3828,421.40930000000003C191.6406,418.7296,193.2734,417.22180000000003,195.125,417.22180000000003C197.1641,417.22180000000003,198.3672,418.6828,198.3672,421.40930000000003L191.3828,421.40930000000003ZM203.7031,428.964L205.9141,428.964L205.9141,420.4953C206.7734,418.2609,208.0938,417.4328,209.1797,417.4328C209.7266,417.4328,210.0156,417.5109,210.4453,417.6515L210.8594,415.964C210.4453,415.5421,210.0391,415.464,209.4609,415.464C208.0234,415.464,206.6797,416.5265,205.7656,418.1906L205.7188,418.1906L205.5078,415.964L203.7031,415.964L203.7031,428.964ZM217.2812,429.464C218.1016,429.464,218.9609,429.2296,219.7109,428.9874L219.2734,427.3234C218.8438,427.5187,218.2656,427.6906,217.7891,427.6906C216.2734,427.6906,215.7734,426.7687,215.7734,425.15930000000003L215.7734,417.7453L219.3281,417.7453L219.3281,415.964L215.7734,415.964L215.7734,412.2921L213.9453,412.2921L213.7109,415.964L211.6406,416.089L211.6406,417.7453L213.5859,417.7453L213.5859,425.0812C213.5859,427.7374,214.5234,429.464,217.2812,429.464ZM227.4844,429.464C229.2344,429.464,230.6328,428.8937,231.7578,428.1515L230.9922,426.6437C230.0078,427.3156,229,427.714,227.7266,427.714C225.25,427.714,223.5469,425.8703,223.4062,422.964L232.1875,422.964C232.2344,422.6281,232.2891,422.1984,232.2891,421.72180000000003C232.2891,417.8859,230.4141,415.464,227.0781,415.464C224.1016,415.464,221.2422,418.1124,221.2422,422.464C221.2422,426.9171,224.0078,429.464,227.4844,429.464ZM223.3828,421.40930000000003C223.6406,418.7296,225.2734,417.22180000000003,227.125,417.22180000000003C229.1641,417.22180000000003,230.3672,418.6828,230.3672,421.40930000000003L223.3828,421.40930000000003ZM233.8594,428.964L236.1641,428.964L237.9141,425.9249C238.3672,425.1359,238.77339999999998,424.34680000000003,239.2344,423.6046L239.35160000000002,423.6046C239.8594,424.34680000000003,240.33589999999998,425.1359,240.7656,425.9249L242.6875,428.964L245.08589999999998,428.964L240.78910000000002,422.40930000000003L244.75,415.964L242.47660000000002,415.964L240.8672,418.8156C240.4531,419.5578,240.0938,420.2531,239.71089999999998,420.9953L239.5938,420.9953C239.16410000000002,420.2531,238.7031,419.5578,238.3203,418.8156L236.5703,415.964L234.1953,415.964L238.1562,422.1906L233.8594,428.964Z" fill="#3D3D3D" fill-opacity="1"/></g><g style="mix-blend-mode:passthrough"><path d="M542.63281,429.964L545.20312,429.964L550.7969,412.464L548.5391,412.464L545.71094,421.9406C545.10938,423.9874,544.67969,425.65930000000003,544.00781,427.714L543.90625,427.714C543.25781,425.65930000000003,542.80469,423.9874,542.20312,421.9406L539.35156,412.464L537.0234375,412.464L542.63281,429.964ZM558.4844,430.464C560.2344,430.464,561.6328,429.8937,562.7578,429.1515L561.9922,427.6437C561.0078,428.3156,560,428.714,558.7266,428.714C556.25,428.714,554.5469,426.8703,554.4062,423.964L563.1875,423.964C563.2344,423.6281,563.2891,423.1984,563.2891,422.72180000000003C563.2891,418.8859,561.4141,416.464,558.0781,416.464C555.1016,416.464,552.2422,419.1124,552.2422,423.464C552.2422,427.9171,555.0078,430.464,558.4844,430.464ZM554.3828,422.40930000000003C554.6406,419.7296,556.2734,418.22180000000003,558.125,418.22180000000003C560.1641,418.22180000000003,561.3672,419.6828,561.3672,422.40930000000003L554.3828,422.40930000000003ZM566.7031,429.964L568.9141,429.964L568.9141,421.4953C569.7734,419.2609,571.0938,418.4328,572.1797,418.4328C572.7266,418.4328,573.0156,418.5109,573.4453,418.6515L573.8594,416.964C573.4453,416.5421,573.0391,416.464,572.4609,416.464C571.0234,416.464,569.6797,417.5265,568.7656,419.1906L568.7188,419.1906L568.5078,416.964L566.7031,416.964L566.7031,429.964ZM580.2812,430.464C581.1016,430.464,581.9609,430.2296,582.7109,429.9874L582.2734,428.3234C581.8438,428.5187,581.2656,428.6906,580.7891,428.6906C579.2734,428.6906,578.7734,427.7687,578.7734,426.15930000000003L578.7734,418.7453L582.3281,418.7453L582.3281,416.964L578.7734,416.964L578.7734,413.2921L576.9453,413.2921L576.7109,416.964L574.6406,417.089L574.6406,418.7453L576.5859,418.7453L576.5859,426.0812C576.5859,428.7374,577.5234,430.464,580.2812,430.464ZM590.4844,430.464C592.2344,430.464,593.6328,429.8937,594.7578,429.1515L593.9922,427.6437C593.0078,428.3156,592,428.714,590.7266,428.714C588.25,428.714,586.5469,426.8703,586.4062,423.964L595.1875,423.964C595.2344,423.6281,595.2891,423.1984,595.2891,422.72180000000003C595.2891,418.8859,593.4141,416.464,590.0781,416.464C587.1016,416.464,584.2422,419.1124,584.2422,423.464C584.2422,427.9171,587.0078,430.464,590.4844,430.464ZM586.3828,422.40930000000003C586.6406,419.7296,588.2734,418.22180000000003,590.125,418.22180000000003C592.1641,418.22180000000003,593.3672,419.6828,593.3672,422.40930000000003L586.3828,422.40930000000003ZM596.8594,429.964L599.1641,429.964L600.9141,426.9249C601.3672,426.1359,601.7734,425.34680000000003,602.2344,424.6046L602.3516,424.6046C602.8594,425.34680000000003,603.3359,426.1359,603.7656,426.9249L605.6875,429.964L608.0859,429.964L603.7891,423.40930000000003L607.75,416.964L605.4766,416.964L603.8672,419.8156C603.4531,420.5578,603.0938,421.2531,602.7109,421.9953L602.5938,421.9953C602.1641,421.2531,601.7031,420.5578,601.3203,419.8156L599.5703,416.964L597.1953,416.964L601.1562,423.1906L596.8594,429.964ZM621.2891,430.464C624.9688,430.464,627.2656,428.2531,627.2656,425.4171C627.2656,422.7453,625.6875,421.5265,623.6484,420.6203L621.1484,419.5187C619.7812,418.9328,618.2188,418.2687,618.2188,416.5031C618.2188,414.9171,619.5156,413.9093,621.5078,413.9093C623.1406,413.9093,624.4375,414.5499,625.5156,415.5734L626.6719,414.1359C625.4453,412.8546,623.5938,411.964,621.5078,411.964C618.3203,411.964,615.9609,413.9093,615.9609,416.6749C615.9609,419.2999,617.9062,420.5656,619.5391,421.2765L622.0625,422.4015C623.7422,423.1671,625.0156,423.7531,625.0156,425.6124C625.0156,427.34680000000003,623.6484,428.5265,621.3203,428.5265C619.4922,428.5265,617.7188,427.6437,616.4688,426.2999L615.1484,427.8624C616.6641,429.4562,618.7969,430.464,621.2891,430.464ZM635.9844,430.464C637.734,430.464,639.133,429.8937,640.258,429.1515L639.492,427.6437C638.508,428.3156,637.5,428.714,636.2266,428.714C633.75,428.714,632.0469,426.8703,631.9062,423.964L640.688,423.964C640.734,423.6281,640.789,423.1984,640.789,422.72180000000003C640.789,418.8859,638.914,416.464,635.5781,416.464C632.6016,416.464,629.7422,419.1124,629.7422,423.464C629.7422,427.9171,632.5078,430.464,635.9844,430.464ZM631.8828,422.40930000000003C632.1406,419.7296,633.7734,418.22180000000003,635.625,418.22180000000003C637.664,418.22180000000003,638.867,419.6828,638.867,422.40930000000003L631.8828,422.40930000000003ZM648.281,430.464C649.102,430.464,649.961,430.2296,650.711,429.9874L650.273,428.3234C649.844,428.5187,649.266,428.6906,648.789,428.6906C647.273,428.6906,646.773,427.7687,646.773,426.15930000000003L646.773,418.7453L650.328,418.7453L650.328,416.964L646.773,416.964L646.773,413.2921L644.9449999999999,413.2921L644.711,416.964L642.641,417.089L642.641,418.7453L644.586,418.7453L644.586,426.0812C644.586,428.7374,645.523,430.464,648.281,430.464Z" fill="#3D3D3D" fill-opacity="1"/></g><g style="mix-blend-mode:passthrough"><path d="M764.63281,429.964L767.20312,429.964L772.7969,412.464L770.5391,412.464L767.71094,421.9406C767.10938,423.9874,766.67969,425.65930000000003,766.00781,427.714L765.90625,427.714C765.25781,425.65930000000003,764.80469,423.9874,764.20312,421.9406L761.35156,412.464L759.0234375,412.464L764.63281,429.964ZM780.4844,430.464C782.2344,430.464,783.6328,429.8937,784.7578,429.1515L783.9922,427.6437C783.0078,428.3156,782,428.714,780.7266,428.714C778.25,428.714,776.5469,426.8703,776.4062,423.964L785.1875,423.964C785.2344,423.6281,785.2891,423.1984,785.2891,422.72180000000003C785.2891,418.8859,783.4141,416.464,780.0781,416.464C777.1016,416.464,774.2422,419.1124,774.2422,423.464C774.2422,427.9171,777.0078,430.464,780.4844,430.464ZM776.3828,422.40930000000003C776.6406,419.7296,778.2734,418.22180000000003,780.125,418.22180000000003C782.1641,418.22180000000003,783.3672,419.6828,783.3672,422.40930000000003L776.3828,422.40930000000003ZM788.7031,429.964L790.9141,429.964L790.9141,421.4953C791.7734,419.2609,793.0938,418.4328,794.1797,418.4328C794.7266,418.4328,795.0156,418.5109,795.4453,418.6515L795.8594,416.964C795.4453,416.5421,795.0391,416.464,794.4609,416.464C793.0234,416.464,791.6797,417.5265,790.7656,419.1906L790.7188,419.1906L790.5078,416.964L788.7031,416.964L788.7031,429.964ZM802.2812,430.464C803.1016,430.464,803.9609,430.2296,804.7109,429.9874L804.2734,428.3234C803.8438,428.5187,803.2656,428.6906,802.7891,428.6906C801.2734,428.6906,800.7734,427.7687,800.7734,426.15930000000003L800.7734,418.7453L804.3281,418.7453L804.3281,416.964L800.7734,416.964L800.7734,413.2921L798.9453,413.2921L798.7109,416.964L796.6406,417.089L796.6406,418.7453L798.5859,418.7453L798.5859,426.0812C798.5859,428.7374,799.5234,430.464,802.2812,430.464ZM812.4844,430.464C814.2344,430.464,815.6328,429.8937,816.7578,429.1515L815.9922,427.6437C815.0078,428.3156,814,428.714,812.7266,428.714C810.25,428.714,808.5469,426.8703,808.4062,423.964L817.1875,423.964C817.2344,423.6281,817.2891,423.1984,817.2891,422.72180000000003C817.2891,418.8859,815.4141,416.464,812.0781,416.464C809.1016,416.464,806.2422,419.1124,806.2422,423.464C806.2422,427.9171,809.0078,430.464,812.4844,430.464ZM808.3828,422.40930000000003C808.6406,419.7296,810.2734,418.22180000000003,812.125,418.22180000000003C814.1641,418.22180000000003,815.3672,419.6828,815.3672,422.40930000000003L808.3828,422.40930000000003ZM818.8594,429.964L821.1641,429.964L822.9141,426.9249C823.3672,426.1359,823.7734,425.34680000000003,824.2344,424.6046L824.3516,424.6046C824.8594,425.34680000000003,825.3359,426.1359,825.7656,426.9249L827.6875,429.964L830.0859,429.964L825.7891,423.40930000000003L829.75,416.964L827.4766,416.964L825.8672,419.8156C825.4531,420.5578,825.0938,421.2531,824.7109,421.9953L824.5938,421.9953C824.1641,421.2531,823.7031,420.5578,823.3203,419.8156L821.5703,416.964L819.1953,416.964L823.1562,423.1906L818.8594,429.964ZM843.2891,430.464C846.9688,430.464,849.2656,428.2531,849.2656,425.4171C849.2656,422.7453,847.6875,421.5265,845.6484,420.6203L843.1484,419.5187C841.7812,418.9328,840.2188,418.2687,840.2188,416.5031C840.2188,414.9171,841.5156,413.9093,843.5078,413.9093C845.1406,413.9093,846.4375,414.5499,847.5156,415.5734L848.6719,414.1359C847.4453,412.8546,845.5938,411.964,843.5078,411.964C840.3203,411.964,837.9609,413.9093,837.9609,416.6749C837.9609,419.2999,839.9062,420.5656,841.5391,421.2765L844.0625,422.4015C845.7422,423.1671,847.0156,423.7531,847.0156,425.6124C847.0156,427.34680000000003,845.6484,428.5265,843.3203,428.5265C841.4922,428.5265,839.7188,427.6437,838.4688,426.2999L837.1484,427.8624C838.6641,429.4562,840.7969,430.464,843.2891,430.464ZM857.9844,430.464C859.734,430.464,861.133,429.8937,862.258,429.1515L861.492,427.6437C860.508,428.3156,859.5,428.714,858.2266,428.714C855.75,428.714,854.0469,426.8703,853.9062,423.964L862.688,423.964C862.734,423.6281,862.789,423.1984,862.789,422.72180000000003C862.789,418.8859,860.914,416.464,857.5781,416.464C854.6016,416.464,851.7422,419.1124,851.7422,423.464C851.7422,427.9171,854.5078,430.464,857.9844,430.464ZM853.8828,422.40930000000003C854.1406,419.7296,855.7734,418.22180000000003,857.625,418.22180000000003C859.664,418.22180000000003,860.867,419.6828,860.867,422.40930000000003L853.8828,422.40930000000003ZM870.281,430.464C871.102,430.464,871.961,430.2296,872.711,429.9874L872.273,428.3234C871.844,428.5187,871.266,428.6906,870.789,428.6906C869.273,428.6906,868.773,427.7687,868.773,426.15930000000003L868.773,418.7453L872.328,418.7453L872.328,416.964L868.773,416.964L868.773,413.2921L866.9449999999999,413.2921L866.711,416.964L864.641,417.089L864.641,418.7453L866.586,418.7453L866.586,426.0812C866.586,428.7374,867.523,430.464,870.281,430.464Z" fill="#3D3D3D" fill-opacity="1"/></g><g style="mix-blend-mode:passthrough"><path d="M9.17188,106.964L11.1641,106.964L11.1641,97.2765C11.1641,95.7765,11.0156,93.6593,10.875,92.13589999999999L10.9688,92.13589999999999L12.3828,96.11240000000001L15.7266,105.2062L17.2109,105.2062L20.5234,96.11240000000001L21.9375,92.13589999999999L22.0391,92.13589999999999C21.9141,93.6593,21.75,95.7765,21.75,97.2765L21.75,106.964L23.8125,106.964L23.8125,89.464L21.1484,89.464L17.7891,98.82339999999999C17.3828,100.0187,17.0156,101.2531,16.5625,102.464L16.4688,102.464C16.0312,101.2531,15.6484,100.0187,15.1953,98.82339999999999L11.8359,89.464L9.17188,89.464L9.17188,106.964ZM33.7344,107.464C35.4844,107.464,36.8828,106.8937,38.0078,106.1515L37.2422,104.6437C36.2578,105.3156,35.25,105.714,33.9766,105.714C31.5,105.714,29.7969,103.8703,29.6562,100.964L38.4375,100.964C38.4844,100.6281,38.5391,100.19839999999999,38.5391,99.7218C38.5391,95.88589999999999,36.6641,93.464,33.3281,93.464C30.3516,93.464,27.4922,96.11240000000001,27.4922,100.464C27.4922,104.9171,30.2578,107.464,33.7344,107.464ZM29.6328,99.4093C29.8906,96.7296,31.5234,95.2218,33.375,95.2218C35.4141,95.2218,36.6172,96.6828,36.6172,99.4093L29.6328,99.4093ZM45.3594,107.464C48.4375,107.464,50.0938,105.714,50.0938,103.5343C50.0938,100.98740000000001,48.0234,100.19839999999999,46.1328,99.4562C44.6641,98.88589999999999,43.3203,98.38589999999999,43.3203,97.1281C43.3203,96.0656,44.0938,95.17490000000001,45.75,95.17490000000001C46.8984,95.17490000000001,47.8125,95.6906,48.6953,96.36240000000001L49.7578,94.9562C48.7734,94.1437,47.3281,93.464,45.7188,93.464C42.8672,93.464,41.2344,95.0968,41.2344,97.2218C41.2344,99.5265,43.2031,100.4171,45.0234,101.11240000000001C46.4688,101.6515,48,102.29990000000001,48,103.6593C48,104.82339999999999,47.1641,105.76089999999999,45.4375,105.76089999999999C43.875,105.76089999999999,42.7188,105.1203,41.5703,104.1515L40.5156,105.6671C41.7344,106.69839999999999,43.5156,107.464,45.3594,107.464ZM56.3594,107.464C59.4375,107.464,61.0938,105.714,61.0938,103.5343C61.0938,100.98740000000001,59.0234,100.19839999999999,57.1328,99.4562C55.6641,98.88589999999999,54.3203,98.38589999999999,54.3203,97.1281C54.3203,96.0656,55.0938,95.17490000000001,56.75,95.17490000000001C57.8984,95.17490000000001,58.8125,95.6906,59.6953,96.36240000000001L60.7578,94.9562C59.7734,94.1437,58.3281,93.464,56.7188,93.464C53.8672,93.464,52.2344,95.0968,52.2344,97.2218C52.2344,99.5265,54.2031,100.4171,56.0234,101.11240000000001C57.4688,101.6515,59,102.29990000000001,59,103.6593C59,104.82339999999999,58.1641,105.76089999999999,56.4375,105.76089999999999C54.875,105.76089999999999,53.7188,105.1203,52.5703,104.1515L51.5156,105.6671C52.7344,106.69839999999999,54.5156,107.464,56.3594,107.464ZM66.9531,107.464C68.5625,107.464,70.0234,106.6281,71.2734,105.589L71.3438,105.589L71.5391,106.964L73.3359,106.964L73.3359,98.86240000000001C73.3359,95.5812,72.0156,93.464,68.8281,93.464C66.7109,93.464,64.8906,94.4015,63.7109,95.17490000000001L64.5547,96.69839999999999C65.5859,95.9953,66.9531,95.2921,68.4688,95.2921C70.6016,95.2921,71.1562,96.9171,71.1562,98.6203C65.6094,99.2453,63.1641,100.6828,63.1641,103.5421C63.1641,106.1203,64.7734,107.464,66.9531,107.464ZM67.5781,105.6906C66.2812,105.6906,65.2734,105.0968,65.2734,103.5656C65.2734,101.8312,66.7656,100.714,71.1562,100.19839999999999L71.1562,103.9328C69.8828,105.0968,68.8281,105.6906,67.5781,105.6906ZM81.8438,112.964C85.8828,112.964,88.4453,110.92490000000001,88.4453,108.67490000000001C88.4453,106.6046,86.9141,105.6671,83.9141,105.6671L81.3438,105.6671C79.5938,105.6671,79.0625,105.0265,79.0625,104.1515C79.0625,103.3781,79.4219,102.9171,79.9062,102.51089999999999C80.4766,102.79990000000001,81.1953,102.964,81.8203,102.964C84.5078,102.964,86.6016,101.214,86.6016,98.3781C86.6016,97.23740000000001,86.1641,96.26089999999999,85.5469,95.6515L88.2109,95.6515L88.2109,93.964L83.6719,93.964C83.2109,93.6124,82.5703,93.464,81.8203,93.464C79.2031,93.464,76.9531,95.2765,76.9531,98.2531C76.9531,99.8781,77.7891,101.2062,78.6562,101.88589999999999L78.6562,101.98740000000001C77.9609,102.464,77.2109,103.3156,77.2109,104.36240000000001C77.2109,105.36240000000001,77.7188,106.0343,78.3906,106.4328L78.3906,106.54990000000001C77.1641,107.2765,76.4688,108.36240000000001,76.4688,109.48740000000001C76.4688,111.7218,78.6797,112.964,81.8438,112.964ZM81.8203,101.4796C80.3359,101.4796,79.0625,100.2296,79.0625,98.2531C79.0625,96.2531,80.3125,95.07339999999999,81.8203,95.07339999999999C83.3828,95.07339999999999,84.6094,96.2531,84.6094,98.2531C84.6094,100.2296,83.3359,101.4796,81.8203,101.4796ZM82.1562,111.4562C79.7812,111.4562,78.3906,110.5656,78.3906,109.17490000000001C78.3906,108.4328,78.7734,107.63589999999999,79.7109,106.964C80.2891,107.4171,80.9141,107.464,81.3906,107.464L83.6484,107.464C85.375,107.464,86.2891,107.8703,86.2891,109.0031C86.2891,110.1593,84.6797,111.4562,82.1562,111.4562ZM96.2344,107.464C97.9844,107.464,99.3828,106.8937,100.508,106.1515L99.7422,104.6437C98.7578,105.3156,97.75,105.714,96.4766,105.714C94,105.714,92.2969,103.8703,92.1562,100.964L100.938,100.964C100.984,100.6281,101.039,100.19839999999999,101.039,99.7218C101.039,95.88589999999999,99.1641,93.464,95.8281,93.464C92.8516,93.464,89.9922,96.11240000000001,89.9922,100.464C89.9922,104.9171,92.7578,107.464,96.2344,107.464ZM92.1328,99.4093C92.3906,96.7296,94.0234,95.2218,95.875,95.2218C97.9141,95.2218,99.1172,96.6828,99.1172,99.4093L92.1328,99.4093ZM110.172,106.964L112.375,106.964L112.375,99.964L115.281,99.964C119.148,99.964,121.766,98.26089999999999,121.766,94.589C121.766,90.7843,119.125,89.464,115.188,89.464L110.172,89.464L110.172,106.964ZM112.375,98.1671L112.375,91.2687L114.898,91.2687C117.992,91.2687,119.555,92.0499,119.555,94.589C119.555,97.07339999999999,118.094,98.1671,114.992,98.1671L112.375,98.1671ZM127.953,107.464C129.562,107.464,131.023,106.6281,132.273,105.589L132.344,105.589L132.539,106.964L134.336,106.964L134.336,98.86240000000001C134.336,95.5812,133.016,93.464,129.828,93.464C127.711,93.464,125.891,94.4015,124.711,95.17490000000001L125.555,96.69839999999999C126.586,95.9953,127.953,95.2921,129.469,95.2921C131.602,95.2921,132.156,96.9171,132.156,98.6203C126.609,99.2453,124.164,100.6828,124.164,103.5421C124.164,106.1203,125.773,107.464,127.953,107.464ZM128.578,105.6906C127.281,105.6906,126.273,105.0968,126.273,103.5656C126.273,101.8312,127.766,100.714,132.156,100.19839999999999L132.156,103.9328C130.883,105.0968,129.828,105.6906,128.578,105.6906ZM141.859,107.464C144.938,107.464,146.594,105.714,146.594,103.5343C146.594,100.98740000000001,144.523,100.19839999999999,142.633,99.4562C141.164,98.88589999999999,139.82,98.38589999999999,139.82,97.1281C139.82,96.0656,140.594,95.17490000000001,142.25,95.17490000000001C143.398,95.17490000000001,144.312,95.6906,145.195,96.36240000000001L146.258,94.9562C145.273,94.1437,143.828,93.464,142.219,93.464C139.367,93.464,137.734,95.0968,137.734,97.2218C137.734,99.5265,139.703,100.4171,141.523,101.11240000000001C142.969,101.6515,144.5,102.29990000000001,144.5,103.6593C144.5,104.82339999999999,143.664,105.76089999999999,141.938,105.76089999999999C140.375,105.76089999999999,139.219,105.1203,138.07,104.1515L137.016,105.6671C138.234,106.69839999999999,140.016,107.464,141.859,107.464ZM152.859,107.464C155.938,107.464,157.594,105.714,157.594,103.5343C157.594,100.98740000000001,155.523,100.19839999999999,153.633,99.4562C152.164,98.88589999999999,150.82,98.38589999999999,150.82,97.1281C150.82,96.0656,151.594,95.17490000000001,153.25,95.17490000000001C154.398,95.17490000000001,155.312,95.6906,156.195,96.36240000000001L157.258,94.9562C156.273,94.1437,154.828,93.464,153.219,93.464C150.367,93.464,148.734,95.0968,148.734,97.2218C148.734,99.5265,150.703,100.4171,152.523,101.11240000000001C153.969,101.6515,155.5,102.29990000000001,155.5,103.6593C155.5,104.82339999999999,154.664,105.76089999999999,152.938,105.76089999999999C151.375,105.76089999999999,150.219,105.1203,149.07,104.1515L148.016,105.6671C149.234,106.69839999999999,151.016,107.464,152.859,107.464ZM160.453,106.964L162.664,106.964L162.664,93.964L160.453,93.964L160.453,106.964ZM161.555,91.3468C162.422,91.3468,163.023,90.7687,163.023,89.88589999999999C163.023,89.0421,162.422,88.464,161.555,88.464C160.695,88.464,160.117,89.0421,160.117,89.88589999999999C160.117,90.7687,160.695,91.3468,161.555,91.3468ZM166.953,106.964L169.164,106.964L169.164,97.4015C170.461,96.0656,171.367,95.38589999999999,172.711,95.38589999999999C174.445,95.38589999999999,175.188,96.4328,175.188,98.9093L175.188,106.964L177.375,106.964L177.375,98.6203C177.375,95.2687,176.125,93.464,173.391,93.464C171.609,93.464,170.242,94.44839999999999,169.016,95.7062L168.969,95.7062L168.758,93.964L166.953,93.964L166.953,106.964ZM185.844,112.964C189.883,112.964,192.445,110.92490000000001,192.445,108.67490000000001C192.445,106.6046,190.914,105.6671,187.914,105.6671L185.344,105.6671C183.594,105.6671,183.062,105.0265,183.062,104.1515C183.062,103.3781,183.422,102.9171,183.906,102.51089999999999C184.477,102.79990000000001,185.195,102.964,185.82,102.964C188.508,102.964,190.602,101.214,190.602,98.3781C190.602,97.23740000000001,190.164,96.26089999999999,189.547,95.6515L192.211,95.6515L192.211,93.964L187.672,93.964C187.211,93.6124,186.57,93.464,185.82,93.464C183.203,93.464,180.953,95.2765,180.953,98.2531C180.953,99.8781,181.789,101.2062,182.656,101.88589999999999L182.656,101.98740000000001C181.961,102.464,181.211,103.3156,181.211,104.36240000000001C181.211,105.36240000000001,181.719,106.0343,182.391,106.4328L182.391,106.54990000000001C181.164,107.2765,180.469,108.36240000000001,180.469,109.48740000000001C180.469,111.7218,182.68,112.964,185.844,112.964ZM185.82,101.4796C184.336,101.4796,183.062,100.2296,183.062,98.2531C183.062,96.2531,184.312,95.07339999999999,185.82,95.07339999999999C187.383,95.07339999999999,188.609,96.2531,188.609,98.2531C188.609,100.2296,187.336,101.4796,185.82,101.4796ZM186.156,111.4562C183.781,111.4562,182.391,110.5656,182.391,109.17490000000001C182.391,108.4328,182.773,107.63589999999999,183.711,106.964C184.289,107.4171,184.914,107.464,185.391,107.464L187.648,107.464C189.375,107.464,190.289,107.8703,190.289,109.0031C190.289,110.1593,188.68,111.4562,186.156,111.4562ZM203.266,106.964L205.828,106.964L210.438,93.964L208.281,93.964L205.805,101.36240000000001C205.422,102.6281,204.992,103.94839999999999,204.609,105.1906L204.484,105.1906C204.102,103.94839999999999,203.695,102.6281,203.289,101.36240000000001L200.836,93.964L198.555,93.964L203.266,106.964ZM212.953,106.964L215.164,106.964L215.164,93.964L212.953,93.964L212.953,106.964ZM214.055,91.3468C214.922,91.3468,215.523,90.7687,215.523,89.88589999999999C215.523,89.0421,214.922,88.464,214.055,88.464C213.195,88.464,212.617,89.0421,212.617,89.88589999999999C212.617,90.7687,213.195,91.3468,214.055,91.3468ZM222.453,107.464C224.062,107.464,225.523,106.6281,226.773,105.589L226.844,105.589L227.039,106.964L228.836,106.964L228.836,98.86240000000001C228.836,95.5812,227.516,93.464,224.328,93.464C222.211,93.464,220.391,94.4015,219.211,95.17490000000001L220.055,96.69839999999999C221.086,95.9953,222.453,95.2921,223.969,95.2921C226.102,95.2921,226.656,96.9171,226.656,98.6203C221.109,99.2453,218.664,100.6828,218.664,103.5421C218.664,106.1203,220.273,107.464,222.453,107.464ZM223.078,105.6906C221.781,105.6906,220.773,105.0968,220.773,103.5656C220.773,101.8312,222.266,100.714,226.656,100.19839999999999L226.656,103.9328C225.383,105.0968,224.328,105.6906,223.078,105.6906ZM238.43,106.964L249.594,106.964L249.594,103.9953L241.984,103.9953L241.984,98.964L248.195,98.964L248.195,95.9953L241.984,95.9953L241.984,91.9406L249.328,91.9406L249.328,88.964L238.43,88.964L238.43,106.964ZM257.867,107.464C259.266,107.464,260.609,106.7218,261.594,105.73740000000001L261.688,105.73740000000001L261.953,106.964L264.828,106.964L264.828,87.589L261.305,87.589L261.305,92.32339999999999L261.422,94.4328C260.461,93.5421,259.523,92.964,258.016,92.964C255.133,92.964,252.375,95.6593,252.375,100.11240000000001C252.375,104.8312,254.508,107.464,257.867,107.464ZM258.781,104.5656C257.008,104.5656,256,103.1046,256,100.1671C256,97.3781,257.273,95.8703,258.781,95.8703C259.648,95.8703,260.484,96.1437,261.305,96.92490000000001L261.305,103.1046C260.531,104.1593,259.719,104.5656,258.781,104.5656ZM273.367,112.964C277.859,112.964,280.688,110.9015,280.688,108.2453C280.688,105.9093,278.914,104.9015,275.672,104.9015L273.367,104.9015C271.812,104.9015,271.258,104.5187,271.258,103.82339999999999C271.258,103.2531,271.5,102.964,271.836,102.6593C272.438,102.8703,273.062,102.964,273.562,102.964C276.469,102.964,278.773,101.4562,278.773,98.2453C278.773,97.3468,278.508,96.54990000000001,278.172,96.0578L280.453,96.0578L280.453,93.464L275.625,93.464C275.055,93.1124,274.352,92.964,273.562,92.964C270.727,92.964,268.164,94.6749,268.164,98.04990000000001C268.164,99.7843,269.023,101.1437,269.961,101.8156L269.961,101.9093C269.148,102.48740000000001,268.477,103.4171,268.477,104.4015C268.477,105.5265,268.977,106.2218,269.695,106.67490000000001L269.695,106.7921C268.43,107.4953,267.781,108.4328,267.781,109.5343C267.781,111.88589999999999,270.203,112.964,273.367,112.964ZM273.562,100.7843C272.414,100.7843,271.477,99.8078,271.477,98.04990000000001C271.477,96.339,272.383,95.3937,273.562,95.3937C274.766,95.3937,275.695,96.339,275.695,98.04990000000001C275.695,99.8078,274.766,100.7843,273.562,100.7843ZM273.898,110.714C271.953,110.714,270.703,110.0968,270.703,109.0187C270.703,108.4562,270.969,107.9406,271.57,107.464C272.078,107.6593,272.625,107.7062,273.422,107.7062L275.078,107.7062C276.516,107.7062,277.305,107.9562,277.305,108.8781C277.305,109.839,275.938,110.714,273.898,110.714ZM289,107.464C290.656,107.464,292.359,106.8937,293.68,105.9796L292.477,103.79990000000001C291.492,104.4093,290.562,104.7296,289.477,104.7296C287.461,104.7296,286.023,103.5812,285.734,101.3468L294.016,101.3468C294.109,101.01089999999999,294.18,100.36240000000001,294.18,99.714C294.18,95.6593,292.266,92.964,288.57,92.964C285.375,92.964,282.305,95.6828,282.305,100.339C282.305,104.8546,285.227,107.464,289,107.464ZM285.664,98.964C285.953,96.8156,287.195,95.7062,288.617,95.7062C290.367,95.7062,291.156,96.9796,291.156,98.964L285.664,98.964ZM300.984,107.464C304.461,107.464,306.336,105.5968,306.336,103.1515C306.336,100.5656,304.367,99.61240000000001,302.594,98.9171C301.148,98.36240000000001,299.93,97.98740000000001,299.93,96.964C299.93,96.1593,300.5,95.6046,301.727,95.6046C302.711,95.6046,303.648,96.11240000000001,304.609,96.8078L306.188,94.6203C305.086,93.76089999999999,303.578,92.964,301.633,92.964C298.555,92.964,296.617,94.6749,296.617,97.13589999999999C296.617,99.48740000000001,298.508,100.5656,300.211,101.2453C301.633,101.82339999999999,303.023,102.29990000000001,303.023,103.3468C303.023,104.2296,302.422,104.8312,301.078,104.8312C299.805,104.8312,298.68,104.2531,297.477,103.29990000000001L295.867,105.5968C297.211,106.69839999999999,299.18,107.464,300.984,107.464Z" fill="#3D3D3D" fill-opacity="1"/></g><g style="mix-blend-mode:passthrough"><path d="M88.0039,52.446C91.5312,52.446,94.44919999999999,51.1569,96.13669999999999,49.3874L96.13669999999999,38.196L87.4648,38.196L87.4648,40.973299999999995L93.0781,40.973299999999995L93.0781,47.9694C92.0352,48.9538,90.1953,49.5397,88.3203,49.5397C82.6719,49.5397,79.5078,45.3093,79.5078,38.5944C79.5078,31.8093,82.9531,27.614,88.2852,27.614C90.9102,27.614,92.6445,28.7741,93.9805,30.1804L95.77340000000001,27.9538C94.26169999999999,26.3601,91.8477,24.695999999999998,88.1797,24.695999999999998C81.1953,24.695999999999998,76.08590000000001,29.9226,76.08590000000001,38.711600000000004C76.08590000000001,47.3483,81.0547,52.446,88.0039,52.446ZM102.0547,51.696L105.3711,51.696L105.3711,38.9929C106.6602,35.6413,108.6406,34.399100000000004,110.2695,34.399100000000004C111.0898,34.399100000000004,111.5234,34.5163,112.168,34.727199999999996L112.7891,32.196C112.168,31.5632,111.5586,31.446,110.6914,31.446C108.5352,31.446,106.5195,33.039699999999996,105.1484,35.535799999999995L105.0781,35.535799999999995L104.7617,32.196L102.0547,32.196L102.0547,51.696ZM120.8047,52.446C123.2188,52.446,125.4102,51.1921,127.2852,49.6335L127.3906,49.6335L127.6836,51.696L130.3789,51.696L130.3789,39.5437C130.3789,34.6218,128.39839999999998,31.446,123.6172,31.446C120.4414,31.446,117.7109,32.852199999999996,115.9414,34.0124L117.207,36.2976C118.7539,35.2429,120.8047,34.188199999999995,123.0781,34.188199999999995C126.2773,34.188199999999995,127.1094,36.625699999999995,127.1094,39.1804C118.7891,40.1179,115.1211,42.2741,115.1211,46.5632C115.1211,50.4304,117.5352,52.446,120.8047,52.446ZM121.7422,49.7858C119.7969,49.7858,118.2852,48.8952,118.2852,46.5983C118.2852,43.9968,120.5234,42.321,127.1094,41.5476L127.1094,47.1491C125.1992,48.8952,123.6172,49.7858,121.7422,49.7858ZM136.5547,59.946L139.87099999999998,59.946L139.87099999999998,53.5593L139.76600000000002,50.1843C141.523,51.6608,143.398,52.446,145.156,52.446C149.62099999999998,52.446,153.652,48.5671,153.652,41.653C153.652,35.4187,150.922,31.446,145.88299999999998,31.446C143.60899999999998,31.446,141.418,32.7468,139.648,34.223299999999995L139.578,34.223299999999995L139.262,32.196L136.5547,32.196L136.5547,59.946ZM144.61700000000002,49.6804C143.328,49.6804,141.594,49.1647,139.87099999999998,47.6413L139.87099999999998,36.977199999999996C141.74599999999998,35.196,143.434,34.223299999999995,145.051,34.223299999999995C148.801,34.223299999999995,150.24200000000002,37.1999,150.24200000000002,41.688199999999995C150.24200000000002,46.7272,147.863,49.6804,144.61700000000002,49.6804ZM159.055,51.696L162.37099999999998,51.696L162.37099999999998,37.352199999999996C164.316,35.348299999999995,165.676,34.3288,167.691,34.3288C170.293,34.3288,171.406,35.899100000000004,171.406,39.614000000000004L171.406,51.696L174.688,51.696L174.688,39.1804C174.688,34.153,172.812,31.446,168.711,31.446C166.039,31.446,164.023,32.9226,162.23000000000002,34.727199999999996L162.37099999999998,30.696L162.37099999999998,22.8444L159.055,22.8444L159.055,51.696ZM185.914,52.446C190.531,52.446,193.016,49.821,193.016,46.5515C193.016,42.7312,189.91,41.5476,187.074,40.4343C184.871,39.5788,182.855,38.8288,182.855,36.942099999999996C182.855,35.348299999999995,184.016,34.0124,186.5,34.0124C188.223,34.0124,189.594,34.785799999999995,190.918,35.7937L192.512,33.6843C191.035,32.4655,188.867,31.446,186.453,31.446C182.176,31.446,179.727,33.8952,179.727,37.0827C179.727,40.539699999999996,182.68,41.875699999999995,185.41,42.9187C187.578,43.7272,189.875,44.6999,189.875,46.739C189.875,48.4851,188.621,49.8913,186.031,49.8913C183.688,49.8913,181.953,48.9304,180.23,47.4772L178.648,49.7507C180.477,51.2976,183.148,52.446,185.914,52.446Z" fill="#3D3D3D" fill-opacity="1"/></g><g style="mix-blend-mode:passthrough"><path d="M609.8828,41.696L613.1875,41.696L613.1875,29.5788L625.5039,29.5788L625.5039,41.696L628.8555,41.696L628.8555,15.446L625.5039,15.446L625.5039,26.696L613.1875,26.696L613.1875,15.446L609.8828,15.446L609.8828,41.696ZM636.1328,49.946C640.0234,49.946,642.0742,47.0046,643.4336,43.2194L650.7812,22.196L647.582,22.196L644.0547,32.9421C643.5508,34.6882,642.9766,36.6569,642.4727,38.4382L642.2852,38.4382C641.6055,36.6218,640.9492,34.653,640.3398,32.9421L636.3789,22.196L632.957,22.196L640.8086,41.614L640.375,43.0788C639.5547,45.4694,638.1836,47.2507,635.9922,47.2507C635.4414,47.2507,634.8672,47.0749,634.4688,46.9343L633.8242,49.5593C634.4336,49.8054,635.2305,49.946,636.1328,49.946ZM654.5547,49.946L657.8711,49.946L657.8711,43.5593L657.7656,40.1843C659.5234,41.6608,661.3984,42.446,663.1562,42.446C667.6211,42.446,671.6523,38.5671,671.6523,31.653C671.6523,25.4187,668.9219,21.446,663.8828,21.446C661.6094,21.446,659.418,22.7468,657.6484,24.2233L657.5781,24.2233L657.2617,22.196L654.5547,22.196L654.5547,49.946ZM662.6172,39.6804C661.3281,39.6804,659.5938,39.1647,657.8711,37.6413L657.8711,26.9772C659.7461,25.196,661.4336,24.2233,663.0508,24.2233C666.8008,24.2233,668.2422,27.1999,668.2422,31.6882C668.2422,36.7272,665.8633,39.6804,662.6172,39.6804ZM684.9766,42.446C687.6016,42.446,689.6992,41.5905,691.3867,40.4772L690.2383,38.2155C688.7617,39.2233,687.25,39.821,685.3398,39.821C681.625,39.821,679.0703,37.0554,678.8594,32.696L692.0312,32.696C692.1016,32.1921,692.1836,31.5476,692.1836,30.8327C692.1836,25.0788,689.3711,21.446,684.3672,21.446C679.9023,21.446,675.6133,25.4187,675.6133,31.946C675.6133,38.6257,679.7617,42.446,684.9766,42.446ZM678.8242,30.364C679.2109,26.3444,681.6602,24.0827,684.4375,24.0827C687.4961,24.0827,689.3008,26.2741,689.3008,30.364L678.8242,30.364ZM697.3050000000001,41.696L700.621,41.696L700.621,28.9929C701.91,25.6413,703.891,24.3991,705.52,24.3991C706.34,24.3991,706.773,24.5163,707.418,24.7272L708.039,22.196C707.418,21.5632,706.809,21.446,705.941,21.446C703.785,21.446,701.77,23.0397,700.398,25.5358L700.328,25.5358L700.012,22.196L697.3050000000001,22.196L697.3050000000001,41.696ZM718.141,50.696C724.1990000000001,50.696,728.043,47.6374,728.043,44.2624C728.043,41.1569,725.746,39.7507,721.246,39.7507L717.391,39.7507C714.766,39.7507,713.969,38.7897,713.969,37.4772C713.969,36.3171,714.508,35.6257,715.234,35.0163C716.09,35.4499,717.168,35.696,718.105,35.696C722.137,35.696,725.277,33.071,725.277,28.8171C725.277,27.1062,724.621,25.6413,723.6949999999999,24.7272L727.691,24.7272L727.691,22.196L720.883,22.196C720.191,21.6687,719.23,21.446,718.105,21.446C714.1800000000001,21.446,710.8050000000001,24.1647,710.8050000000001,28.6296C710.8050000000001,31.0671,712.059,33.0593,713.359,34.0788L713.359,34.2312C712.316,34.946,711.191,36.2233,711.191,37.7937C711.191,39.2937,711.953,40.3015,712.961,40.8991L712.961,41.0749C711.121,42.1647,710.078,43.7937,710.078,45.4812C710.078,48.8327,713.395,50.696,718.141,50.696ZM718.105,33.4694C715.879,33.4694,713.969,31.5944,713.969,28.6296C713.969,25.6296,715.844,23.8601,718.105,23.8601C720.449,23.8601,722.289,25.6296,722.289,28.6296C722.289,31.5944,720.379,33.4694,718.105,33.4694ZM718.609,48.4343C715.047,48.4343,712.961,47.0983,712.961,45.0124C712.961,43.8991,713.535,42.7038,714.941,41.696C715.809,42.3757,716.746,42.446,717.461,42.446L720.848,42.446C723.438,42.446,724.809,43.0554,724.809,44.7546C724.809,46.489,722.395,48.4343,718.609,48.4343ZM731.8050000000001,41.696L735.121,41.696L735.121,28.9929C736.41,25.6413,738.391,24.3991,740.02,24.3991C740.84,24.3991,741.273,24.5163,741.918,24.7272L742.539,22.196C741.918,21.5632,741.309,21.446,740.441,21.446C738.285,21.446,736.27,23.0397,734.898,25.5358L734.828,25.5358L734.512,22.196L731.8050000000001,22.196L731.8050000000001,41.696ZM750.5550000000001,42.446C752.969,42.446,755.16,41.1921,757.035,39.6335L757.141,39.6335L757.434,41.696L760.129,41.696L760.129,29.5437C760.129,24.6218,758.148,21.446,753.367,21.446C750.191,21.446,747.461,22.8522,745.691,24.0124L746.957,26.2976C748.504,25.2429,750.5550000000001,24.1882,752.828,24.1882C756.027,24.1882,756.859,26.6257,756.859,29.1804C748.539,30.1179,744.871,32.2741,744.871,36.5632C744.871,40.4304,747.285,42.446,750.5550000000001,42.446ZM751.492,39.7858C749.547,39.7858,748.035,38.8952,748.035,36.5983C748.035,33.9968,750.273,32.321,756.859,31.5476L756.859,37.1491C754.9490000000001,38.8952,753.367,39.7858,751.492,39.7858ZM766.3050000000001,49.946L769.621,49.946L769.621,43.5593L769.516,40.1843C771.273,41.6608,773.148,42.446,774.906,42.446C779.371,42.446,783.402,38.5671,783.402,31.653C783.402,25.4187,780.672,21.446,775.633,21.446C773.359,21.446,771.168,22.7468,769.398,24.2233L769.328,24.2233L769.012,22.196L766.3050000000001,22.196L766.3050000000001,49.946ZM774.367,39.6804C773.078,39.6804,771.344,39.1647,769.621,37.6413L769.621,26.9772C771.496,25.196,773.184,24.2233,774.8009999999999,24.2233C778.5509999999999,24.2233,779.992,27.1999,779.992,31.6882C779.992,36.7272,777.613,39.6804,774.367,39.6804ZM788.8050000000001,41.696L792.121,41.696L792.121,27.3522C794.066,25.3483,795.4259999999999,24.3288,797.441,24.3288C800.043,24.3288,801.156,25.8991,801.156,29.614L801.156,41.696L804.438,41.696L804.438,29.1804C804.438,24.153,802.562,21.446,798.461,21.446C795.789,21.446,793.773,22.9226,791.98,24.7272L792.121,20.696L792.121,12.8444L788.8050000000001,12.8444L788.8050000000001,41.696ZM815.664,42.446C820.281,42.446,822.766,39.821,822.766,36.5515C822.766,32.7312,819.66,31.5476,816.8240000000001,30.4343C814.621,29.5788,812.605,28.8288,812.605,26.9421C812.605,25.3483,813.766,24.0124,816.25,24.0124C817.973,24.0124,819.344,24.7858,820.668,25.7937L822.262,23.6843C820.785,22.4655,818.617,21.446,816.203,21.446C811.9259999999999,21.446,809.477,23.8952,809.477,27.0827C809.477,30.5397,812.4300000000001,31.8757,815.16,32.9187C817.328,33.7272,819.625,34.6999,819.625,36.739C819.625,38.4851,818.371,39.8913,815.781,39.8913C813.438,39.8913,811.703,38.9304,809.98,37.4772L808.398,39.7507C810.227,41.2976,812.898,42.446,815.664,42.446Z" fill="#3D3D3D" fill-opacity="1"/></g><g style="mix-blend-mode:passthrough"><path d="M201,203L78,203L78,199L201,199L201,203Z" fill="#000000" fill-opacity="1"/></g><g style="mix-blend-mode:passthrough"><path d="M201,313L78,313L78,309L201,309L201,313Z" fill="#000000" fill-opacity="1"/></g><g style="mix-blend-mode:passthrough"><path d="M148,421L119,421L119,419L148,419L148,421ZM157,420L146.9541,425.8L146.9541,414.2L157,420Z" fill="#000000" fill-opacity="1"/></g><g style="mix-blend-mode:passthrough"><path d="M719,423L690,423L690,421L719,421L719,423ZM728,422L717.9541,427.8L717.9541,416.2L728,422Z" fill="#000000" fill-opacity="1"/></g><g style="mix-blend-mode:passthrough"><path d="M805,298.5Q795.679,298.5,786.436,289.773Q782.962,286.493,779.0550000000001,281.5697Q776.765,278.6844,772.575,272.8888Q769.7719999999999,269.012,768.451,267.2816Q766.3050000000001,264.4712,764.693,262.7469Q761.19,259,759,259L759,255Q761.22,255,763.565,256.4971Q765.451,257.7009,767.615,260.0152Q769.363,261.885,771.63,264.8541Q772.984,266.62649999999996,775.817,270.5453Q779.954,276.2685,782.188,279.08320000000003Q785.917,283.7817,789.182,286.865Q797.269,294.5,805,294.5L805,298.5ZM611,333.5Q615.2314,333.5,619.38999,330.553Q623.2989,327.78200000000004,627.3869,322.243Q630.8759,317.51599999999996,634.9729,310.067Q637.4533,305.557,642.3239,295.877Q647.3271,285.933,649.913,281.2425Q654.2607,273.3573,658.0444,268.26980000000003Q662.6839,262.0317,667.3157,258.7919Q672.7367,255,678.5,255L678.5,259Q673.9968,259,669.6084,262.0696Q665.5072,264.9384,661.2541,270.6569Q657.6324,275.5265,653.4159,283.1739Q650.8663,287.798,645.8971,297.675Q640.9935,307.421,638.4777,311.995Q634.2524,319.677,630.6052999999999,324.619Q626.1359,330.674,621.703,333.81600000000003Q616.50518,337.5,611,337.5L611,333.5ZM613,255L678.5,255L678.5,259L613,259L613,255ZM805,219.5Q800.4010000000001,219.5,792.782,226.5119Q789.634,229.4095,785.598,233.8644Q783.178,236.5351,778.44,242.0521Q774.792,246.2996,773.064,248.2387Q770.179,251.4769,768.082,253.5236Q765.511,256.0329,763.54,257.3358Q761.023,259,759,259L698.0317,259L678.5,259Q674.5968,259,670.6525,256.0354Q667.3649,253.5643,663.7655,248.7841Q660.8214,244.8742,657.1566,238.7067Q654.963,235.0151,650.4931,226.9718Q644.9668,217.0274,642.0591,212.2468Q637.2158,204.284,633.0304,199.1249Q628.061,192.99965,623.3201,189.88678Q618.16195,186.5,613,186.5L613,182.5Q619.35777,182.5,625.5155,186.54311Q630.7759,189.99702,636.1367,196.6048Q640.4926,201.9741,645.4766,210.1681Q648.4251,215.0158,653.9895,225.0288Q658.4313,233.0216,660.5953,236.6634Q664.1484,242.6429,666.9609,246.378Q673.4532,255,678.5,255L698.0317,255L759,255Q760.842,255,765.288,250.6609Q768.289,247.7323,775.405,239.446Q780.178,233.8884,782.633,231.1789Q786.7909999999999,226.5892,790.073,223.5687Q794.13,219.8358,797.5,217.87279999999998Q801.575,215.5,805,215.5L805,219.5ZM759,259L678.5,259L678.5,255L759,255L759,259Z" fill="#000000" fill-opacity="1"/></g><g style="mix-blend-mode:passthrough"><ellipse cx="597.9996204376221" cy="184.38548469543457" rx="14.99962043762207" ry="14.99962043762207" transform="matrix(0.9999478459358215,-0.012447524815797806,0.012447524815797806,0.9999478459358215,-2.0780289293784335,7.265741128845548)" fill="#82318E" fill-opacity="1"/></g><g style="mix-blend-mode:passthrough"><ellipse cx="597.9996204376221" cy="334.37303352355957" rx="14.99962043762207" ry="14.99962043762207" transform="matrix(0.9999478459358215,-0.012447524815797806,0.012447524815797806,0.9999478459358215,-3.9450026654772046,7.273563589093101)" fill="#82318E" fill-opacity="1"/></g><g style="mix-blend-mode:passthrough"><ellipse cx="597.9996204376221" cy="257.38548469543457" rx="14.99962043762207" ry="14.99962043762207" transform="matrix(0.9999478459358215,-0.012447524815797806,0.012447524815797806,0.9999478459358215,-2.9866982409316734,7.269548375530576)" fill="#82318E" fill-opacity="1"/></g><g style="mix-blend-mode:passthrough"><ellipse cx="64" cy="201.3734130859375" rx="15" ry="15" transform="matrix(0.9999478459358215,-0.012447524815797806,0.012447524815797806,0.9999478459358215,-2.3173321352473977,0.6196488469213364)" fill="#82318E" fill-opacity="1"/></g><g style="mix-blend-mode:passthrough"><ellipse cx="64" cy="311.3734130859375" rx="15" ry="15" transform="matrix(0.9999478459358215,-0.012447524815797806,0.012447524815797806,0.9999478459358215,-3.6865598649851563,0.6253857939809677)" fill="#82318E" fill-opacity="1"/></g><g style="mix-blend-mode:passthrough"><ellipse cx="214" cy="201.3734130859375" rx="15" ry="15" transform="matrix(0.9999478459358215,-0.012447524815797806,0.012447524815797806,0.9999478459358215,-2.3095090256206277,2.4867775692910072)" fill="#82318E" fill-opacity="1"/></g><g style="mix-blend-mode:passthrough"><ellipse cx="214" cy="311.3734130859375" rx="15" ry="15" transform="matrix(0.9999478459358215,-0.012447524815797806,0.012447524815797806,0.9999478459358215,-3.6787367553583863,2.4925145163506386)" fill="#82318E" fill-opacity="1"/></g></g></g></svg>