<svg xmlns="http://www.w3.org/2000/svg" xmlns:xlink="http://www.w3.org/1999/xlink" fill="none" version="1.1" width="52" height="70" viewBox="0 0 52 70"><g style="mix-blend-mode:passthrough"><g><g style="mix-blend-mode:passthrough"><path d="M12.8031,12.8035C14.1605,11.4462,15,9.57117,15,7.5C15,3.35786,11.6421,0,7.5,0C3.35786,0,0,3.35786,0,7.5C0,11.6421,3.35786,15,7.5,15C8.30433,15,9.0791,14.8734,9.80544,14.639C12.928,21.0407,14.4929,27.8123,14.5,34.9537Q14.5107,45.7122,9.8054,55.361C9.07907,55.1266,8.30432,55,7.5,55C3.35786,55,0,58.3579,0,62.5C0,66.6421,3.35786,70,7.5,70C11.6421,70,15,66.6421,15,62.5C15,60.5869,14.2837,58.8411,13.1047,57.5161Q22.0848,43.7776,37.735,38.7421C38.9444,41.261,41.5191,43,44.5,43C48.6421,43,52,39.6421,52,35.5C52,31.3579,48.6421,28,44.5,28C40.3579,28,37,31.3579,37,35.5C37,35.5861,37.0015,35.6719,37.0043,35.7573L36.8729,35.3432Q24.7544,39.1898,16.3355,47.8635C17.4496,43.6907,18.0044,39.3863,18,34.9502C17.9922,27.1586,16.2599,19.7763,12.8031,12.8035Z" fill-rule="evenodd" fill="#FFFFFF" fill-opacity="1"/></g></g></g></svg>